%TF.GenerationSoftware,KiCad,Pcbnew,8.0.6*%
%TF.CreationDate,2024-12-03T19:12:22+01:00*%
%TF.ProjectId,HomeAutomationESP32C2mini_2024,486f6d65-4175-4746-9f6d-6174696f6e45,Rev A*%
%TF.SameCoordinates,Original*%
%TF.FileFunction,Drillmap*%
%TF.FilePolarity,Positive*%
%FSLAX45Y45*%
G04 Gerber Fmt 4.5, Leading zero omitted, Abs format (unit mm)*
G04 Created by KiCad (PCBNEW 8.0.6) date 2024-12-03 19:12:22*
%MOMM*%
%LPD*%
G01*
G04 APERTURE LIST*
%ADD10C,0.050000*%
%ADD11C,0.200000*%
G04 APERTURE END LIST*
D10*
X8475000Y-13700000D02*
X8800000Y-13700000D01*
X15000000Y-5000000D02*
X5000000Y-5000000D01*
X9600000Y-8225000D02*
X9600000Y-8375000D01*
X6375000Y-11230000D02*
X5720000Y-11230000D01*
X6875000Y-8375000D02*
X6875000Y-8225000D01*
X6250000Y-11330000D02*
X6250000Y-11920000D01*
X5720000Y-11230000D02*
X5720000Y-12000000D01*
X9475000Y-6300000D02*
X9475000Y-8225000D01*
X11150000Y-8344500D02*
X14525000Y-8344500D01*
X6250000Y-11920000D02*
X6375000Y-11920000D01*
X11000000Y-6300000D02*
X11125000Y-6300000D01*
X5720000Y-12000000D02*
X5850000Y-12000000D01*
X11150000Y-9619500D02*
X11150000Y-8344500D01*
X5000000Y-5000000D02*
X5000000Y-15000000D01*
X9575000Y-13900000D02*
X9575000Y-9275000D01*
X9600000Y-8225000D02*
X9600000Y-6300000D01*
X9725000Y-9275000D02*
X9725000Y-13900000D01*
X7550000Y-13575000D02*
X7550000Y-13700000D01*
X6375000Y-11920000D02*
X6375000Y-11230000D01*
X11175000Y-8194500D02*
X11000000Y-8194500D01*
X8375000Y-13700000D02*
X8375000Y-14700000D01*
X11000000Y-9619500D02*
X11150000Y-9619500D01*
X14525000Y-8194500D02*
X11175000Y-8194500D01*
X6875000Y-8225000D02*
X9475000Y-8225000D01*
X9600000Y-8375000D02*
X6875000Y-8375000D01*
X7550000Y-13700000D02*
X8375000Y-13700000D01*
X9575000Y-9275000D02*
X9725000Y-9275000D01*
X8375000Y-14700000D02*
X8475000Y-14700000D01*
X11125000Y-7925000D02*
X11000000Y-7925000D01*
X8800000Y-13700000D02*
X8800000Y-13575000D01*
X14525000Y-8344500D02*
X14525000Y-8194500D01*
X15000000Y-15000000D02*
X15000000Y-5000000D01*
X11125000Y-6300000D02*
X11125000Y-7925000D01*
X5850000Y-11330000D02*
X6250000Y-11330000D01*
X11000000Y-7925000D02*
X11000000Y-6300000D01*
X9725000Y-13900000D02*
X9575000Y-13900000D01*
X8475000Y-14700000D02*
X8475000Y-13700000D01*
X5850000Y-12000000D02*
X5850000Y-11330000D01*
X5000000Y-15000000D02*
X15000000Y-15000000D01*
X8800000Y-13575000D02*
X7550000Y-13575000D01*
X9600000Y-6300000D02*
X9475000Y-6300000D01*
X11000000Y-8194500D02*
X11000000Y-9619500D01*
D11*
X5258277Y-15313984D02*
X5258277Y-15113984D01*
X5258277Y-15113984D02*
X5305896Y-15113984D01*
X5305896Y-15113984D02*
X5334467Y-15123508D01*
X5334467Y-15123508D02*
X5353515Y-15142555D01*
X5353515Y-15142555D02*
X5363039Y-15161603D01*
X5363039Y-15161603D02*
X5372563Y-15199698D01*
X5372563Y-15199698D02*
X5372563Y-15228269D01*
X5372563Y-15228269D02*
X5363039Y-15266365D01*
X5363039Y-15266365D02*
X5353515Y-15285412D01*
X5353515Y-15285412D02*
X5334467Y-15304460D01*
X5334467Y-15304460D02*
X5305896Y-15313984D01*
X5305896Y-15313984D02*
X5258277Y-15313984D01*
X5458277Y-15313984D02*
X5458277Y-15180650D01*
X5458277Y-15218746D02*
X5467801Y-15199698D01*
X5467801Y-15199698D02*
X5477324Y-15190174D01*
X5477324Y-15190174D02*
X5496372Y-15180650D01*
X5496372Y-15180650D02*
X5515420Y-15180650D01*
X5582086Y-15313984D02*
X5582086Y-15180650D01*
X5582086Y-15113984D02*
X5572563Y-15123508D01*
X5572563Y-15123508D02*
X5582086Y-15133031D01*
X5582086Y-15133031D02*
X5591610Y-15123508D01*
X5591610Y-15123508D02*
X5582086Y-15113984D01*
X5582086Y-15113984D02*
X5582086Y-15133031D01*
X5705896Y-15313984D02*
X5686848Y-15304460D01*
X5686848Y-15304460D02*
X5677324Y-15285412D01*
X5677324Y-15285412D02*
X5677324Y-15113984D01*
X5810658Y-15313984D02*
X5791610Y-15304460D01*
X5791610Y-15304460D02*
X5782086Y-15285412D01*
X5782086Y-15285412D02*
X5782086Y-15113984D01*
X6039229Y-15313984D02*
X6039229Y-15113984D01*
X6039229Y-15113984D02*
X6105896Y-15256841D01*
X6105896Y-15256841D02*
X6172562Y-15113984D01*
X6172562Y-15113984D02*
X6172562Y-15313984D01*
X6353515Y-15313984D02*
X6353515Y-15209222D01*
X6353515Y-15209222D02*
X6343991Y-15190174D01*
X6343991Y-15190174D02*
X6324943Y-15180650D01*
X6324943Y-15180650D02*
X6286848Y-15180650D01*
X6286848Y-15180650D02*
X6267801Y-15190174D01*
X6353515Y-15304460D02*
X6334467Y-15313984D01*
X6334467Y-15313984D02*
X6286848Y-15313984D01*
X6286848Y-15313984D02*
X6267801Y-15304460D01*
X6267801Y-15304460D02*
X6258277Y-15285412D01*
X6258277Y-15285412D02*
X6258277Y-15266365D01*
X6258277Y-15266365D02*
X6267801Y-15247317D01*
X6267801Y-15247317D02*
X6286848Y-15237793D01*
X6286848Y-15237793D02*
X6334467Y-15237793D01*
X6334467Y-15237793D02*
X6353515Y-15228269D01*
X6448753Y-15180650D02*
X6448753Y-15380650D01*
X6448753Y-15190174D02*
X6467801Y-15180650D01*
X6467801Y-15180650D02*
X6505896Y-15180650D01*
X6505896Y-15180650D02*
X6524943Y-15190174D01*
X6524943Y-15190174D02*
X6534467Y-15199698D01*
X6534467Y-15199698D02*
X6543991Y-15218746D01*
X6543991Y-15218746D02*
X6543991Y-15275888D01*
X6543991Y-15275888D02*
X6534467Y-15294936D01*
X6534467Y-15294936D02*
X6524943Y-15304460D01*
X6524943Y-15304460D02*
X6505896Y-15313984D01*
X6505896Y-15313984D02*
X6467801Y-15313984D01*
X6467801Y-15313984D02*
X6448753Y-15304460D01*
X6629705Y-15294936D02*
X6639229Y-15304460D01*
X6639229Y-15304460D02*
X6629705Y-15313984D01*
X6629705Y-15313984D02*
X6620182Y-15304460D01*
X6620182Y-15304460D02*
X6629705Y-15294936D01*
X6629705Y-15294936D02*
X6629705Y-15313984D01*
X6629705Y-15190174D02*
X6639229Y-15199698D01*
X6639229Y-15199698D02*
X6629705Y-15209222D01*
X6629705Y-15209222D02*
X6620182Y-15199698D01*
X6620182Y-15199698D02*
X6629705Y-15190174D01*
X6629705Y-15190174D02*
X6629705Y-15209222D01*
M02*
