%TF.GenerationSoftware,KiCad,Pcbnew,8.0.6*%
%TF.CreationDate,2024-12-03T19:12:22+01:00*%
%TF.ProjectId,HomeAutomationESP32C2mini_2024,486f6d65-4175-4746-9f6d-6174696f6e45,Rev A*%
%TF.SameCoordinates,Original*%
%TF.FileFunction,Drillmap*%
%TF.FilePolarity,Positive*%
%FSLAX45Y45*%
G04 Gerber Fmt 4.5, Leading zero omitted, Abs format (unit mm)*
G04 Created by KiCad (PCBNEW 8.0.6) date 2024-12-03 19:12:22*
%MOMM*%
%LPD*%
G01*
G04 APERTURE LIST*
%ADD10C,0.050000*%
%ADD11C,0.200000*%
%ADD12C,0.100000*%
%ADD13C,0.101600*%
%ADD14C,0.110000*%
%ADD15C,0.130000*%
G04 APERTURE END LIST*
D10*
X8475000Y-13700000D02*
X8800000Y-13700000D01*
X15000000Y-5000000D02*
X5000000Y-5000000D01*
X9600000Y-8225000D02*
X9600000Y-8375000D01*
X6375000Y-11230000D02*
X5720000Y-11230000D01*
X6875000Y-8375000D02*
X6875000Y-8225000D01*
X6250000Y-11330000D02*
X6250000Y-11920000D01*
X5720000Y-11230000D02*
X5720000Y-12000000D01*
X9475000Y-6300000D02*
X9475000Y-8225000D01*
X11150000Y-8344500D02*
X14525000Y-8344500D01*
X6250000Y-11920000D02*
X6375000Y-11920000D01*
X11000000Y-6300000D02*
X11125000Y-6300000D01*
X5720000Y-12000000D02*
X5850000Y-12000000D01*
X11150000Y-9619500D02*
X11150000Y-8344500D01*
X5000000Y-5000000D02*
X5000000Y-15000000D01*
X9575000Y-13900000D02*
X9575000Y-9275000D01*
X9600000Y-8225000D02*
X9600000Y-6300000D01*
X9725000Y-9275000D02*
X9725000Y-13900000D01*
X7550000Y-13575000D02*
X7550000Y-13700000D01*
X6375000Y-11920000D02*
X6375000Y-11230000D01*
X11175000Y-8194500D02*
X11000000Y-8194500D01*
X8375000Y-13700000D02*
X8375000Y-14700000D01*
X11000000Y-9619500D02*
X11150000Y-9619500D01*
X14525000Y-8194500D02*
X11175000Y-8194500D01*
X6875000Y-8225000D02*
X9475000Y-8225000D01*
X9600000Y-8375000D02*
X6875000Y-8375000D01*
X7550000Y-13700000D02*
X8375000Y-13700000D01*
X9575000Y-9275000D02*
X9725000Y-9275000D01*
X8375000Y-14700000D02*
X8475000Y-14700000D01*
X11125000Y-7925000D02*
X11000000Y-7925000D01*
X8800000Y-13700000D02*
X8800000Y-13575000D01*
X14525000Y-8344500D02*
X14525000Y-8194500D01*
X15000000Y-15000000D02*
X15000000Y-5000000D01*
X11125000Y-6300000D02*
X11125000Y-7925000D01*
X5850000Y-11330000D02*
X6250000Y-11330000D01*
X11000000Y-7925000D02*
X11000000Y-6300000D01*
X9725000Y-13900000D02*
X9575000Y-13900000D01*
X8475000Y-14700000D02*
X8475000Y-13700000D01*
X5850000Y-12000000D02*
X5850000Y-11330000D01*
X5000000Y-15000000D02*
X15000000Y-15000000D01*
X8800000Y-13575000D02*
X7550000Y-13575000D01*
X9600000Y-6300000D02*
X9475000Y-6300000D01*
X11000000Y-8194500D02*
X11000000Y-9619500D01*
D11*
D12*
X6285000Y-10960000D02*
X6315000Y-10990000D01*
X6315000Y-10960000D02*
X6285000Y-10990000D01*
X10110000Y-7885000D02*
X10140000Y-7915000D01*
X10140000Y-7885000D02*
X10110000Y-7915000D01*
X10110000Y-8067500D02*
X10140000Y-8097500D01*
X10140000Y-8067500D02*
X10110000Y-8097500D01*
X10765000Y-8067500D02*
X10795000Y-8097500D01*
X10795000Y-8067500D02*
X10765000Y-8097500D01*
X13030073Y-8050000D02*
X13060073Y-8080000D01*
X13060073Y-8050000D02*
X13030073Y-8080000D01*
X13185000Y-5685000D02*
X13215000Y-5715000D01*
X13215000Y-5685000D02*
X13185000Y-5715000D01*
X13185000Y-8060000D02*
X13215000Y-8090000D01*
X13215000Y-8060000D02*
X13185000Y-8090000D01*
X5855000Y-13595000D02*
G75*
G02*
X5795000Y-13595000I-30000J0D01*
G01*
X5795000Y-13595000D02*
G75*
G02*
X5855000Y-13595000I30000J0D01*
G01*
X6355000Y-13825000D02*
G75*
G02*
X6295000Y-13825000I-30000J0D01*
G01*
X6295000Y-13825000D02*
G75*
G02*
X6355000Y-13825000I30000J0D01*
G01*
X5193000Y-8790500D02*
X5193000Y-8865500D01*
X5155500Y-8828000D02*
X5230500Y-8828000D01*
X5193000Y-8917500D02*
X5193000Y-8992500D01*
X5155500Y-8955000D02*
X5230500Y-8955000D01*
X5193000Y-9044500D02*
X5193000Y-9119500D01*
X5155500Y-9082000D02*
X5230500Y-9082000D01*
X6973000Y-10808500D02*
X6973000Y-10883500D01*
X6935500Y-10846000D02*
X7010500Y-10846000D01*
X6973000Y-11062500D02*
X6973000Y-11137500D01*
X6935500Y-11100000D02*
X7010500Y-11100000D01*
X7100000Y-10935500D02*
X7100000Y-11010500D01*
X7062500Y-10973000D02*
X7137500Y-10973000D01*
X7573000Y-5662500D02*
X7573000Y-5737500D01*
X7535500Y-5700000D02*
X7610500Y-5700000D01*
X7700000Y-5662500D02*
X7700000Y-5737500D01*
X7662500Y-5700000D02*
X7737500Y-5700000D01*
X7827000Y-5662500D02*
X7827000Y-5737500D01*
X7789500Y-5700000D02*
X7864500Y-5700000D01*
X8346000Y-10912500D02*
X8346000Y-10987500D01*
X8308500Y-10950000D02*
X8383500Y-10950000D01*
X8473000Y-10912500D02*
X8473000Y-10987500D01*
X8435500Y-10950000D02*
X8510500Y-10950000D01*
X8600000Y-10912500D02*
X8600000Y-10987500D01*
X8562500Y-10950000D02*
X8637500Y-10950000D01*
X10438000Y-14562500D02*
X10438000Y-14637500D01*
X10400500Y-14600000D02*
X10475500Y-14600000D01*
X10565000Y-14562500D02*
X10565000Y-14637500D01*
X10527500Y-14600000D02*
X10602500Y-14600000D01*
X10692000Y-14562500D02*
X10692000Y-14637500D01*
X10654500Y-14600000D02*
X10729500Y-14600000D01*
X11600000Y-6862500D02*
X11600000Y-6937500D01*
X11562500Y-6900000D02*
X11637500Y-6900000D01*
X11727000Y-6862500D02*
X11727000Y-6937500D01*
X11689500Y-6900000D02*
X11764500Y-6900000D01*
X11796000Y-11568000D02*
X11796000Y-11643000D01*
X11758500Y-11605500D02*
X11833500Y-11605500D01*
X11854000Y-6862500D02*
X11854000Y-6937500D01*
X11816500Y-6900000D02*
X11891500Y-6900000D01*
X11923000Y-11568000D02*
X11923000Y-11643000D01*
X11885500Y-11605500D02*
X11960500Y-11605500D01*
X12050000Y-11568000D02*
X12050000Y-11643000D01*
X12012500Y-11605500D02*
X12087500Y-11605500D01*
X14350000Y-14412500D02*
X14350000Y-14487500D01*
X14312500Y-14450000D02*
X14387500Y-14450000D01*
X14477000Y-14412500D02*
X14477000Y-14487500D01*
X14439500Y-14450000D02*
X14514500Y-14450000D01*
X14604000Y-14412500D02*
X14604000Y-14487500D01*
X14566500Y-14450000D02*
X14641500Y-14450000D01*
X5560785Y-5673784D02*
X5560785Y-5617215D01*
X5504216Y-5617215D01*
X5504216Y-5673784D01*
X5560785Y-5673784D01*
X5814784Y-5673784D02*
X5814784Y-5617215D01*
X5758215Y-5617215D01*
X5758215Y-5673784D01*
X5814784Y-5673784D01*
X6068784Y-5673784D02*
X6068784Y-5617215D01*
X6012215Y-5617215D01*
X6012215Y-5673784D01*
X6068784Y-5673784D01*
X6322784Y-5673784D02*
X6322784Y-5617215D01*
X6266215Y-5617215D01*
X6266215Y-5673784D01*
X6322784Y-5673784D01*
X6966284Y-6139284D02*
X6966284Y-6082715D01*
X6909715Y-6082715D01*
X6909715Y-6139284D01*
X6966284Y-6139284D01*
X6966284Y-6393284D02*
X6966284Y-6336715D01*
X6909715Y-6336715D01*
X6909715Y-6393284D01*
X6966284Y-6393284D01*
X6966284Y-6647284D02*
X6966284Y-6590715D01*
X6909715Y-6590715D01*
X6909715Y-6647284D01*
X6966284Y-6647284D01*
X6966284Y-6901284D02*
X6966284Y-6844715D01*
X6909715Y-6844715D01*
X6909715Y-6901284D01*
X6966284Y-6901284D01*
X6966284Y-7155284D02*
X6966284Y-7098715D01*
X6909715Y-7098715D01*
X6909715Y-7155284D01*
X6966284Y-7155284D01*
X6966284Y-7409284D02*
X6966284Y-7352715D01*
X6909715Y-7352715D01*
X6909715Y-7409284D01*
X6966284Y-7409284D01*
X6966284Y-7663284D02*
X6966284Y-7606715D01*
X6909715Y-7606715D01*
X6909715Y-7663284D01*
X6966284Y-7663284D01*
X6966284Y-7917284D02*
X6966284Y-7860715D01*
X6909715Y-7860715D01*
X6909715Y-7917284D01*
X6966284Y-7917284D01*
X7154284Y-8759285D02*
X7154284Y-8702716D01*
X7097715Y-8702716D01*
X7097715Y-8759285D01*
X7154284Y-8759285D01*
X7154284Y-9013285D02*
X7154284Y-8956716D01*
X7097715Y-8956716D01*
X7097715Y-9013285D01*
X7154284Y-9013285D01*
X7154284Y-9267285D02*
X7154284Y-9210716D01*
X7097715Y-9210716D01*
X7097715Y-9267285D01*
X7154284Y-9267285D01*
X7154284Y-9521285D02*
X7154284Y-9464716D01*
X7097715Y-9464716D01*
X7097715Y-9521285D01*
X7154284Y-9521285D01*
X7154284Y-9775285D02*
X7154284Y-9718716D01*
X7097715Y-9718716D01*
X7097715Y-9775285D01*
X7154284Y-9775285D01*
X7154284Y-10029285D02*
X7154284Y-9972716D01*
X7097715Y-9972716D01*
X7097715Y-10029285D01*
X7154284Y-10029285D01*
X7154284Y-10283285D02*
X7154284Y-10226716D01*
X7097715Y-10226716D01*
X7097715Y-10283285D01*
X7154284Y-10283285D01*
X7154284Y-10537285D02*
X7154284Y-10480716D01*
X7097715Y-10480716D01*
X7097715Y-10537285D01*
X7154284Y-10537285D01*
X8490285Y-6139284D02*
X8490285Y-6082715D01*
X8433716Y-6082715D01*
X8433716Y-6139284D01*
X8490285Y-6139284D01*
X8490285Y-6393284D02*
X8490285Y-6336715D01*
X8433716Y-6336715D01*
X8433716Y-6393284D01*
X8490285Y-6393284D01*
X8490285Y-6647284D02*
X8490285Y-6590715D01*
X8433716Y-6590715D01*
X8433716Y-6647284D01*
X8490285Y-6647284D01*
X8490285Y-6901284D02*
X8490285Y-6844715D01*
X8433716Y-6844715D01*
X8433716Y-6901284D01*
X8490285Y-6901284D01*
X8490285Y-7155284D02*
X8490285Y-7098715D01*
X8433716Y-7098715D01*
X8433716Y-7155284D01*
X8490285Y-7155284D01*
X8490285Y-7409284D02*
X8490285Y-7352715D01*
X8433716Y-7352715D01*
X8433716Y-7409284D01*
X8490285Y-7409284D01*
X8490285Y-7663284D02*
X8490285Y-7606715D01*
X8433716Y-7606715D01*
X8433716Y-7663284D01*
X8490285Y-7663284D01*
X8490285Y-7917284D02*
X8490285Y-7860715D01*
X8433716Y-7860715D01*
X8433716Y-7917284D01*
X8490285Y-7917284D01*
X8678285Y-8759285D02*
X8678285Y-8702716D01*
X8621716Y-8702716D01*
X8621716Y-8759285D01*
X8678285Y-8759285D01*
X8678285Y-9013285D02*
X8678285Y-8956716D01*
X8621716Y-8956716D01*
X8621716Y-9013285D01*
X8678285Y-9013285D01*
X8678285Y-9267285D02*
X8678285Y-9210716D01*
X8621716Y-9210716D01*
X8621716Y-9267285D01*
X8678285Y-9267285D01*
X8678285Y-9521285D02*
X8678285Y-9464716D01*
X8621716Y-9464716D01*
X8621716Y-9521285D01*
X8678285Y-9521285D01*
X8678285Y-9775285D02*
X8678285Y-9718716D01*
X8621716Y-9718716D01*
X8621716Y-9775285D01*
X8678285Y-9775285D01*
X8678285Y-10029285D02*
X8678285Y-9972716D01*
X8621716Y-9972716D01*
X8621716Y-10029285D01*
X8678285Y-10029285D01*
X8678285Y-10283285D02*
X8678285Y-10226716D01*
X8621716Y-10226716D01*
X8621716Y-10283285D01*
X8678285Y-10283285D01*
X8678285Y-10537285D02*
X8678285Y-10480716D01*
X8621716Y-10480716D01*
X8621716Y-10537285D01*
X8678285Y-10537285D01*
X10239285Y-12266284D02*
X10239285Y-12209715D01*
X10182716Y-12209715D01*
X10182716Y-12266284D01*
X10239285Y-12266284D01*
X10239285Y-13790284D02*
X10239285Y-13733715D01*
X10182716Y-13733715D01*
X10182716Y-13790284D01*
X10239285Y-13790284D01*
X10493285Y-12266284D02*
X10493285Y-12209715D01*
X10436716Y-12209715D01*
X10436716Y-12266284D01*
X10493285Y-12266284D01*
X10493285Y-13790284D02*
X10493285Y-13733715D01*
X10436716Y-13733715D01*
X10436716Y-13790284D01*
X10493285Y-13790284D01*
X10747285Y-12266284D02*
X10747285Y-12209715D01*
X10690716Y-12209715D01*
X10690716Y-12266284D01*
X10747285Y-12266284D01*
X10747285Y-13790284D02*
X10747285Y-13733715D01*
X10690716Y-13733715D01*
X10690716Y-13790284D01*
X10747285Y-13790284D01*
X11001285Y-12266284D02*
X11001285Y-12209715D01*
X10944716Y-12209715D01*
X10944716Y-12266284D01*
X11001285Y-12266284D01*
X11001285Y-13790284D02*
X11001285Y-13733715D01*
X10944716Y-13733715D01*
X10944716Y-13790284D01*
X11001285Y-13790284D01*
X11255284Y-12266284D02*
X11255284Y-12209715D01*
X11198715Y-12209715D01*
X11198715Y-12266284D01*
X11255284Y-12266284D01*
X11255284Y-13790284D02*
X11255284Y-13733715D01*
X11198715Y-13733715D01*
X11198715Y-13790284D01*
X11255284Y-13790284D01*
X11509284Y-12266284D02*
X11509284Y-12209715D01*
X11452715Y-12209715D01*
X11452715Y-12266284D01*
X11509284Y-12266284D01*
X11509284Y-13790284D02*
X11509284Y-13733715D01*
X11452715Y-13733715D01*
X11452715Y-13790284D01*
X11509284Y-13790284D01*
X11763284Y-12266284D02*
X11763284Y-12209715D01*
X11706715Y-12209715D01*
X11706715Y-12266284D01*
X11763284Y-12266284D01*
X11763284Y-13790284D02*
X11763284Y-13733715D01*
X11706715Y-13733715D01*
X11706715Y-13790284D01*
X11763284Y-13790284D01*
X12017284Y-12266284D02*
X12017284Y-12209715D01*
X11960715Y-12209715D01*
X11960715Y-12266284D01*
X12017284Y-12266284D01*
X12017284Y-13790284D02*
X12017284Y-13733715D01*
X11960715Y-13733715D01*
X11960715Y-13790284D01*
X12017284Y-13790284D01*
X12871534Y-5256785D02*
X12871534Y-5200216D01*
X12814965Y-5200216D01*
X12814965Y-5256785D01*
X12871534Y-5256785D01*
X12871534Y-5510785D02*
X12871534Y-5454216D01*
X12814965Y-5454216D01*
X12814965Y-5510785D01*
X12871534Y-5510785D01*
X12871534Y-5764784D02*
X12871534Y-5708215D01*
X12814965Y-5708215D01*
X12814965Y-5764784D01*
X12871534Y-5764784D01*
X12871534Y-6018784D02*
X12871534Y-5962215D01*
X12814965Y-5962215D01*
X12814965Y-6018784D01*
X12871534Y-6018784D01*
X12871534Y-6272784D02*
X12871534Y-6216215D01*
X12814965Y-6216215D01*
X12814965Y-6272784D01*
X12871534Y-6272784D01*
X12871534Y-6526784D02*
X12871534Y-6470215D01*
X12814965Y-6470215D01*
X12814965Y-6526784D01*
X12871534Y-6526784D01*
X12871534Y-6780784D02*
X12871534Y-6724215D01*
X12814965Y-6724215D01*
X12814965Y-6780784D01*
X12871534Y-6780784D01*
X12871534Y-7034784D02*
X12871534Y-6978215D01*
X12814965Y-6978215D01*
X12814965Y-7034784D01*
X12871534Y-7034784D01*
X13004284Y-12503284D02*
X13004284Y-12446715D01*
X12947715Y-12446715D01*
X12947715Y-12503284D01*
X13004284Y-12503284D01*
X13004284Y-14027284D02*
X13004284Y-13970715D01*
X12947715Y-13970715D01*
X12947715Y-14027284D01*
X13004284Y-14027284D01*
X13157034Y-7553284D02*
X13157034Y-7496715D01*
X13100465Y-7496715D01*
X13100465Y-7553284D01*
X13157034Y-7553284D01*
X13258284Y-12503284D02*
X13258284Y-12446715D01*
X13201715Y-12446715D01*
X13201715Y-12503284D01*
X13258284Y-12503284D01*
X13258284Y-14027284D02*
X13258284Y-13970715D01*
X13201715Y-13970715D01*
X13201715Y-14027284D01*
X13258284Y-14027284D01*
X13297284Y-11303284D02*
X13297284Y-11246715D01*
X13240715Y-11246715D01*
X13240715Y-11303284D01*
X13297284Y-11303284D01*
X13411034Y-7553284D02*
X13411034Y-7496715D01*
X13354465Y-7496715D01*
X13354465Y-7553284D01*
X13411034Y-7553284D01*
X13512284Y-12503284D02*
X13512284Y-12446715D01*
X13455715Y-12446715D01*
X13455715Y-12503284D01*
X13512284Y-12503284D01*
X13512284Y-14027284D02*
X13512284Y-13970715D01*
X13455715Y-13970715D01*
X13455715Y-14027284D01*
X13512284Y-14027284D01*
X13551284Y-11303284D02*
X13551284Y-11246715D01*
X13494715Y-11246715D01*
X13494715Y-11303284D01*
X13551284Y-11303284D01*
X13665034Y-7553284D02*
X13665034Y-7496715D01*
X13608465Y-7496715D01*
X13608465Y-7553284D01*
X13665034Y-7553284D01*
X13766284Y-12503284D02*
X13766284Y-12446715D01*
X13709715Y-12446715D01*
X13709715Y-12503284D01*
X13766284Y-12503284D01*
X13766284Y-14027284D02*
X13766284Y-13970715D01*
X13709715Y-13970715D01*
X13709715Y-14027284D01*
X13766284Y-14027284D01*
X13805284Y-11303284D02*
X13805284Y-11246715D01*
X13748715Y-11246715D01*
X13748715Y-11303284D01*
X13805284Y-11303284D01*
X13919034Y-7553284D02*
X13919034Y-7496715D01*
X13862465Y-7496715D01*
X13862465Y-7553284D01*
X13919034Y-7553284D01*
X14020284Y-12503284D02*
X14020284Y-12446715D01*
X13963715Y-12446715D01*
X13963715Y-12503284D01*
X14020284Y-12503284D01*
X14020284Y-14027284D02*
X14020284Y-13970715D01*
X13963715Y-13970715D01*
X13963715Y-14027284D01*
X14020284Y-14027284D01*
X14059284Y-11303284D02*
X14059284Y-11246715D01*
X14002715Y-11246715D01*
X14002715Y-11303284D01*
X14059284Y-11303284D01*
X14274284Y-12503284D02*
X14274284Y-12446715D01*
X14217715Y-12446715D01*
X14217715Y-12503284D01*
X14274284Y-12503284D01*
X14274284Y-14027284D02*
X14274284Y-13970715D01*
X14217715Y-13970715D01*
X14217715Y-14027284D01*
X14274284Y-14027284D01*
X14395534Y-5256785D02*
X14395534Y-5200216D01*
X14338965Y-5200216D01*
X14338965Y-5256785D01*
X14395534Y-5256785D01*
X14395534Y-5510785D02*
X14395534Y-5454216D01*
X14338965Y-5454216D01*
X14338965Y-5510785D01*
X14395534Y-5510785D01*
X14395534Y-5764784D02*
X14395534Y-5708215D01*
X14338965Y-5708215D01*
X14338965Y-5764784D01*
X14395534Y-5764784D01*
X14395534Y-6018784D02*
X14395534Y-5962215D01*
X14338965Y-5962215D01*
X14338965Y-6018784D01*
X14395534Y-6018784D01*
X14395534Y-6272784D02*
X14395534Y-6216215D01*
X14338965Y-6216215D01*
X14338965Y-6272784D01*
X14395534Y-6272784D01*
X14395534Y-6526784D02*
X14395534Y-6470215D01*
X14338965Y-6470215D01*
X14338965Y-6526784D01*
X14395534Y-6526784D01*
X14395534Y-6780784D02*
X14395534Y-6724215D01*
X14338965Y-6724215D01*
X14338965Y-6780784D01*
X14395534Y-6780784D01*
X14395534Y-7034784D02*
X14395534Y-6978215D01*
X14338965Y-6978215D01*
X14338965Y-7034784D01*
X14395534Y-7034784D01*
X14528284Y-12503284D02*
X14528284Y-12446715D01*
X14471715Y-12446715D01*
X14471715Y-12503284D01*
X14528284Y-12503284D01*
X14528284Y-14027284D02*
X14528284Y-13970715D01*
X14471715Y-13970715D01*
X14471715Y-14027284D01*
X14528284Y-14027284D01*
X14782284Y-12503284D02*
X14782284Y-12446715D01*
X14725715Y-12446715D01*
X14725715Y-12503284D01*
X14782284Y-12503284D01*
X14782284Y-14027284D02*
X14782284Y-13970715D01*
X14725715Y-13970715D01*
X14725715Y-14027284D01*
X14782284Y-14027284D01*
X5300000Y-6891000D02*
X5345000Y-6846000D01*
X5300000Y-6801000D01*
X5255000Y-6846000D01*
X5300000Y-6891000D01*
X5300000Y-7145000D02*
X5345000Y-7100000D01*
X5300000Y-7055000D01*
X5255000Y-7100000D01*
X5300000Y-7145000D01*
X5375000Y-9966000D02*
X5420000Y-9921000D01*
X5375000Y-9876000D01*
X5330000Y-9921000D01*
X5375000Y-9966000D01*
X5375000Y-10220000D02*
X5420000Y-10175000D01*
X5375000Y-10130000D01*
X5330000Y-10175000D01*
X5375000Y-10220000D01*
X5375000Y-10466000D02*
X5420000Y-10421000D01*
X5375000Y-10376000D01*
X5330000Y-10421000D01*
X5375000Y-10466000D01*
X5375000Y-10720000D02*
X5420000Y-10675000D01*
X5375000Y-10630000D01*
X5330000Y-10675000D01*
X5375000Y-10720000D01*
X11600000Y-14562500D02*
X11645000Y-14517500D01*
X11600000Y-14472500D01*
X11555000Y-14517500D01*
X11600000Y-14562500D01*
X11854000Y-14562500D02*
X11899000Y-14517500D01*
X11854000Y-14472500D01*
X11809000Y-14517500D01*
X11854000Y-14562500D01*
X12300000Y-7945000D02*
X12345000Y-7900000D01*
X12300000Y-7855000D01*
X12255000Y-7900000D01*
X12300000Y-7945000D01*
X12446000Y-11614500D02*
X12491000Y-11569500D01*
X12446000Y-11524500D01*
X12401000Y-11569500D01*
X12446000Y-11614500D01*
X12554000Y-7945000D02*
X12599000Y-7900000D01*
X12554000Y-7855000D01*
X12509000Y-7900000D01*
X12554000Y-7945000D01*
X12650000Y-13742500D02*
X12695000Y-13697500D01*
X12650000Y-13652500D01*
X12605000Y-13697500D01*
X12650000Y-13742500D01*
X12650000Y-13996500D02*
X12695000Y-13951500D01*
X12650000Y-13906500D01*
X12605000Y-13951500D01*
X12650000Y-13996500D01*
X12700000Y-11614500D02*
X12745000Y-11569500D01*
X12700000Y-11524500D01*
X12655000Y-11569500D01*
X12700000Y-11614500D01*
X5369000Y-7850000D02*
X5469000Y-7950000D01*
X5469000Y-7850000D02*
X5369000Y-7950000D01*
X5469000Y-7900000D02*
G75*
G02*
X5369000Y-7900000I-50000J0D01*
G01*
X5369000Y-7900000D02*
G75*
G02*
X5469000Y-7900000I50000J0D01*
G01*
X5395000Y-11675000D02*
X5495000Y-11775000D01*
X5495000Y-11675000D02*
X5395000Y-11775000D01*
X5495000Y-11725000D02*
G75*
G02*
X5395000Y-11725000I-50000J0D01*
G01*
X5395000Y-11725000D02*
G75*
G02*
X5495000Y-11725000I50000J0D01*
G01*
X5623000Y-7850000D02*
X5723000Y-7950000D01*
X5723000Y-7850000D02*
X5623000Y-7950000D01*
X5723000Y-7900000D02*
G75*
G02*
X5623000Y-7900000I-50000J0D01*
G01*
X5623000Y-7900000D02*
G75*
G02*
X5723000Y-7900000I50000J0D01*
G01*
X5877000Y-7850000D02*
X5977000Y-7950000D01*
X5977000Y-7850000D02*
X5877000Y-7950000D01*
X5977000Y-7900000D02*
G75*
G02*
X5877000Y-7900000I-50000J0D01*
G01*
X5877000Y-7900000D02*
G75*
G02*
X5977000Y-7900000I50000J0D01*
G01*
X6131000Y-7850000D02*
X6231000Y-7950000D01*
X6231000Y-7850000D02*
X6131000Y-7950000D01*
X6231000Y-7900000D02*
G75*
G02*
X6131000Y-7900000I-50000J0D01*
G01*
X6131000Y-7900000D02*
G75*
G02*
X6231000Y-7900000I50000J0D01*
G01*
X6595000Y-11675000D02*
X6695000Y-11775000D01*
X6695000Y-11675000D02*
X6595000Y-11775000D01*
X6695000Y-11725000D02*
G75*
G02*
X6595000Y-11725000I-50000J0D01*
G01*
X6595000Y-11725000D02*
G75*
G02*
X6695000Y-11725000I50000J0D01*
G01*
X7629250Y-11616750D02*
X7729250Y-11716750D01*
X7729250Y-11616750D02*
X7629250Y-11716750D01*
X7729250Y-11666750D02*
G75*
G02*
X7629250Y-11666750I-50000J0D01*
G01*
X7629250Y-11666750D02*
G75*
G02*
X7729250Y-11666750I50000J0D01*
G01*
X8129250Y-14524750D02*
X8229250Y-14624750D01*
X8229250Y-14524750D02*
X8129250Y-14624750D01*
X8229250Y-14574750D02*
G75*
G02*
X8129250Y-14574750I-50000J0D01*
G01*
X8129250Y-14574750D02*
G75*
G02*
X8229250Y-14574750I50000J0D01*
G01*
X8629250Y-14524750D02*
X8729250Y-14624750D01*
X8729250Y-14524750D02*
X8629250Y-14624750D01*
X8729250Y-14574750D02*
G75*
G02*
X8629250Y-14574750I-50000J0D01*
G01*
X8629250Y-14574750D02*
G75*
G02*
X8729250Y-14574750I50000J0D01*
G01*
X9129250Y-11616750D02*
X9229250Y-11716750D01*
X9229250Y-11616750D02*
X9129250Y-11716750D01*
X9229250Y-11666750D02*
G75*
G02*
X9129250Y-11666750I-50000J0D01*
G01*
X9129250Y-11666750D02*
G75*
G02*
X9229250Y-11666750I50000J0D01*
G01*
X9200000Y-6081500D02*
X9300000Y-6181500D01*
X9300000Y-6081500D02*
X9200000Y-6181500D01*
X9300000Y-6131500D02*
G75*
G02*
X9200000Y-6131500I-50000J0D01*
G01*
X9200000Y-6131500D02*
G75*
G02*
X9300000Y-6131500I50000J0D01*
G01*
X9200000Y-6335500D02*
X9300000Y-6435500D01*
X9300000Y-6335500D02*
X9200000Y-6435500D01*
X9300000Y-6385500D02*
G75*
G02*
X9200000Y-6385500I-50000J0D01*
G01*
X9200000Y-6385500D02*
G75*
G02*
X9300000Y-6385500I50000J0D01*
G01*
X9200000Y-6589500D02*
X9300000Y-6689500D01*
X9300000Y-6589500D02*
X9200000Y-6689500D01*
X9300000Y-6639500D02*
G75*
G02*
X9200000Y-6639500I-50000J0D01*
G01*
X9200000Y-6639500D02*
G75*
G02*
X9300000Y-6639500I50000J0D01*
G01*
X9200000Y-6843500D02*
X9300000Y-6943500D01*
X9300000Y-6843500D02*
X9200000Y-6943500D01*
X9300000Y-6893500D02*
G75*
G02*
X9200000Y-6893500I-50000J0D01*
G01*
X9200000Y-6893500D02*
G75*
G02*
X9300000Y-6893500I50000J0D01*
G01*
X9200000Y-7097500D02*
X9300000Y-7197500D01*
X9300000Y-7097500D02*
X9200000Y-7197500D01*
X9300000Y-7147500D02*
G75*
G02*
X9200000Y-7147500I-50000J0D01*
G01*
X9200000Y-7147500D02*
G75*
G02*
X9300000Y-7147500I50000J0D01*
G01*
X9200000Y-7351500D02*
X9300000Y-7451500D01*
X9300000Y-7351500D02*
X9200000Y-7451500D01*
X9300000Y-7401500D02*
G75*
G02*
X9200000Y-7401500I-50000J0D01*
G01*
X9200000Y-7401500D02*
G75*
G02*
X9300000Y-7401500I50000J0D01*
G01*
X9200000Y-7605500D02*
X9300000Y-7705500D01*
X9300000Y-7605500D02*
X9200000Y-7705500D01*
X9300000Y-7655500D02*
G75*
G02*
X9200000Y-7655500I-50000J0D01*
G01*
X9200000Y-7655500D02*
G75*
G02*
X9300000Y-7655500I50000J0D01*
G01*
X9200000Y-7859500D02*
X9300000Y-7959500D01*
X9300000Y-7859500D02*
X9200000Y-7959500D01*
X9300000Y-7909500D02*
G75*
G02*
X9200000Y-7909500I-50000J0D01*
G01*
X9200000Y-7909500D02*
G75*
G02*
X9300000Y-7909500I50000J0D01*
G01*
X9350000Y-8635000D02*
X9450000Y-8735000D01*
X9450000Y-8635000D02*
X9350000Y-8735000D01*
X9450000Y-8685000D02*
G75*
G02*
X9350000Y-8685000I-50000J0D01*
G01*
X9350000Y-8685000D02*
G75*
G02*
X9450000Y-8685000I50000J0D01*
G01*
X9350000Y-8889000D02*
X9450000Y-8989000D01*
X9450000Y-8889000D02*
X9350000Y-8989000D01*
X9450000Y-8939000D02*
G75*
G02*
X9350000Y-8939000I-50000J0D01*
G01*
X9350000Y-8939000D02*
G75*
G02*
X9450000Y-8939000I50000J0D01*
G01*
X9350000Y-9143000D02*
X9450000Y-9243000D01*
X9450000Y-9143000D02*
X9350000Y-9243000D01*
X9450000Y-9193000D02*
G75*
G02*
X9350000Y-9193000I-50000J0D01*
G01*
X9350000Y-9193000D02*
G75*
G02*
X9450000Y-9193000I50000J0D01*
G01*
X9350000Y-9397000D02*
X9450000Y-9497000D01*
X9450000Y-9397000D02*
X9350000Y-9497000D01*
X9450000Y-9447000D02*
G75*
G02*
X9350000Y-9447000I-50000J0D01*
G01*
X9350000Y-9447000D02*
G75*
G02*
X9450000Y-9447000I50000J0D01*
G01*
X9350000Y-9651000D02*
X9450000Y-9751000D01*
X9450000Y-9651000D02*
X9350000Y-9751000D01*
X9450000Y-9701000D02*
G75*
G02*
X9350000Y-9701000I-50000J0D01*
G01*
X9350000Y-9701000D02*
G75*
G02*
X9450000Y-9701000I50000J0D01*
G01*
X9350000Y-9905000D02*
X9450000Y-10005000D01*
X9450000Y-9905000D02*
X9350000Y-10005000D01*
X9450000Y-9955000D02*
G75*
G02*
X9350000Y-9955000I-50000J0D01*
G01*
X9350000Y-9955000D02*
G75*
G02*
X9450000Y-9955000I50000J0D01*
G01*
X9350000Y-10159000D02*
X9450000Y-10259000D01*
X9450000Y-10159000D02*
X9350000Y-10259000D01*
X9450000Y-10209000D02*
G75*
G02*
X9350000Y-10209000I-50000J0D01*
G01*
X9350000Y-10209000D02*
G75*
G02*
X9450000Y-10209000I50000J0D01*
G01*
X9350000Y-10413000D02*
X9450000Y-10513000D01*
X9450000Y-10413000D02*
X9350000Y-10513000D01*
X9450000Y-10463000D02*
G75*
G02*
X9350000Y-10463000I-50000J0D01*
G01*
X9350000Y-10463000D02*
G75*
G02*
X9450000Y-10463000I50000J0D01*
G01*
X12311000Y-8475000D02*
X12411000Y-8575000D01*
X12411000Y-8475000D02*
X12311000Y-8575000D01*
X12411000Y-8525000D02*
G75*
G02*
X12311000Y-8525000I-50000J0D01*
G01*
X12311000Y-8525000D02*
G75*
G02*
X12411000Y-8525000I50000J0D01*
G01*
X12311000Y-10761000D02*
X12411000Y-10861000D01*
X12411000Y-10761000D02*
X12311000Y-10861000D01*
X12411000Y-10811000D02*
G75*
G02*
X12311000Y-10811000I-50000J0D01*
G01*
X12311000Y-10811000D02*
G75*
G02*
X12411000Y-10811000I50000J0D01*
G01*
X12565000Y-8475000D02*
X12665000Y-8575000D01*
X12665000Y-8475000D02*
X12565000Y-8575000D01*
X12665000Y-8525000D02*
G75*
G02*
X12565000Y-8525000I-50000J0D01*
G01*
X12565000Y-8525000D02*
G75*
G02*
X12665000Y-8525000I50000J0D01*
G01*
X12565000Y-10761000D02*
X12665000Y-10861000D01*
X12665000Y-10761000D02*
X12565000Y-10861000D01*
X12665000Y-10811000D02*
G75*
G02*
X12565000Y-10811000I-50000J0D01*
G01*
X12565000Y-10811000D02*
G75*
G02*
X12665000Y-10811000I50000J0D01*
G01*
X12819000Y-8475000D02*
X12919000Y-8575000D01*
X12919000Y-8475000D02*
X12819000Y-8575000D01*
X12919000Y-8525000D02*
G75*
G02*
X12819000Y-8525000I-50000J0D01*
G01*
X12819000Y-8525000D02*
G75*
G02*
X12919000Y-8525000I50000J0D01*
G01*
X12819000Y-10761000D02*
X12919000Y-10861000D01*
X12919000Y-10761000D02*
X12819000Y-10861000D01*
X12919000Y-10811000D02*
G75*
G02*
X12819000Y-10811000I-50000J0D01*
G01*
X12819000Y-10811000D02*
G75*
G02*
X12919000Y-10811000I50000J0D01*
G01*
X12953000Y-12075000D02*
X13053000Y-12175000D01*
X13053000Y-12075000D02*
X12953000Y-12175000D01*
X13053000Y-12125000D02*
G75*
G02*
X12953000Y-12125000I-50000J0D01*
G01*
X12953000Y-12125000D02*
G75*
G02*
X13053000Y-12125000I50000J0D01*
G01*
X13017000Y-9475000D02*
X13117000Y-9575000D01*
X13117000Y-9475000D02*
X13017000Y-9575000D01*
X13117000Y-9525000D02*
G75*
G02*
X13017000Y-9525000I-50000J0D01*
G01*
X13017000Y-9525000D02*
G75*
G02*
X13117000Y-9525000I50000J0D01*
G01*
X13073000Y-8475000D02*
X13173000Y-8575000D01*
X13173000Y-8475000D02*
X13073000Y-8575000D01*
X13173000Y-8525000D02*
G75*
G02*
X13073000Y-8525000I-50000J0D01*
G01*
X13073000Y-8525000D02*
G75*
G02*
X13173000Y-8525000I50000J0D01*
G01*
X13073000Y-10761000D02*
X13173000Y-10861000D01*
X13173000Y-10761000D02*
X13073000Y-10861000D01*
X13173000Y-10811000D02*
G75*
G02*
X13073000Y-10811000I-50000J0D01*
G01*
X13073000Y-10811000D02*
G75*
G02*
X13173000Y-10811000I50000J0D01*
G01*
X13207000Y-12075000D02*
X13307000Y-12175000D01*
X13307000Y-12075000D02*
X13207000Y-12175000D01*
X13307000Y-12125000D02*
G75*
G02*
X13207000Y-12125000I-50000J0D01*
G01*
X13207000Y-12125000D02*
G75*
G02*
X13307000Y-12125000I50000J0D01*
G01*
X13271000Y-9475000D02*
X13371000Y-9575000D01*
X13371000Y-9475000D02*
X13271000Y-9575000D01*
X13371000Y-9525000D02*
G75*
G02*
X13271000Y-9525000I-50000J0D01*
G01*
X13271000Y-9525000D02*
G75*
G02*
X13371000Y-9525000I50000J0D01*
G01*
X13327000Y-8475000D02*
X13427000Y-8575000D01*
X13427000Y-8475000D02*
X13327000Y-8575000D01*
X13427000Y-8525000D02*
G75*
G02*
X13327000Y-8525000I-50000J0D01*
G01*
X13327000Y-8525000D02*
G75*
G02*
X13427000Y-8525000I50000J0D01*
G01*
X13327000Y-10761000D02*
X13427000Y-10861000D01*
X13427000Y-10761000D02*
X13327000Y-10861000D01*
X13427000Y-10811000D02*
G75*
G02*
X13327000Y-10811000I-50000J0D01*
G01*
X13327000Y-10811000D02*
G75*
G02*
X13427000Y-10811000I50000J0D01*
G01*
X13461000Y-12075000D02*
X13561000Y-12175000D01*
X13561000Y-12075000D02*
X13461000Y-12175000D01*
X13561000Y-12125000D02*
G75*
G02*
X13461000Y-12125000I-50000J0D01*
G01*
X13461000Y-12125000D02*
G75*
G02*
X13561000Y-12125000I50000J0D01*
G01*
X13525000Y-9475000D02*
X13625000Y-9575000D01*
X13625000Y-9475000D02*
X13525000Y-9575000D01*
X13625000Y-9525000D02*
G75*
G02*
X13525000Y-9525000I-50000J0D01*
G01*
X13525000Y-9525000D02*
G75*
G02*
X13625000Y-9525000I50000J0D01*
G01*
X13581000Y-8475000D02*
X13681000Y-8575000D01*
X13681000Y-8475000D02*
X13581000Y-8575000D01*
X13681000Y-8525000D02*
G75*
G02*
X13581000Y-8525000I-50000J0D01*
G01*
X13581000Y-8525000D02*
G75*
G02*
X13681000Y-8525000I50000J0D01*
G01*
X13581000Y-10761000D02*
X13681000Y-10861000D01*
X13681000Y-10761000D02*
X13581000Y-10861000D01*
X13681000Y-10811000D02*
G75*
G02*
X13581000Y-10811000I-50000J0D01*
G01*
X13581000Y-10811000D02*
G75*
G02*
X13681000Y-10811000I50000J0D01*
G01*
X13715000Y-12075000D02*
X13815000Y-12175000D01*
X13815000Y-12075000D02*
X13715000Y-12175000D01*
X13815000Y-12125000D02*
G75*
G02*
X13715000Y-12125000I-50000J0D01*
G01*
X13715000Y-12125000D02*
G75*
G02*
X13815000Y-12125000I50000J0D01*
G01*
X13779000Y-9475000D02*
X13879000Y-9575000D01*
X13879000Y-9475000D02*
X13779000Y-9575000D01*
X13879000Y-9525000D02*
G75*
G02*
X13779000Y-9525000I-50000J0D01*
G01*
X13779000Y-9525000D02*
G75*
G02*
X13879000Y-9525000I50000J0D01*
G01*
X13835000Y-8475000D02*
X13935000Y-8575000D01*
X13935000Y-8475000D02*
X13835000Y-8575000D01*
X13935000Y-8525000D02*
G75*
G02*
X13835000Y-8525000I-50000J0D01*
G01*
X13835000Y-8525000D02*
G75*
G02*
X13935000Y-8525000I50000J0D01*
G01*
X13835000Y-10761000D02*
X13935000Y-10861000D01*
X13935000Y-10761000D02*
X13835000Y-10861000D01*
X13935000Y-10811000D02*
G75*
G02*
X13835000Y-10811000I-50000J0D01*
G01*
X13835000Y-10811000D02*
G75*
G02*
X13935000Y-10811000I50000J0D01*
G01*
X13969000Y-12075000D02*
X14069000Y-12175000D01*
X14069000Y-12075000D02*
X13969000Y-12175000D01*
X14069000Y-12125000D02*
G75*
G02*
X13969000Y-12125000I-50000J0D01*
G01*
X13969000Y-12125000D02*
G75*
G02*
X14069000Y-12125000I50000J0D01*
G01*
X14089000Y-8475000D02*
X14189000Y-8575000D01*
X14189000Y-8475000D02*
X14089000Y-8575000D01*
X14189000Y-8525000D02*
G75*
G02*
X14089000Y-8525000I-50000J0D01*
G01*
X14089000Y-8525000D02*
G75*
G02*
X14189000Y-8525000I50000J0D01*
G01*
X14089000Y-10761000D02*
X14189000Y-10861000D01*
X14189000Y-10761000D02*
X14089000Y-10861000D01*
X14189000Y-10811000D02*
G75*
G02*
X14089000Y-10811000I-50000J0D01*
G01*
X14089000Y-10811000D02*
G75*
G02*
X14189000Y-10811000I50000J0D01*
G01*
X14223000Y-12075000D02*
X14323000Y-12175000D01*
X14323000Y-12075000D02*
X14223000Y-12175000D01*
X14323000Y-12125000D02*
G75*
G02*
X14223000Y-12125000I-50000J0D01*
G01*
X14223000Y-12125000D02*
G75*
G02*
X14323000Y-12125000I50000J0D01*
G01*
X14477000Y-12075000D02*
X14577000Y-12175000D01*
X14577000Y-12075000D02*
X14477000Y-12175000D01*
X14577000Y-12125000D02*
G75*
G02*
X14477000Y-12125000I-50000J0D01*
G01*
X14477000Y-12125000D02*
G75*
G02*
X14577000Y-12125000I50000J0D01*
G01*
X14731000Y-12075000D02*
X14831000Y-12175000D01*
X14831000Y-12075000D02*
X14731000Y-12175000D01*
X14831000Y-12125000D02*
G75*
G02*
X14731000Y-12125000I-50000J0D01*
G01*
X14731000Y-12125000D02*
G75*
G02*
X14831000Y-12125000I50000J0D01*
G01*
X14750000Y-5150000D02*
X14850000Y-5250000D01*
X14850000Y-5150000D02*
X14750000Y-5250000D01*
X14850000Y-5200000D02*
G75*
G02*
X14750000Y-5200000I-50000J0D01*
G01*
X14750000Y-5200000D02*
G75*
G02*
X14850000Y-5200000I50000J0D01*
G01*
X14750000Y-5404000D02*
X14850000Y-5504000D01*
X14850000Y-5404000D02*
X14750000Y-5504000D01*
X14850000Y-5454000D02*
G75*
G02*
X14750000Y-5454000I-50000J0D01*
G01*
X14750000Y-5454000D02*
G75*
G02*
X14850000Y-5454000I50000J0D01*
G01*
X14750000Y-5658000D02*
X14850000Y-5758000D01*
X14850000Y-5658000D02*
X14750000Y-5758000D01*
X14850000Y-5708000D02*
G75*
G02*
X14750000Y-5708000I-50000J0D01*
G01*
X14750000Y-5708000D02*
G75*
G02*
X14850000Y-5708000I50000J0D01*
G01*
X14750000Y-5912000D02*
X14850000Y-6012000D01*
X14850000Y-5912000D02*
X14750000Y-6012000D01*
X14850000Y-5962000D02*
G75*
G02*
X14750000Y-5962000I-50000J0D01*
G01*
X14750000Y-5962000D02*
G75*
G02*
X14850000Y-5962000I50000J0D01*
G01*
X14750000Y-6166000D02*
X14850000Y-6266000D01*
X14850000Y-6166000D02*
X14750000Y-6266000D01*
X14850000Y-6216000D02*
G75*
G02*
X14750000Y-6216000I-50000J0D01*
G01*
X14750000Y-6216000D02*
G75*
G02*
X14850000Y-6216000I50000J0D01*
G01*
X14750000Y-6420000D02*
X14850000Y-6520000D01*
X14850000Y-6420000D02*
X14750000Y-6520000D01*
X14850000Y-6470000D02*
G75*
G02*
X14750000Y-6470000I-50000J0D01*
G01*
X14750000Y-6470000D02*
G75*
G02*
X14850000Y-6470000I50000J0D01*
G01*
X14750000Y-6674000D02*
X14850000Y-6774000D01*
X14850000Y-6674000D02*
X14750000Y-6774000D01*
X14850000Y-6724000D02*
G75*
G02*
X14750000Y-6724000I-50000J0D01*
G01*
X14750000Y-6724000D02*
G75*
G02*
X14850000Y-6724000I50000J0D01*
G01*
X14750000Y-6928000D02*
X14850000Y-7028000D01*
X14850000Y-6928000D02*
X14750000Y-7028000D01*
X14850000Y-6978000D02*
G75*
G02*
X14750000Y-6978000I-50000J0D01*
G01*
X14750000Y-6978000D02*
G75*
G02*
X14850000Y-6978000I50000J0D01*
G01*
D13*
X5524200Y-8690200D02*
X5625800Y-8791800D01*
X5625800Y-8690200D02*
X5524200Y-8791800D01*
X5575000Y-8690200D02*
X5575000Y-8791800D01*
X5524200Y-8741000D02*
X5625800Y-8741000D01*
X5524200Y-8944200D02*
X5625800Y-9045800D01*
X5625800Y-8944200D02*
X5524200Y-9045800D01*
X5575000Y-8944200D02*
X5575000Y-9045800D01*
X5524200Y-8995000D02*
X5625800Y-8995000D01*
X5524200Y-9198200D02*
X5625800Y-9299800D01*
X5625800Y-9198200D02*
X5524200Y-9299800D01*
X5575000Y-9198200D02*
X5575000Y-9299800D01*
X5524200Y-9249000D02*
X5625800Y-9249000D01*
X5899200Y-8690200D02*
X6000800Y-8791800D01*
X6000800Y-8690200D02*
X5899200Y-8791800D01*
X5950000Y-8690200D02*
X5950000Y-8791800D01*
X5899200Y-8741000D02*
X6000800Y-8741000D01*
X5899200Y-8944200D02*
X6000800Y-9045800D01*
X6000800Y-8944200D02*
X5899200Y-9045800D01*
X5950000Y-8944200D02*
X5950000Y-9045800D01*
X5899200Y-8995000D02*
X6000800Y-8995000D01*
X5899200Y-9198200D02*
X6000800Y-9299800D01*
X6000800Y-9198200D02*
X5899200Y-9299800D01*
X5950000Y-9198200D02*
X5950000Y-9299800D01*
X5899200Y-9249000D02*
X6000800Y-9249000D01*
X6049200Y-6841200D02*
X6150800Y-6942800D01*
X6150800Y-6841200D02*
X6049200Y-6942800D01*
X6100000Y-6841200D02*
X6100000Y-6942800D01*
X6049200Y-6892000D02*
X6150800Y-6892000D01*
X6049200Y-7095200D02*
X6150800Y-7196800D01*
X6150800Y-7095200D02*
X6049200Y-7196800D01*
X6100000Y-7095200D02*
X6100000Y-7196800D01*
X6049200Y-7146000D02*
X6150800Y-7146000D01*
X6049200Y-7349200D02*
X6150800Y-7450800D01*
X6150800Y-7349200D02*
X6049200Y-7450800D01*
X6100000Y-7349200D02*
X6100000Y-7450800D01*
X6049200Y-7400000D02*
X6150800Y-7400000D01*
X6286200Y-8690200D02*
X6387800Y-8791800D01*
X6387800Y-8690200D02*
X6286200Y-8791800D01*
X6337000Y-8690200D02*
X6337000Y-8791800D01*
X6286200Y-8741000D02*
X6387800Y-8741000D01*
X6286200Y-8944200D02*
X6387800Y-9045800D01*
X6387800Y-8944200D02*
X6286200Y-9045800D01*
X6337000Y-8944200D02*
X6337000Y-9045800D01*
X6286200Y-8995000D02*
X6387800Y-8995000D01*
X6286200Y-9198200D02*
X6387800Y-9299800D01*
X6387800Y-9198200D02*
X6286200Y-9299800D01*
X6337000Y-9198200D02*
X6337000Y-9299800D01*
X6286200Y-9249000D02*
X6387800Y-9249000D01*
X6949200Y-5195200D02*
X7050800Y-5296800D01*
X7050800Y-5195200D02*
X6949200Y-5296800D01*
X7000000Y-5195200D02*
X7000000Y-5296800D01*
X6949200Y-5246000D02*
X7050800Y-5246000D01*
X6949200Y-5449200D02*
X7050800Y-5550800D01*
X7050800Y-5449200D02*
X6949200Y-5550800D01*
X7000000Y-5449200D02*
X7000000Y-5550800D01*
X6949200Y-5500000D02*
X7050800Y-5500000D01*
X6949200Y-5703200D02*
X7050800Y-5804800D01*
X7050800Y-5703200D02*
X6949200Y-5804800D01*
X7000000Y-5703200D02*
X7000000Y-5804800D01*
X6949200Y-5754000D02*
X7050800Y-5754000D01*
X7516200Y-5174200D02*
X7617800Y-5275800D01*
X7617800Y-5174200D02*
X7516200Y-5275800D01*
X7567000Y-5174200D02*
X7567000Y-5275800D01*
X7516200Y-5225000D02*
X7617800Y-5225000D01*
X7770200Y-5174200D02*
X7871800Y-5275800D01*
X7871800Y-5174200D02*
X7770200Y-5275800D01*
X7821000Y-5174200D02*
X7821000Y-5275800D01*
X7770200Y-5225000D02*
X7871800Y-5225000D01*
X8024200Y-5174200D02*
X8125800Y-5275800D01*
X8125800Y-5174200D02*
X8024200Y-5275800D01*
X8075000Y-5174200D02*
X8075000Y-5275800D01*
X8024200Y-5225000D02*
X8125800Y-5225000D01*
X8449200Y-5195200D02*
X8550800Y-5296800D01*
X8550800Y-5195200D02*
X8449200Y-5296800D01*
X8500000Y-5195200D02*
X8500000Y-5296800D01*
X8449200Y-5246000D02*
X8550800Y-5246000D01*
X8449200Y-5449200D02*
X8550800Y-5550800D01*
X8550800Y-5449200D02*
X8449200Y-5550800D01*
X8500000Y-5449200D02*
X8500000Y-5550800D01*
X8449200Y-5500000D02*
X8550800Y-5500000D01*
X8449200Y-5703200D02*
X8550800Y-5804800D01*
X8550800Y-5703200D02*
X8449200Y-5804800D01*
X8500000Y-5703200D02*
X8500000Y-5804800D01*
X8449200Y-5754000D02*
X8550800Y-5754000D01*
X9995200Y-6344200D02*
X10096800Y-6445800D01*
X10096800Y-6344200D02*
X9995200Y-6445800D01*
X10046000Y-6344200D02*
X10046000Y-6445800D01*
X9995200Y-6395000D02*
X10096800Y-6395000D01*
X9995200Y-6849200D02*
X10096800Y-6950800D01*
X10096800Y-6849200D02*
X9995200Y-6950800D01*
X10046000Y-6849200D02*
X10046000Y-6950800D01*
X9995200Y-6900000D02*
X10096800Y-6900000D01*
X9995200Y-7349200D02*
X10096800Y-7450800D01*
X10096800Y-7349200D02*
X9995200Y-7450800D01*
X10046000Y-7349200D02*
X10046000Y-7450800D01*
X9995200Y-7400000D02*
X10096800Y-7400000D01*
X10241200Y-14049200D02*
X10342800Y-14150800D01*
X10342800Y-14049200D02*
X10241200Y-14150800D01*
X10292000Y-14049200D02*
X10292000Y-14150800D01*
X10241200Y-14100000D02*
X10342800Y-14100000D01*
X10249200Y-6344200D02*
X10350800Y-6445800D01*
X10350800Y-6344200D02*
X10249200Y-6445800D01*
X10300000Y-6344200D02*
X10300000Y-6445800D01*
X10249200Y-6395000D02*
X10350800Y-6395000D01*
X10249200Y-6849200D02*
X10350800Y-6950800D01*
X10350800Y-6849200D02*
X10249200Y-6950800D01*
X10300000Y-6849200D02*
X10300000Y-6950800D01*
X10249200Y-6900000D02*
X10350800Y-6900000D01*
X10249200Y-7349200D02*
X10350800Y-7450800D01*
X10350800Y-7349200D02*
X10249200Y-7450800D01*
X10300000Y-7349200D02*
X10300000Y-7450800D01*
X10249200Y-7400000D02*
X10350800Y-7400000D01*
X10495200Y-14049200D02*
X10596800Y-14150800D01*
X10596800Y-14049200D02*
X10495200Y-14150800D01*
X10546000Y-14049200D02*
X10546000Y-14150800D01*
X10495200Y-14100000D02*
X10596800Y-14100000D01*
X10503200Y-6344200D02*
X10604800Y-6445800D01*
X10604800Y-6344200D02*
X10503200Y-6445800D01*
X10554000Y-6344200D02*
X10554000Y-6445800D01*
X10503200Y-6395000D02*
X10604800Y-6395000D01*
X10503200Y-6849200D02*
X10604800Y-6950800D01*
X10604800Y-6849200D02*
X10503200Y-6950800D01*
X10554000Y-6849200D02*
X10554000Y-6950800D01*
X10503200Y-6900000D02*
X10604800Y-6900000D01*
X10503200Y-7349200D02*
X10604800Y-7450800D01*
X10604800Y-7349200D02*
X10503200Y-7450800D01*
X10554000Y-7349200D02*
X10554000Y-7450800D01*
X10503200Y-7400000D02*
X10604800Y-7400000D01*
X10749200Y-14049200D02*
X10850800Y-14150800D01*
X10850800Y-14049200D02*
X10749200Y-14150800D01*
X10800000Y-14049200D02*
X10800000Y-14150800D01*
X10749200Y-14100000D02*
X10850800Y-14100000D01*
X11441200Y-5149200D02*
X11542800Y-5250800D01*
X11542800Y-5149200D02*
X11441200Y-5250800D01*
X11492000Y-5149200D02*
X11492000Y-5250800D01*
X11441200Y-5200000D02*
X11542800Y-5200000D01*
X11441200Y-5649200D02*
X11542800Y-5750800D01*
X11542800Y-5649200D02*
X11441200Y-5750800D01*
X11492000Y-5649200D02*
X11492000Y-5750800D01*
X11441200Y-5700000D02*
X11542800Y-5700000D01*
X11441200Y-6149200D02*
X11542800Y-6250800D01*
X11542800Y-6149200D02*
X11441200Y-6250800D01*
X11492000Y-6149200D02*
X11492000Y-6250800D01*
X11441200Y-6200000D02*
X11542800Y-6200000D01*
X11622200Y-11118700D02*
X11723800Y-11220300D01*
X11723800Y-11118700D02*
X11622200Y-11220300D01*
X11673000Y-11118700D02*
X11673000Y-11220300D01*
X11622200Y-11169500D02*
X11723800Y-11169500D01*
X11695200Y-5149200D02*
X11796800Y-5250800D01*
X11796800Y-5149200D02*
X11695200Y-5250800D01*
X11746000Y-5149200D02*
X11746000Y-5250800D01*
X11695200Y-5200000D02*
X11796800Y-5200000D01*
X11695200Y-5649200D02*
X11796800Y-5750800D01*
X11796800Y-5649200D02*
X11695200Y-5750800D01*
X11746000Y-5649200D02*
X11746000Y-5750800D01*
X11695200Y-5700000D02*
X11796800Y-5700000D01*
X11695200Y-6149200D02*
X11796800Y-6250800D01*
X11796800Y-6149200D02*
X11695200Y-6250800D01*
X11746000Y-6149200D02*
X11746000Y-6250800D01*
X11695200Y-6200000D02*
X11796800Y-6200000D01*
X11876200Y-11118700D02*
X11977800Y-11220300D01*
X11977800Y-11118700D02*
X11876200Y-11220300D01*
X11927000Y-11118700D02*
X11927000Y-11220300D01*
X11876200Y-11169500D02*
X11977800Y-11169500D01*
X11949200Y-5149200D02*
X12050800Y-5250800D01*
X12050800Y-5149200D02*
X11949200Y-5250800D01*
X12000000Y-5149200D02*
X12000000Y-5250800D01*
X11949200Y-5200000D02*
X12050800Y-5200000D01*
X11949200Y-5649200D02*
X12050800Y-5750800D01*
X12050800Y-5649200D02*
X11949200Y-5750800D01*
X12000000Y-5649200D02*
X12000000Y-5750800D01*
X11949200Y-5700000D02*
X12050800Y-5700000D01*
X11949200Y-6149200D02*
X12050800Y-6250800D01*
X12050800Y-6149200D02*
X11949200Y-6250800D01*
X12000000Y-6149200D02*
X12000000Y-6250800D01*
X11949200Y-6200000D02*
X12050800Y-6200000D01*
X12130200Y-11118700D02*
X12231800Y-11220300D01*
X12231800Y-11118700D02*
X12130200Y-11220300D01*
X12181000Y-11118700D02*
X12181000Y-11220300D01*
X12130200Y-11169500D02*
X12231800Y-11169500D01*
X12845200Y-14474200D02*
X12946800Y-14575800D01*
X12946800Y-14474200D02*
X12845200Y-14575800D01*
X12896000Y-14474200D02*
X12896000Y-14575800D01*
X12845200Y-14525000D02*
X12946800Y-14525000D01*
X12845700Y-14771700D02*
X12947300Y-14873300D01*
X12947300Y-14771700D02*
X12845700Y-14873300D01*
X12896500Y-14771700D02*
X12896500Y-14873300D01*
X12845700Y-14822500D02*
X12947300Y-14822500D01*
X13099200Y-14474200D02*
X13200800Y-14575800D01*
X13200800Y-14474200D02*
X13099200Y-14575800D01*
X13150000Y-14474200D02*
X13150000Y-14575800D01*
X13099200Y-14525000D02*
X13200800Y-14525000D01*
X13099700Y-14771700D02*
X13201300Y-14873300D01*
X13201300Y-14771700D02*
X13099700Y-14873300D01*
X13150500Y-14771700D02*
X13150500Y-14873300D01*
X13099700Y-14822500D02*
X13201300Y-14822500D01*
X13353200Y-14474200D02*
X13454800Y-14575800D01*
X13454800Y-14474200D02*
X13353200Y-14575800D01*
X13404000Y-14474200D02*
X13404000Y-14575800D01*
X13353200Y-14525000D02*
X13454800Y-14525000D01*
X13353700Y-14771700D02*
X13455300Y-14873300D01*
X13455300Y-14771700D02*
X13353700Y-14873300D01*
X13404500Y-14771700D02*
X13404500Y-14873300D01*
X13353700Y-14822500D02*
X13455300Y-14822500D01*
X14174200Y-14774200D02*
X14275800Y-14875800D01*
X14275800Y-14774200D02*
X14174200Y-14875800D01*
X14225000Y-14774200D02*
X14225000Y-14875800D01*
X14174200Y-14825000D02*
X14275800Y-14825000D01*
X14428200Y-14774200D02*
X14529800Y-14875800D01*
X14529800Y-14774200D02*
X14428200Y-14875800D01*
X14479000Y-14774200D02*
X14479000Y-14875800D01*
X14428200Y-14825000D02*
X14529800Y-14825000D01*
X14682200Y-14774200D02*
X14783800Y-14875800D01*
X14783800Y-14774200D02*
X14682200Y-14875800D01*
X14733000Y-14774200D02*
X14733000Y-14875800D01*
X14682200Y-14825000D02*
X14783800Y-14825000D01*
D14*
X5429000Y-10945000D02*
X5539000Y-11055000D01*
X5539000Y-10945000D02*
X5429000Y-11055000D01*
X5522891Y-11038891D02*
X5522891Y-10961109D01*
X5445109Y-10961109D01*
X5445109Y-11038891D01*
X5522891Y-11038891D01*
X6445000Y-10945000D02*
X6555000Y-11055000D01*
X6555000Y-10945000D02*
X6445000Y-11055000D01*
X6538891Y-11038891D02*
X6538891Y-10961109D01*
X6461109Y-10961109D01*
X6461109Y-11038891D01*
X6538891Y-11038891D01*
D15*
X5260000Y-14360000D02*
X5390000Y-14490000D01*
X5390000Y-14360000D02*
X5260000Y-14490000D01*
X5325000Y-14490000D02*
X5390000Y-14425000D01*
X5325000Y-14360000D01*
X5260000Y-14425000D01*
X5325000Y-14490000D01*
X5380000Y-12880000D02*
X5510000Y-13010000D01*
X5510000Y-12880000D02*
X5380000Y-13010000D01*
X5445000Y-13010000D02*
X5510000Y-12945000D01*
X5445000Y-12880000D01*
X5380000Y-12945000D01*
X5445000Y-13010000D01*
X5760000Y-14360000D02*
X5890000Y-14490000D01*
X5890000Y-14360000D02*
X5760000Y-14490000D01*
X5825000Y-14490000D02*
X5890000Y-14425000D01*
X5825000Y-14360000D01*
X5760000Y-14425000D01*
X5825000Y-14490000D01*
X5985000Y-11465000D02*
X6115000Y-11595000D01*
X6115000Y-11465000D02*
X5985000Y-11595000D01*
X6050000Y-11595000D02*
X6115000Y-11530000D01*
X6050000Y-11465000D01*
X5985000Y-11530000D01*
X6050000Y-11595000D01*
X6260000Y-14360000D02*
X6390000Y-14490000D01*
X6390000Y-14360000D02*
X6260000Y-14490000D01*
X6325000Y-14490000D02*
X6390000Y-14425000D01*
X6325000Y-14360000D01*
X6260000Y-14425000D01*
X6325000Y-14490000D01*
X6585000Y-12885000D02*
X6715000Y-13015000D01*
X6715000Y-12885000D02*
X6585000Y-13015000D01*
X6650000Y-13015000D02*
X6715000Y-12950000D01*
X6650000Y-12885000D01*
X6585000Y-12950000D01*
X6650000Y-13015000D01*
X6760000Y-14360000D02*
X6890000Y-14490000D01*
X6890000Y-14360000D02*
X6760000Y-14490000D01*
X6825000Y-14490000D02*
X6890000Y-14425000D01*
X6825000Y-14360000D01*
X6760000Y-14425000D01*
X6825000Y-14490000D01*
D11*
X5258277Y-15313984D02*
X5258277Y-15113984D01*
X5258277Y-15113984D02*
X5305896Y-15113984D01*
X5305896Y-15113984D02*
X5334467Y-15123508D01*
X5334467Y-15123508D02*
X5353515Y-15142555D01*
X5353515Y-15142555D02*
X5363039Y-15161603D01*
X5363039Y-15161603D02*
X5372563Y-15199698D01*
X5372563Y-15199698D02*
X5372563Y-15228269D01*
X5372563Y-15228269D02*
X5363039Y-15266365D01*
X5363039Y-15266365D02*
X5353515Y-15285412D01*
X5353515Y-15285412D02*
X5334467Y-15304460D01*
X5334467Y-15304460D02*
X5305896Y-15313984D01*
X5305896Y-15313984D02*
X5258277Y-15313984D01*
X5458277Y-15313984D02*
X5458277Y-15180650D01*
X5458277Y-15218746D02*
X5467801Y-15199698D01*
X5467801Y-15199698D02*
X5477324Y-15190174D01*
X5477324Y-15190174D02*
X5496372Y-15180650D01*
X5496372Y-15180650D02*
X5515420Y-15180650D01*
X5582086Y-15313984D02*
X5582086Y-15180650D01*
X5582086Y-15113984D02*
X5572563Y-15123508D01*
X5572563Y-15123508D02*
X5582086Y-15133031D01*
X5582086Y-15133031D02*
X5591610Y-15123508D01*
X5591610Y-15123508D02*
X5582086Y-15113984D01*
X5582086Y-15113984D02*
X5582086Y-15133031D01*
X5705896Y-15313984D02*
X5686848Y-15304460D01*
X5686848Y-15304460D02*
X5677324Y-15285412D01*
X5677324Y-15285412D02*
X5677324Y-15113984D01*
X5810658Y-15313984D02*
X5791610Y-15304460D01*
X5791610Y-15304460D02*
X5782086Y-15285412D01*
X5782086Y-15285412D02*
X5782086Y-15113984D01*
X6039229Y-15313984D02*
X6039229Y-15113984D01*
X6039229Y-15113984D02*
X6105896Y-15256841D01*
X6105896Y-15256841D02*
X6172562Y-15113984D01*
X6172562Y-15113984D02*
X6172562Y-15313984D01*
X6353515Y-15313984D02*
X6353515Y-15209222D01*
X6353515Y-15209222D02*
X6343991Y-15190174D01*
X6343991Y-15190174D02*
X6324943Y-15180650D01*
X6324943Y-15180650D02*
X6286848Y-15180650D01*
X6286848Y-15180650D02*
X6267801Y-15190174D01*
X6353515Y-15304460D02*
X6334467Y-15313984D01*
X6334467Y-15313984D02*
X6286848Y-15313984D01*
X6286848Y-15313984D02*
X6267801Y-15304460D01*
X6267801Y-15304460D02*
X6258277Y-15285412D01*
X6258277Y-15285412D02*
X6258277Y-15266365D01*
X6258277Y-15266365D02*
X6267801Y-15247317D01*
X6267801Y-15247317D02*
X6286848Y-15237793D01*
X6286848Y-15237793D02*
X6334467Y-15237793D01*
X6334467Y-15237793D02*
X6353515Y-15228269D01*
X6448753Y-15180650D02*
X6448753Y-15380650D01*
X6448753Y-15190174D02*
X6467801Y-15180650D01*
X6467801Y-15180650D02*
X6505896Y-15180650D01*
X6505896Y-15180650D02*
X6524943Y-15190174D01*
X6524943Y-15190174D02*
X6534467Y-15199698D01*
X6534467Y-15199698D02*
X6543991Y-15218746D01*
X6543991Y-15218746D02*
X6543991Y-15275888D01*
X6543991Y-15275888D02*
X6534467Y-15294936D01*
X6534467Y-15294936D02*
X6524943Y-15304460D01*
X6524943Y-15304460D02*
X6505896Y-15313984D01*
X6505896Y-15313984D02*
X6467801Y-15313984D01*
X6467801Y-15313984D02*
X6448753Y-15304460D01*
X6629705Y-15294936D02*
X6639229Y-15304460D01*
X6639229Y-15304460D02*
X6629705Y-15313984D01*
X6629705Y-15313984D02*
X6620182Y-15304460D01*
X6620182Y-15304460D02*
X6629705Y-15294936D01*
X6629705Y-15294936D02*
X6629705Y-15313984D01*
X6629705Y-15190174D02*
X6639229Y-15199698D01*
X6639229Y-15199698D02*
X6629705Y-15209222D01*
X6629705Y-15209222D02*
X6620182Y-15199698D01*
X6620182Y-15199698D02*
X6629705Y-15190174D01*
X6629705Y-15190174D02*
X6629705Y-15209222D01*
D12*
X4967500Y-15627500D02*
X4997500Y-15657500D01*
X4997500Y-15627500D02*
X4967500Y-15657500D01*
D11*
X5296372Y-15533984D02*
X5315420Y-15533984D01*
X5315420Y-15533984D02*
X5334467Y-15543508D01*
X5334467Y-15543508D02*
X5343991Y-15553031D01*
X5343991Y-15553031D02*
X5353515Y-15572079D01*
X5353515Y-15572079D02*
X5363039Y-15610174D01*
X5363039Y-15610174D02*
X5363039Y-15657793D01*
X5363039Y-15657793D02*
X5353515Y-15695888D01*
X5353515Y-15695888D02*
X5343991Y-15714936D01*
X5343991Y-15714936D02*
X5334467Y-15724460D01*
X5334467Y-15724460D02*
X5315420Y-15733984D01*
X5315420Y-15733984D02*
X5296372Y-15733984D01*
X5296372Y-15733984D02*
X5277324Y-15724460D01*
X5277324Y-15724460D02*
X5267801Y-15714936D01*
X5267801Y-15714936D02*
X5258277Y-15695888D01*
X5258277Y-15695888D02*
X5248753Y-15657793D01*
X5248753Y-15657793D02*
X5248753Y-15610174D01*
X5248753Y-15610174D02*
X5258277Y-15572079D01*
X5258277Y-15572079D02*
X5267801Y-15553031D01*
X5267801Y-15553031D02*
X5277324Y-15543508D01*
X5277324Y-15543508D02*
X5296372Y-15533984D01*
X5448753Y-15714936D02*
X5458277Y-15724460D01*
X5458277Y-15724460D02*
X5448753Y-15733984D01*
X5448753Y-15733984D02*
X5439229Y-15724460D01*
X5439229Y-15724460D02*
X5448753Y-15714936D01*
X5448753Y-15714936D02*
X5448753Y-15733984D01*
X5524944Y-15533984D02*
X5648753Y-15533984D01*
X5648753Y-15533984D02*
X5582086Y-15610174D01*
X5582086Y-15610174D02*
X5610658Y-15610174D01*
X5610658Y-15610174D02*
X5629705Y-15619698D01*
X5629705Y-15619698D02*
X5639229Y-15629222D01*
X5639229Y-15629222D02*
X5648753Y-15648269D01*
X5648753Y-15648269D02*
X5648753Y-15695888D01*
X5648753Y-15695888D02*
X5639229Y-15714936D01*
X5639229Y-15714936D02*
X5629705Y-15724460D01*
X5629705Y-15724460D02*
X5610658Y-15733984D01*
X5610658Y-15733984D02*
X5553515Y-15733984D01*
X5553515Y-15733984D02*
X5534467Y-15724460D01*
X5534467Y-15724460D02*
X5524944Y-15714936D01*
X5772562Y-15533984D02*
X5791610Y-15533984D01*
X5791610Y-15533984D02*
X5810658Y-15543508D01*
X5810658Y-15543508D02*
X5820182Y-15553031D01*
X5820182Y-15553031D02*
X5829705Y-15572079D01*
X5829705Y-15572079D02*
X5839229Y-15610174D01*
X5839229Y-15610174D02*
X5839229Y-15657793D01*
X5839229Y-15657793D02*
X5829705Y-15695888D01*
X5829705Y-15695888D02*
X5820182Y-15714936D01*
X5820182Y-15714936D02*
X5810658Y-15724460D01*
X5810658Y-15724460D02*
X5791610Y-15733984D01*
X5791610Y-15733984D02*
X5772562Y-15733984D01*
X5772562Y-15733984D02*
X5753515Y-15724460D01*
X5753515Y-15724460D02*
X5743991Y-15714936D01*
X5743991Y-15714936D02*
X5734467Y-15695888D01*
X5734467Y-15695888D02*
X5724943Y-15657793D01*
X5724943Y-15657793D02*
X5724943Y-15610174D01*
X5724943Y-15610174D02*
X5734467Y-15572079D01*
X5734467Y-15572079D02*
X5743991Y-15553031D01*
X5743991Y-15553031D02*
X5753515Y-15543508D01*
X5753515Y-15543508D02*
X5772562Y-15533984D01*
X5963039Y-15533984D02*
X5982086Y-15533984D01*
X5982086Y-15533984D02*
X6001134Y-15543508D01*
X6001134Y-15543508D02*
X6010658Y-15553031D01*
X6010658Y-15553031D02*
X6020182Y-15572079D01*
X6020182Y-15572079D02*
X6029705Y-15610174D01*
X6029705Y-15610174D02*
X6029705Y-15657793D01*
X6029705Y-15657793D02*
X6020182Y-15695888D01*
X6020182Y-15695888D02*
X6010658Y-15714936D01*
X6010658Y-15714936D02*
X6001134Y-15724460D01*
X6001134Y-15724460D02*
X5982086Y-15733984D01*
X5982086Y-15733984D02*
X5963039Y-15733984D01*
X5963039Y-15733984D02*
X5943991Y-15724460D01*
X5943991Y-15724460D02*
X5934467Y-15714936D01*
X5934467Y-15714936D02*
X5924943Y-15695888D01*
X5924943Y-15695888D02*
X5915420Y-15657793D01*
X5915420Y-15657793D02*
X5915420Y-15610174D01*
X5915420Y-15610174D02*
X5924943Y-15572079D01*
X5924943Y-15572079D02*
X5934467Y-15553031D01*
X5934467Y-15553031D02*
X5943991Y-15543508D01*
X5943991Y-15543508D02*
X5963039Y-15533984D01*
X6115420Y-15733984D02*
X6115420Y-15600650D01*
X6115420Y-15619698D02*
X6124943Y-15610174D01*
X6124943Y-15610174D02*
X6143991Y-15600650D01*
X6143991Y-15600650D02*
X6172563Y-15600650D01*
X6172563Y-15600650D02*
X6191610Y-15610174D01*
X6191610Y-15610174D02*
X6201134Y-15629222D01*
X6201134Y-15629222D02*
X6201134Y-15733984D01*
X6201134Y-15629222D02*
X6210658Y-15610174D01*
X6210658Y-15610174D02*
X6229705Y-15600650D01*
X6229705Y-15600650D02*
X6258277Y-15600650D01*
X6258277Y-15600650D02*
X6277324Y-15610174D01*
X6277324Y-15610174D02*
X6286848Y-15629222D01*
X6286848Y-15629222D02*
X6286848Y-15733984D01*
X6382086Y-15733984D02*
X6382086Y-15600650D01*
X6382086Y-15619698D02*
X6391610Y-15610174D01*
X6391610Y-15610174D02*
X6410658Y-15600650D01*
X6410658Y-15600650D02*
X6439229Y-15600650D01*
X6439229Y-15600650D02*
X6458277Y-15610174D01*
X6458277Y-15610174D02*
X6467801Y-15629222D01*
X6467801Y-15629222D02*
X6467801Y-15733984D01*
X6467801Y-15629222D02*
X6477324Y-15610174D01*
X6477324Y-15610174D02*
X6496372Y-15600650D01*
X6496372Y-15600650D02*
X6524943Y-15600650D01*
X6524943Y-15600650D02*
X6543991Y-15610174D01*
X6543991Y-15610174D02*
X6553515Y-15629222D01*
X6553515Y-15629222D02*
X6553515Y-15733984D01*
X6943991Y-15524460D02*
X6772563Y-15781603D01*
X7201134Y-15533984D02*
X7220182Y-15533984D01*
X7220182Y-15533984D02*
X7239229Y-15543508D01*
X7239229Y-15543508D02*
X7248753Y-15553031D01*
X7248753Y-15553031D02*
X7258277Y-15572079D01*
X7258277Y-15572079D02*
X7267801Y-15610174D01*
X7267801Y-15610174D02*
X7267801Y-15657793D01*
X7267801Y-15657793D02*
X7258277Y-15695888D01*
X7258277Y-15695888D02*
X7248753Y-15714936D01*
X7248753Y-15714936D02*
X7239229Y-15724460D01*
X7239229Y-15724460D02*
X7220182Y-15733984D01*
X7220182Y-15733984D02*
X7201134Y-15733984D01*
X7201134Y-15733984D02*
X7182086Y-15724460D01*
X7182086Y-15724460D02*
X7172563Y-15714936D01*
X7172563Y-15714936D02*
X7163039Y-15695888D01*
X7163039Y-15695888D02*
X7153515Y-15657793D01*
X7153515Y-15657793D02*
X7153515Y-15610174D01*
X7153515Y-15610174D02*
X7163039Y-15572079D01*
X7163039Y-15572079D02*
X7172563Y-15553031D01*
X7172563Y-15553031D02*
X7182086Y-15543508D01*
X7182086Y-15543508D02*
X7201134Y-15533984D01*
X7353515Y-15714936D02*
X7363039Y-15724460D01*
X7363039Y-15724460D02*
X7353515Y-15733984D01*
X7353515Y-15733984D02*
X7343991Y-15724460D01*
X7343991Y-15724460D02*
X7353515Y-15714936D01*
X7353515Y-15714936D02*
X7353515Y-15733984D01*
X7486848Y-15533984D02*
X7505896Y-15533984D01*
X7505896Y-15533984D02*
X7524944Y-15543508D01*
X7524944Y-15543508D02*
X7534467Y-15553031D01*
X7534467Y-15553031D02*
X7543991Y-15572079D01*
X7543991Y-15572079D02*
X7553515Y-15610174D01*
X7553515Y-15610174D02*
X7553515Y-15657793D01*
X7553515Y-15657793D02*
X7543991Y-15695888D01*
X7543991Y-15695888D02*
X7534467Y-15714936D01*
X7534467Y-15714936D02*
X7524944Y-15724460D01*
X7524944Y-15724460D02*
X7505896Y-15733984D01*
X7505896Y-15733984D02*
X7486848Y-15733984D01*
X7486848Y-15733984D02*
X7467801Y-15724460D01*
X7467801Y-15724460D02*
X7458277Y-15714936D01*
X7458277Y-15714936D02*
X7448753Y-15695888D01*
X7448753Y-15695888D02*
X7439229Y-15657793D01*
X7439229Y-15657793D02*
X7439229Y-15610174D01*
X7439229Y-15610174D02*
X7448753Y-15572079D01*
X7448753Y-15572079D02*
X7458277Y-15553031D01*
X7458277Y-15553031D02*
X7467801Y-15543508D01*
X7467801Y-15543508D02*
X7486848Y-15533984D01*
X7743991Y-15733984D02*
X7629706Y-15733984D01*
X7686848Y-15733984D02*
X7686848Y-15533984D01*
X7686848Y-15533984D02*
X7667801Y-15562555D01*
X7667801Y-15562555D02*
X7648753Y-15581603D01*
X7648753Y-15581603D02*
X7629706Y-15591127D01*
X7934467Y-15733984D02*
X7820182Y-15733984D01*
X7877325Y-15733984D02*
X7877325Y-15533984D01*
X7877325Y-15533984D02*
X7858277Y-15562555D01*
X7858277Y-15562555D02*
X7839229Y-15581603D01*
X7839229Y-15581603D02*
X7820182Y-15591127D01*
X8048753Y-15619698D02*
X8029706Y-15610174D01*
X8029706Y-15610174D02*
X8020182Y-15600650D01*
X8020182Y-15600650D02*
X8010658Y-15581603D01*
X8010658Y-15581603D02*
X8010658Y-15572079D01*
X8010658Y-15572079D02*
X8020182Y-15553031D01*
X8020182Y-15553031D02*
X8029706Y-15543508D01*
X8029706Y-15543508D02*
X8048753Y-15533984D01*
X8048753Y-15533984D02*
X8086848Y-15533984D01*
X8086848Y-15533984D02*
X8105896Y-15543508D01*
X8105896Y-15543508D02*
X8115420Y-15553031D01*
X8115420Y-15553031D02*
X8124944Y-15572079D01*
X8124944Y-15572079D02*
X8124944Y-15581603D01*
X8124944Y-15581603D02*
X8115420Y-15600650D01*
X8115420Y-15600650D02*
X8105896Y-15610174D01*
X8105896Y-15610174D02*
X8086848Y-15619698D01*
X8086848Y-15619698D02*
X8048753Y-15619698D01*
X8048753Y-15619698D02*
X8029706Y-15629222D01*
X8029706Y-15629222D02*
X8020182Y-15638746D01*
X8020182Y-15638746D02*
X8010658Y-15657793D01*
X8010658Y-15657793D02*
X8010658Y-15695888D01*
X8010658Y-15695888D02*
X8020182Y-15714936D01*
X8020182Y-15714936D02*
X8029706Y-15724460D01*
X8029706Y-15724460D02*
X8048753Y-15733984D01*
X8048753Y-15733984D02*
X8086848Y-15733984D01*
X8086848Y-15733984D02*
X8105896Y-15724460D01*
X8105896Y-15724460D02*
X8115420Y-15714936D01*
X8115420Y-15714936D02*
X8124944Y-15695888D01*
X8124944Y-15695888D02*
X8124944Y-15657793D01*
X8124944Y-15657793D02*
X8115420Y-15638746D01*
X8115420Y-15638746D02*
X8105896Y-15629222D01*
X8105896Y-15629222D02*
X8086848Y-15619698D01*
X8201134Y-15533984D02*
X8201134Y-15572079D01*
X8277325Y-15533984D02*
X8277325Y-15572079D01*
X8572563Y-15810174D02*
X8563039Y-15800650D01*
X8563039Y-15800650D02*
X8543991Y-15772079D01*
X8543991Y-15772079D02*
X8534468Y-15753031D01*
X8534468Y-15753031D02*
X8524944Y-15724460D01*
X8524944Y-15724460D02*
X8515420Y-15676841D01*
X8515420Y-15676841D02*
X8515420Y-15638746D01*
X8515420Y-15638746D02*
X8524944Y-15591127D01*
X8524944Y-15591127D02*
X8534468Y-15562555D01*
X8534468Y-15562555D02*
X8543991Y-15543508D01*
X8543991Y-15543508D02*
X8563039Y-15514936D01*
X8563039Y-15514936D02*
X8572563Y-15505412D01*
X8629706Y-15533984D02*
X8763039Y-15533984D01*
X8763039Y-15533984D02*
X8677325Y-15733984D01*
X8991611Y-15733984D02*
X8991611Y-15533984D01*
X9077325Y-15733984D02*
X9077325Y-15629222D01*
X9077325Y-15629222D02*
X9067801Y-15610174D01*
X9067801Y-15610174D02*
X9048753Y-15600650D01*
X9048753Y-15600650D02*
X9020182Y-15600650D01*
X9020182Y-15600650D02*
X9001134Y-15610174D01*
X9001134Y-15610174D02*
X8991611Y-15619698D01*
X9201134Y-15733984D02*
X9182087Y-15724460D01*
X9182087Y-15724460D02*
X9172563Y-15714936D01*
X9172563Y-15714936D02*
X9163039Y-15695888D01*
X9163039Y-15695888D02*
X9163039Y-15638746D01*
X9163039Y-15638746D02*
X9172563Y-15619698D01*
X9172563Y-15619698D02*
X9182087Y-15610174D01*
X9182087Y-15610174D02*
X9201134Y-15600650D01*
X9201134Y-15600650D02*
X9229706Y-15600650D01*
X9229706Y-15600650D02*
X9248753Y-15610174D01*
X9248753Y-15610174D02*
X9258277Y-15619698D01*
X9258277Y-15619698D02*
X9267801Y-15638746D01*
X9267801Y-15638746D02*
X9267801Y-15695888D01*
X9267801Y-15695888D02*
X9258277Y-15714936D01*
X9258277Y-15714936D02*
X9248753Y-15724460D01*
X9248753Y-15724460D02*
X9229706Y-15733984D01*
X9229706Y-15733984D02*
X9201134Y-15733984D01*
X9382087Y-15733984D02*
X9363039Y-15724460D01*
X9363039Y-15724460D02*
X9353515Y-15705412D01*
X9353515Y-15705412D02*
X9353515Y-15533984D01*
X9534468Y-15724460D02*
X9515420Y-15733984D01*
X9515420Y-15733984D02*
X9477325Y-15733984D01*
X9477325Y-15733984D02*
X9458277Y-15724460D01*
X9458277Y-15724460D02*
X9448753Y-15705412D01*
X9448753Y-15705412D02*
X9448753Y-15629222D01*
X9448753Y-15629222D02*
X9458277Y-15610174D01*
X9458277Y-15610174D02*
X9477325Y-15600650D01*
X9477325Y-15600650D02*
X9515420Y-15600650D01*
X9515420Y-15600650D02*
X9534468Y-15610174D01*
X9534468Y-15610174D02*
X9543992Y-15629222D01*
X9543992Y-15629222D02*
X9543992Y-15648269D01*
X9543992Y-15648269D02*
X9448753Y-15667317D01*
X9620182Y-15724460D02*
X9639230Y-15733984D01*
X9639230Y-15733984D02*
X9677325Y-15733984D01*
X9677325Y-15733984D02*
X9696373Y-15724460D01*
X9696373Y-15724460D02*
X9705896Y-15705412D01*
X9705896Y-15705412D02*
X9705896Y-15695888D01*
X9705896Y-15695888D02*
X9696373Y-15676841D01*
X9696373Y-15676841D02*
X9677325Y-15667317D01*
X9677325Y-15667317D02*
X9648753Y-15667317D01*
X9648753Y-15667317D02*
X9629706Y-15657793D01*
X9629706Y-15657793D02*
X9620182Y-15638746D01*
X9620182Y-15638746D02*
X9620182Y-15629222D01*
X9620182Y-15629222D02*
X9629706Y-15610174D01*
X9629706Y-15610174D02*
X9648753Y-15600650D01*
X9648753Y-15600650D02*
X9677325Y-15600650D01*
X9677325Y-15600650D02*
X9696373Y-15610174D01*
X9772563Y-15810174D02*
X9782087Y-15800650D01*
X9782087Y-15800650D02*
X9801134Y-15772079D01*
X9801134Y-15772079D02*
X9810658Y-15753031D01*
X9810658Y-15753031D02*
X9820182Y-15724460D01*
X9820182Y-15724460D02*
X9829706Y-15676841D01*
X9829706Y-15676841D02*
X9829706Y-15638746D01*
X9829706Y-15638746D02*
X9820182Y-15591127D01*
X9820182Y-15591127D02*
X9810658Y-15562555D01*
X9810658Y-15562555D02*
X9801134Y-15543508D01*
X9801134Y-15543508D02*
X9782087Y-15514936D01*
X9782087Y-15514936D02*
X9772563Y-15505412D01*
D12*
X4997500Y-15906500D02*
G75*
G02*
X4937500Y-15906500I-30000J0D01*
G01*
X4937500Y-15906500D02*
G75*
G02*
X4997500Y-15906500I30000J0D01*
G01*
D11*
X5296372Y-15797984D02*
X5315420Y-15797984D01*
X5315420Y-15797984D02*
X5334467Y-15807508D01*
X5334467Y-15807508D02*
X5343991Y-15817031D01*
X5343991Y-15817031D02*
X5353515Y-15836079D01*
X5353515Y-15836079D02*
X5363039Y-15874174D01*
X5363039Y-15874174D02*
X5363039Y-15921793D01*
X5363039Y-15921793D02*
X5353515Y-15959888D01*
X5353515Y-15959888D02*
X5343991Y-15978936D01*
X5343991Y-15978936D02*
X5334467Y-15988460D01*
X5334467Y-15988460D02*
X5315420Y-15997984D01*
X5315420Y-15997984D02*
X5296372Y-15997984D01*
X5296372Y-15997984D02*
X5277324Y-15988460D01*
X5277324Y-15988460D02*
X5267801Y-15978936D01*
X5267801Y-15978936D02*
X5258277Y-15959888D01*
X5258277Y-15959888D02*
X5248753Y-15921793D01*
X5248753Y-15921793D02*
X5248753Y-15874174D01*
X5248753Y-15874174D02*
X5258277Y-15836079D01*
X5258277Y-15836079D02*
X5267801Y-15817031D01*
X5267801Y-15817031D02*
X5277324Y-15807508D01*
X5277324Y-15807508D02*
X5296372Y-15797984D01*
X5448753Y-15978936D02*
X5458277Y-15988460D01*
X5458277Y-15988460D02*
X5448753Y-15997984D01*
X5448753Y-15997984D02*
X5439229Y-15988460D01*
X5439229Y-15988460D02*
X5448753Y-15978936D01*
X5448753Y-15978936D02*
X5448753Y-15997984D01*
X5629705Y-15797984D02*
X5591610Y-15797984D01*
X5591610Y-15797984D02*
X5572563Y-15807508D01*
X5572563Y-15807508D02*
X5563039Y-15817031D01*
X5563039Y-15817031D02*
X5543991Y-15845603D01*
X5543991Y-15845603D02*
X5534467Y-15883698D01*
X5534467Y-15883698D02*
X5534467Y-15959888D01*
X5534467Y-15959888D02*
X5543991Y-15978936D01*
X5543991Y-15978936D02*
X5553515Y-15988460D01*
X5553515Y-15988460D02*
X5572563Y-15997984D01*
X5572563Y-15997984D02*
X5610658Y-15997984D01*
X5610658Y-15997984D02*
X5629705Y-15988460D01*
X5629705Y-15988460D02*
X5639229Y-15978936D01*
X5639229Y-15978936D02*
X5648753Y-15959888D01*
X5648753Y-15959888D02*
X5648753Y-15912269D01*
X5648753Y-15912269D02*
X5639229Y-15893222D01*
X5639229Y-15893222D02*
X5629705Y-15883698D01*
X5629705Y-15883698D02*
X5610658Y-15874174D01*
X5610658Y-15874174D02*
X5572563Y-15874174D01*
X5572563Y-15874174D02*
X5553515Y-15883698D01*
X5553515Y-15883698D02*
X5543991Y-15893222D01*
X5543991Y-15893222D02*
X5534467Y-15912269D01*
X5772562Y-15797984D02*
X5791610Y-15797984D01*
X5791610Y-15797984D02*
X5810658Y-15807508D01*
X5810658Y-15807508D02*
X5820182Y-15817031D01*
X5820182Y-15817031D02*
X5829705Y-15836079D01*
X5829705Y-15836079D02*
X5839229Y-15874174D01*
X5839229Y-15874174D02*
X5839229Y-15921793D01*
X5839229Y-15921793D02*
X5829705Y-15959888D01*
X5829705Y-15959888D02*
X5820182Y-15978936D01*
X5820182Y-15978936D02*
X5810658Y-15988460D01*
X5810658Y-15988460D02*
X5791610Y-15997984D01*
X5791610Y-15997984D02*
X5772562Y-15997984D01*
X5772562Y-15997984D02*
X5753515Y-15988460D01*
X5753515Y-15988460D02*
X5743991Y-15978936D01*
X5743991Y-15978936D02*
X5734467Y-15959888D01*
X5734467Y-15959888D02*
X5724943Y-15921793D01*
X5724943Y-15921793D02*
X5724943Y-15874174D01*
X5724943Y-15874174D02*
X5734467Y-15836079D01*
X5734467Y-15836079D02*
X5743991Y-15817031D01*
X5743991Y-15817031D02*
X5753515Y-15807508D01*
X5753515Y-15807508D02*
X5772562Y-15797984D01*
X5963039Y-15797984D02*
X5982086Y-15797984D01*
X5982086Y-15797984D02*
X6001134Y-15807508D01*
X6001134Y-15807508D02*
X6010658Y-15817031D01*
X6010658Y-15817031D02*
X6020182Y-15836079D01*
X6020182Y-15836079D02*
X6029705Y-15874174D01*
X6029705Y-15874174D02*
X6029705Y-15921793D01*
X6029705Y-15921793D02*
X6020182Y-15959888D01*
X6020182Y-15959888D02*
X6010658Y-15978936D01*
X6010658Y-15978936D02*
X6001134Y-15988460D01*
X6001134Y-15988460D02*
X5982086Y-15997984D01*
X5982086Y-15997984D02*
X5963039Y-15997984D01*
X5963039Y-15997984D02*
X5943991Y-15988460D01*
X5943991Y-15988460D02*
X5934467Y-15978936D01*
X5934467Y-15978936D02*
X5924943Y-15959888D01*
X5924943Y-15959888D02*
X5915420Y-15921793D01*
X5915420Y-15921793D02*
X5915420Y-15874174D01*
X5915420Y-15874174D02*
X5924943Y-15836079D01*
X5924943Y-15836079D02*
X5934467Y-15817031D01*
X5934467Y-15817031D02*
X5943991Y-15807508D01*
X5943991Y-15807508D02*
X5963039Y-15797984D01*
X6115420Y-15997984D02*
X6115420Y-15864650D01*
X6115420Y-15883698D02*
X6124943Y-15874174D01*
X6124943Y-15874174D02*
X6143991Y-15864650D01*
X6143991Y-15864650D02*
X6172563Y-15864650D01*
X6172563Y-15864650D02*
X6191610Y-15874174D01*
X6191610Y-15874174D02*
X6201134Y-15893222D01*
X6201134Y-15893222D02*
X6201134Y-15997984D01*
X6201134Y-15893222D02*
X6210658Y-15874174D01*
X6210658Y-15874174D02*
X6229705Y-15864650D01*
X6229705Y-15864650D02*
X6258277Y-15864650D01*
X6258277Y-15864650D02*
X6277324Y-15874174D01*
X6277324Y-15874174D02*
X6286848Y-15893222D01*
X6286848Y-15893222D02*
X6286848Y-15997984D01*
X6382086Y-15997984D02*
X6382086Y-15864650D01*
X6382086Y-15883698D02*
X6391610Y-15874174D01*
X6391610Y-15874174D02*
X6410658Y-15864650D01*
X6410658Y-15864650D02*
X6439229Y-15864650D01*
X6439229Y-15864650D02*
X6458277Y-15874174D01*
X6458277Y-15874174D02*
X6467801Y-15893222D01*
X6467801Y-15893222D02*
X6467801Y-15997984D01*
X6467801Y-15893222D02*
X6477324Y-15874174D01*
X6477324Y-15874174D02*
X6496372Y-15864650D01*
X6496372Y-15864650D02*
X6524943Y-15864650D01*
X6524943Y-15864650D02*
X6543991Y-15874174D01*
X6543991Y-15874174D02*
X6553515Y-15893222D01*
X6553515Y-15893222D02*
X6553515Y-15997984D01*
X6943991Y-15788460D02*
X6772563Y-16045603D01*
X7201134Y-15797984D02*
X7220182Y-15797984D01*
X7220182Y-15797984D02*
X7239229Y-15807508D01*
X7239229Y-15807508D02*
X7248753Y-15817031D01*
X7248753Y-15817031D02*
X7258277Y-15836079D01*
X7258277Y-15836079D02*
X7267801Y-15874174D01*
X7267801Y-15874174D02*
X7267801Y-15921793D01*
X7267801Y-15921793D02*
X7258277Y-15959888D01*
X7258277Y-15959888D02*
X7248753Y-15978936D01*
X7248753Y-15978936D02*
X7239229Y-15988460D01*
X7239229Y-15988460D02*
X7220182Y-15997984D01*
X7220182Y-15997984D02*
X7201134Y-15997984D01*
X7201134Y-15997984D02*
X7182086Y-15988460D01*
X7182086Y-15988460D02*
X7172563Y-15978936D01*
X7172563Y-15978936D02*
X7163039Y-15959888D01*
X7163039Y-15959888D02*
X7153515Y-15921793D01*
X7153515Y-15921793D02*
X7153515Y-15874174D01*
X7153515Y-15874174D02*
X7163039Y-15836079D01*
X7163039Y-15836079D02*
X7172563Y-15817031D01*
X7172563Y-15817031D02*
X7182086Y-15807508D01*
X7182086Y-15807508D02*
X7201134Y-15797984D01*
X7353515Y-15978936D02*
X7363039Y-15988460D01*
X7363039Y-15988460D02*
X7353515Y-15997984D01*
X7353515Y-15997984D02*
X7343991Y-15988460D01*
X7343991Y-15988460D02*
X7353515Y-15978936D01*
X7353515Y-15978936D02*
X7353515Y-15997984D01*
X7486848Y-15797984D02*
X7505896Y-15797984D01*
X7505896Y-15797984D02*
X7524944Y-15807508D01*
X7524944Y-15807508D02*
X7534467Y-15817031D01*
X7534467Y-15817031D02*
X7543991Y-15836079D01*
X7543991Y-15836079D02*
X7553515Y-15874174D01*
X7553515Y-15874174D02*
X7553515Y-15921793D01*
X7553515Y-15921793D02*
X7543991Y-15959888D01*
X7543991Y-15959888D02*
X7534467Y-15978936D01*
X7534467Y-15978936D02*
X7524944Y-15988460D01*
X7524944Y-15988460D02*
X7505896Y-15997984D01*
X7505896Y-15997984D02*
X7486848Y-15997984D01*
X7486848Y-15997984D02*
X7467801Y-15988460D01*
X7467801Y-15988460D02*
X7458277Y-15978936D01*
X7458277Y-15978936D02*
X7448753Y-15959888D01*
X7448753Y-15959888D02*
X7439229Y-15921793D01*
X7439229Y-15921793D02*
X7439229Y-15874174D01*
X7439229Y-15874174D02*
X7448753Y-15836079D01*
X7448753Y-15836079D02*
X7458277Y-15817031D01*
X7458277Y-15817031D02*
X7467801Y-15807508D01*
X7467801Y-15807508D02*
X7486848Y-15797984D01*
X7629706Y-15817031D02*
X7639229Y-15807508D01*
X7639229Y-15807508D02*
X7658277Y-15797984D01*
X7658277Y-15797984D02*
X7705896Y-15797984D01*
X7705896Y-15797984D02*
X7724944Y-15807508D01*
X7724944Y-15807508D02*
X7734467Y-15817031D01*
X7734467Y-15817031D02*
X7743991Y-15836079D01*
X7743991Y-15836079D02*
X7743991Y-15855127D01*
X7743991Y-15855127D02*
X7734467Y-15883698D01*
X7734467Y-15883698D02*
X7620182Y-15997984D01*
X7620182Y-15997984D02*
X7743991Y-15997984D01*
X7810658Y-15797984D02*
X7934467Y-15797984D01*
X7934467Y-15797984D02*
X7867801Y-15874174D01*
X7867801Y-15874174D02*
X7896372Y-15874174D01*
X7896372Y-15874174D02*
X7915420Y-15883698D01*
X7915420Y-15883698D02*
X7924944Y-15893222D01*
X7924944Y-15893222D02*
X7934467Y-15912269D01*
X7934467Y-15912269D02*
X7934467Y-15959888D01*
X7934467Y-15959888D02*
X7924944Y-15978936D01*
X7924944Y-15978936D02*
X7915420Y-15988460D01*
X7915420Y-15988460D02*
X7896372Y-15997984D01*
X7896372Y-15997984D02*
X7839229Y-15997984D01*
X7839229Y-15997984D02*
X7820182Y-15988460D01*
X7820182Y-15988460D02*
X7810658Y-15978936D01*
X8105896Y-15797984D02*
X8067801Y-15797984D01*
X8067801Y-15797984D02*
X8048753Y-15807508D01*
X8048753Y-15807508D02*
X8039229Y-15817031D01*
X8039229Y-15817031D02*
X8020182Y-15845603D01*
X8020182Y-15845603D02*
X8010658Y-15883698D01*
X8010658Y-15883698D02*
X8010658Y-15959888D01*
X8010658Y-15959888D02*
X8020182Y-15978936D01*
X8020182Y-15978936D02*
X8029706Y-15988460D01*
X8029706Y-15988460D02*
X8048753Y-15997984D01*
X8048753Y-15997984D02*
X8086848Y-15997984D01*
X8086848Y-15997984D02*
X8105896Y-15988460D01*
X8105896Y-15988460D02*
X8115420Y-15978936D01*
X8115420Y-15978936D02*
X8124944Y-15959888D01*
X8124944Y-15959888D02*
X8124944Y-15912269D01*
X8124944Y-15912269D02*
X8115420Y-15893222D01*
X8115420Y-15893222D02*
X8105896Y-15883698D01*
X8105896Y-15883698D02*
X8086848Y-15874174D01*
X8086848Y-15874174D02*
X8048753Y-15874174D01*
X8048753Y-15874174D02*
X8029706Y-15883698D01*
X8029706Y-15883698D02*
X8020182Y-15893222D01*
X8020182Y-15893222D02*
X8010658Y-15912269D01*
X8201134Y-15797984D02*
X8201134Y-15836079D01*
X8277325Y-15797984D02*
X8277325Y-15836079D01*
X8572563Y-16074174D02*
X8563039Y-16064650D01*
X8563039Y-16064650D02*
X8543991Y-16036079D01*
X8543991Y-16036079D02*
X8534468Y-16017031D01*
X8534468Y-16017031D02*
X8524944Y-15988460D01*
X8524944Y-15988460D02*
X8515420Y-15940841D01*
X8515420Y-15940841D02*
X8515420Y-15902746D01*
X8515420Y-15902746D02*
X8524944Y-15855127D01*
X8524944Y-15855127D02*
X8534468Y-15826555D01*
X8534468Y-15826555D02*
X8543991Y-15807508D01*
X8543991Y-15807508D02*
X8563039Y-15778936D01*
X8563039Y-15778936D02*
X8572563Y-15769412D01*
X8639230Y-15817031D02*
X8648753Y-15807508D01*
X8648753Y-15807508D02*
X8667801Y-15797984D01*
X8667801Y-15797984D02*
X8715420Y-15797984D01*
X8715420Y-15797984D02*
X8734468Y-15807508D01*
X8734468Y-15807508D02*
X8743991Y-15817031D01*
X8743991Y-15817031D02*
X8753515Y-15836079D01*
X8753515Y-15836079D02*
X8753515Y-15855127D01*
X8753515Y-15855127D02*
X8743991Y-15883698D01*
X8743991Y-15883698D02*
X8629706Y-15997984D01*
X8629706Y-15997984D02*
X8753515Y-15997984D01*
X8991611Y-15997984D02*
X8991611Y-15797984D01*
X9077325Y-15997984D02*
X9077325Y-15893222D01*
X9077325Y-15893222D02*
X9067801Y-15874174D01*
X9067801Y-15874174D02*
X9048753Y-15864650D01*
X9048753Y-15864650D02*
X9020182Y-15864650D01*
X9020182Y-15864650D02*
X9001134Y-15874174D01*
X9001134Y-15874174D02*
X8991611Y-15883698D01*
X9201134Y-15997984D02*
X9182087Y-15988460D01*
X9182087Y-15988460D02*
X9172563Y-15978936D01*
X9172563Y-15978936D02*
X9163039Y-15959888D01*
X9163039Y-15959888D02*
X9163039Y-15902746D01*
X9163039Y-15902746D02*
X9172563Y-15883698D01*
X9172563Y-15883698D02*
X9182087Y-15874174D01*
X9182087Y-15874174D02*
X9201134Y-15864650D01*
X9201134Y-15864650D02*
X9229706Y-15864650D01*
X9229706Y-15864650D02*
X9248753Y-15874174D01*
X9248753Y-15874174D02*
X9258277Y-15883698D01*
X9258277Y-15883698D02*
X9267801Y-15902746D01*
X9267801Y-15902746D02*
X9267801Y-15959888D01*
X9267801Y-15959888D02*
X9258277Y-15978936D01*
X9258277Y-15978936D02*
X9248753Y-15988460D01*
X9248753Y-15988460D02*
X9229706Y-15997984D01*
X9229706Y-15997984D02*
X9201134Y-15997984D01*
X9382087Y-15997984D02*
X9363039Y-15988460D01*
X9363039Y-15988460D02*
X9353515Y-15969412D01*
X9353515Y-15969412D02*
X9353515Y-15797984D01*
X9534468Y-15988460D02*
X9515420Y-15997984D01*
X9515420Y-15997984D02*
X9477325Y-15997984D01*
X9477325Y-15997984D02*
X9458277Y-15988460D01*
X9458277Y-15988460D02*
X9448753Y-15969412D01*
X9448753Y-15969412D02*
X9448753Y-15893222D01*
X9448753Y-15893222D02*
X9458277Y-15874174D01*
X9458277Y-15874174D02*
X9477325Y-15864650D01*
X9477325Y-15864650D02*
X9515420Y-15864650D01*
X9515420Y-15864650D02*
X9534468Y-15874174D01*
X9534468Y-15874174D02*
X9543992Y-15893222D01*
X9543992Y-15893222D02*
X9543992Y-15912269D01*
X9543992Y-15912269D02*
X9448753Y-15931317D01*
X9620182Y-15988460D02*
X9639230Y-15997984D01*
X9639230Y-15997984D02*
X9677325Y-15997984D01*
X9677325Y-15997984D02*
X9696373Y-15988460D01*
X9696373Y-15988460D02*
X9705896Y-15969412D01*
X9705896Y-15969412D02*
X9705896Y-15959888D01*
X9705896Y-15959888D02*
X9696373Y-15940841D01*
X9696373Y-15940841D02*
X9677325Y-15931317D01*
X9677325Y-15931317D02*
X9648753Y-15931317D01*
X9648753Y-15931317D02*
X9629706Y-15921793D01*
X9629706Y-15921793D02*
X9620182Y-15902746D01*
X9620182Y-15902746D02*
X9620182Y-15893222D01*
X9620182Y-15893222D02*
X9629706Y-15874174D01*
X9629706Y-15874174D02*
X9648753Y-15864650D01*
X9648753Y-15864650D02*
X9677325Y-15864650D01*
X9677325Y-15864650D02*
X9696373Y-15874174D01*
X9772563Y-16074174D02*
X9782087Y-16064650D01*
X9782087Y-16064650D02*
X9801134Y-16036079D01*
X9801134Y-16036079D02*
X9810658Y-16017031D01*
X9810658Y-16017031D02*
X9820182Y-15988460D01*
X9820182Y-15988460D02*
X9829706Y-15940841D01*
X9829706Y-15940841D02*
X9829706Y-15902746D01*
X9829706Y-15902746D02*
X9820182Y-15855127D01*
X9820182Y-15855127D02*
X9810658Y-15826555D01*
X9810658Y-15826555D02*
X9801134Y-15807508D01*
X9801134Y-15807508D02*
X9782087Y-15778936D01*
X9782087Y-15778936D02*
X9772563Y-15769412D01*
D12*
X4960000Y-16133000D02*
X4960000Y-16208000D01*
X4922500Y-16170500D02*
X4997500Y-16170500D01*
D11*
X5296372Y-16061984D02*
X5315420Y-16061984D01*
X5315420Y-16061984D02*
X5334467Y-16071508D01*
X5334467Y-16071508D02*
X5343991Y-16081031D01*
X5343991Y-16081031D02*
X5353515Y-16100079D01*
X5353515Y-16100079D02*
X5363039Y-16138174D01*
X5363039Y-16138174D02*
X5363039Y-16185793D01*
X5363039Y-16185793D02*
X5353515Y-16223888D01*
X5353515Y-16223888D02*
X5343991Y-16242936D01*
X5343991Y-16242936D02*
X5334467Y-16252460D01*
X5334467Y-16252460D02*
X5315420Y-16261984D01*
X5315420Y-16261984D02*
X5296372Y-16261984D01*
X5296372Y-16261984D02*
X5277324Y-16252460D01*
X5277324Y-16252460D02*
X5267801Y-16242936D01*
X5267801Y-16242936D02*
X5258277Y-16223888D01*
X5258277Y-16223888D02*
X5248753Y-16185793D01*
X5248753Y-16185793D02*
X5248753Y-16138174D01*
X5248753Y-16138174D02*
X5258277Y-16100079D01*
X5258277Y-16100079D02*
X5267801Y-16081031D01*
X5267801Y-16081031D02*
X5277324Y-16071508D01*
X5277324Y-16071508D02*
X5296372Y-16061984D01*
X5448753Y-16242936D02*
X5458277Y-16252460D01*
X5458277Y-16252460D02*
X5448753Y-16261984D01*
X5448753Y-16261984D02*
X5439229Y-16252460D01*
X5439229Y-16252460D02*
X5448753Y-16242936D01*
X5448753Y-16242936D02*
X5448753Y-16261984D01*
X5524944Y-16061984D02*
X5658277Y-16061984D01*
X5658277Y-16061984D02*
X5572563Y-16261984D01*
X5829705Y-16061984D02*
X5734467Y-16061984D01*
X5734467Y-16061984D02*
X5724943Y-16157222D01*
X5724943Y-16157222D02*
X5734467Y-16147698D01*
X5734467Y-16147698D02*
X5753515Y-16138174D01*
X5753515Y-16138174D02*
X5801134Y-16138174D01*
X5801134Y-16138174D02*
X5820182Y-16147698D01*
X5820182Y-16147698D02*
X5829705Y-16157222D01*
X5829705Y-16157222D02*
X5839229Y-16176269D01*
X5839229Y-16176269D02*
X5839229Y-16223888D01*
X5839229Y-16223888D02*
X5829705Y-16242936D01*
X5829705Y-16242936D02*
X5820182Y-16252460D01*
X5820182Y-16252460D02*
X5801134Y-16261984D01*
X5801134Y-16261984D02*
X5753515Y-16261984D01*
X5753515Y-16261984D02*
X5734467Y-16252460D01*
X5734467Y-16252460D02*
X5724943Y-16242936D01*
X5963039Y-16061984D02*
X5982086Y-16061984D01*
X5982086Y-16061984D02*
X6001134Y-16071508D01*
X6001134Y-16071508D02*
X6010658Y-16081031D01*
X6010658Y-16081031D02*
X6020182Y-16100079D01*
X6020182Y-16100079D02*
X6029705Y-16138174D01*
X6029705Y-16138174D02*
X6029705Y-16185793D01*
X6029705Y-16185793D02*
X6020182Y-16223888D01*
X6020182Y-16223888D02*
X6010658Y-16242936D01*
X6010658Y-16242936D02*
X6001134Y-16252460D01*
X6001134Y-16252460D02*
X5982086Y-16261984D01*
X5982086Y-16261984D02*
X5963039Y-16261984D01*
X5963039Y-16261984D02*
X5943991Y-16252460D01*
X5943991Y-16252460D02*
X5934467Y-16242936D01*
X5934467Y-16242936D02*
X5924943Y-16223888D01*
X5924943Y-16223888D02*
X5915420Y-16185793D01*
X5915420Y-16185793D02*
X5915420Y-16138174D01*
X5915420Y-16138174D02*
X5924943Y-16100079D01*
X5924943Y-16100079D02*
X5934467Y-16081031D01*
X5934467Y-16081031D02*
X5943991Y-16071508D01*
X5943991Y-16071508D02*
X5963039Y-16061984D01*
X6115420Y-16261984D02*
X6115420Y-16128650D01*
X6115420Y-16147698D02*
X6124943Y-16138174D01*
X6124943Y-16138174D02*
X6143991Y-16128650D01*
X6143991Y-16128650D02*
X6172563Y-16128650D01*
X6172563Y-16128650D02*
X6191610Y-16138174D01*
X6191610Y-16138174D02*
X6201134Y-16157222D01*
X6201134Y-16157222D02*
X6201134Y-16261984D01*
X6201134Y-16157222D02*
X6210658Y-16138174D01*
X6210658Y-16138174D02*
X6229705Y-16128650D01*
X6229705Y-16128650D02*
X6258277Y-16128650D01*
X6258277Y-16128650D02*
X6277324Y-16138174D01*
X6277324Y-16138174D02*
X6286848Y-16157222D01*
X6286848Y-16157222D02*
X6286848Y-16261984D01*
X6382086Y-16261984D02*
X6382086Y-16128650D01*
X6382086Y-16147698D02*
X6391610Y-16138174D01*
X6391610Y-16138174D02*
X6410658Y-16128650D01*
X6410658Y-16128650D02*
X6439229Y-16128650D01*
X6439229Y-16128650D02*
X6458277Y-16138174D01*
X6458277Y-16138174D02*
X6467801Y-16157222D01*
X6467801Y-16157222D02*
X6467801Y-16261984D01*
X6467801Y-16157222D02*
X6477324Y-16138174D01*
X6477324Y-16138174D02*
X6496372Y-16128650D01*
X6496372Y-16128650D02*
X6524943Y-16128650D01*
X6524943Y-16128650D02*
X6543991Y-16138174D01*
X6543991Y-16138174D02*
X6553515Y-16157222D01*
X6553515Y-16157222D02*
X6553515Y-16261984D01*
X6943991Y-16052460D02*
X6772563Y-16309603D01*
X7201134Y-16061984D02*
X7220182Y-16061984D01*
X7220182Y-16061984D02*
X7239229Y-16071508D01*
X7239229Y-16071508D02*
X7248753Y-16081031D01*
X7248753Y-16081031D02*
X7258277Y-16100079D01*
X7258277Y-16100079D02*
X7267801Y-16138174D01*
X7267801Y-16138174D02*
X7267801Y-16185793D01*
X7267801Y-16185793D02*
X7258277Y-16223888D01*
X7258277Y-16223888D02*
X7248753Y-16242936D01*
X7248753Y-16242936D02*
X7239229Y-16252460D01*
X7239229Y-16252460D02*
X7220182Y-16261984D01*
X7220182Y-16261984D02*
X7201134Y-16261984D01*
X7201134Y-16261984D02*
X7182086Y-16252460D01*
X7182086Y-16252460D02*
X7172563Y-16242936D01*
X7172563Y-16242936D02*
X7163039Y-16223888D01*
X7163039Y-16223888D02*
X7153515Y-16185793D01*
X7153515Y-16185793D02*
X7153515Y-16138174D01*
X7153515Y-16138174D02*
X7163039Y-16100079D01*
X7163039Y-16100079D02*
X7172563Y-16081031D01*
X7172563Y-16081031D02*
X7182086Y-16071508D01*
X7182086Y-16071508D02*
X7201134Y-16061984D01*
X7353515Y-16242936D02*
X7363039Y-16252460D01*
X7363039Y-16252460D02*
X7353515Y-16261984D01*
X7353515Y-16261984D02*
X7343991Y-16252460D01*
X7343991Y-16252460D02*
X7353515Y-16242936D01*
X7353515Y-16242936D02*
X7353515Y-16261984D01*
X7486848Y-16061984D02*
X7505896Y-16061984D01*
X7505896Y-16061984D02*
X7524944Y-16071508D01*
X7524944Y-16071508D02*
X7534467Y-16081031D01*
X7534467Y-16081031D02*
X7543991Y-16100079D01*
X7543991Y-16100079D02*
X7553515Y-16138174D01*
X7553515Y-16138174D02*
X7553515Y-16185793D01*
X7553515Y-16185793D02*
X7543991Y-16223888D01*
X7543991Y-16223888D02*
X7534467Y-16242936D01*
X7534467Y-16242936D02*
X7524944Y-16252460D01*
X7524944Y-16252460D02*
X7505896Y-16261984D01*
X7505896Y-16261984D02*
X7486848Y-16261984D01*
X7486848Y-16261984D02*
X7467801Y-16252460D01*
X7467801Y-16252460D02*
X7458277Y-16242936D01*
X7458277Y-16242936D02*
X7448753Y-16223888D01*
X7448753Y-16223888D02*
X7439229Y-16185793D01*
X7439229Y-16185793D02*
X7439229Y-16138174D01*
X7439229Y-16138174D02*
X7448753Y-16100079D01*
X7448753Y-16100079D02*
X7458277Y-16081031D01*
X7458277Y-16081031D02*
X7467801Y-16071508D01*
X7467801Y-16071508D02*
X7486848Y-16061984D01*
X7629706Y-16081031D02*
X7639229Y-16071508D01*
X7639229Y-16071508D02*
X7658277Y-16061984D01*
X7658277Y-16061984D02*
X7705896Y-16061984D01*
X7705896Y-16061984D02*
X7724944Y-16071508D01*
X7724944Y-16071508D02*
X7734467Y-16081031D01*
X7734467Y-16081031D02*
X7743991Y-16100079D01*
X7743991Y-16100079D02*
X7743991Y-16119127D01*
X7743991Y-16119127D02*
X7734467Y-16147698D01*
X7734467Y-16147698D02*
X7620182Y-16261984D01*
X7620182Y-16261984D02*
X7743991Y-16261984D01*
X7839229Y-16261984D02*
X7877325Y-16261984D01*
X7877325Y-16261984D02*
X7896372Y-16252460D01*
X7896372Y-16252460D02*
X7905896Y-16242936D01*
X7905896Y-16242936D02*
X7924944Y-16214365D01*
X7924944Y-16214365D02*
X7934467Y-16176269D01*
X7934467Y-16176269D02*
X7934467Y-16100079D01*
X7934467Y-16100079D02*
X7924944Y-16081031D01*
X7924944Y-16081031D02*
X7915420Y-16071508D01*
X7915420Y-16071508D02*
X7896372Y-16061984D01*
X7896372Y-16061984D02*
X7858277Y-16061984D01*
X7858277Y-16061984D02*
X7839229Y-16071508D01*
X7839229Y-16071508D02*
X7829706Y-16081031D01*
X7829706Y-16081031D02*
X7820182Y-16100079D01*
X7820182Y-16100079D02*
X7820182Y-16147698D01*
X7820182Y-16147698D02*
X7829706Y-16166746D01*
X7829706Y-16166746D02*
X7839229Y-16176269D01*
X7839229Y-16176269D02*
X7858277Y-16185793D01*
X7858277Y-16185793D02*
X7896372Y-16185793D01*
X7896372Y-16185793D02*
X7915420Y-16176269D01*
X7915420Y-16176269D02*
X7924944Y-16166746D01*
X7924944Y-16166746D02*
X7934467Y-16147698D01*
X8115420Y-16061984D02*
X8020182Y-16061984D01*
X8020182Y-16061984D02*
X8010658Y-16157222D01*
X8010658Y-16157222D02*
X8020182Y-16147698D01*
X8020182Y-16147698D02*
X8039229Y-16138174D01*
X8039229Y-16138174D02*
X8086848Y-16138174D01*
X8086848Y-16138174D02*
X8105896Y-16147698D01*
X8105896Y-16147698D02*
X8115420Y-16157222D01*
X8115420Y-16157222D02*
X8124944Y-16176269D01*
X8124944Y-16176269D02*
X8124944Y-16223888D01*
X8124944Y-16223888D02*
X8115420Y-16242936D01*
X8115420Y-16242936D02*
X8105896Y-16252460D01*
X8105896Y-16252460D02*
X8086848Y-16261984D01*
X8086848Y-16261984D02*
X8039229Y-16261984D01*
X8039229Y-16261984D02*
X8020182Y-16252460D01*
X8020182Y-16252460D02*
X8010658Y-16242936D01*
X8201134Y-16061984D02*
X8201134Y-16100079D01*
X8277325Y-16061984D02*
X8277325Y-16100079D01*
X8572563Y-16338174D02*
X8563039Y-16328650D01*
X8563039Y-16328650D02*
X8543991Y-16300079D01*
X8543991Y-16300079D02*
X8534468Y-16281031D01*
X8534468Y-16281031D02*
X8524944Y-16252460D01*
X8524944Y-16252460D02*
X8515420Y-16204841D01*
X8515420Y-16204841D02*
X8515420Y-16166746D01*
X8515420Y-16166746D02*
X8524944Y-16119127D01*
X8524944Y-16119127D02*
X8534468Y-16090555D01*
X8534468Y-16090555D02*
X8543991Y-16071508D01*
X8543991Y-16071508D02*
X8563039Y-16042936D01*
X8563039Y-16042936D02*
X8572563Y-16033412D01*
X8639230Y-16081031D02*
X8648753Y-16071508D01*
X8648753Y-16071508D02*
X8667801Y-16061984D01*
X8667801Y-16061984D02*
X8715420Y-16061984D01*
X8715420Y-16061984D02*
X8734468Y-16071508D01*
X8734468Y-16071508D02*
X8743991Y-16081031D01*
X8743991Y-16081031D02*
X8753515Y-16100079D01*
X8753515Y-16100079D02*
X8753515Y-16119127D01*
X8753515Y-16119127D02*
X8743991Y-16147698D01*
X8743991Y-16147698D02*
X8629706Y-16261984D01*
X8629706Y-16261984D02*
X8753515Y-16261984D01*
X8924944Y-16128650D02*
X8924944Y-16261984D01*
X8877325Y-16052460D02*
X8829706Y-16195317D01*
X8829706Y-16195317D02*
X8953515Y-16195317D01*
X9182087Y-16261984D02*
X9182087Y-16061984D01*
X9267801Y-16261984D02*
X9267801Y-16157222D01*
X9267801Y-16157222D02*
X9258277Y-16138174D01*
X9258277Y-16138174D02*
X9239230Y-16128650D01*
X9239230Y-16128650D02*
X9210658Y-16128650D01*
X9210658Y-16128650D02*
X9191611Y-16138174D01*
X9191611Y-16138174D02*
X9182087Y-16147698D01*
X9391611Y-16261984D02*
X9372563Y-16252460D01*
X9372563Y-16252460D02*
X9363039Y-16242936D01*
X9363039Y-16242936D02*
X9353515Y-16223888D01*
X9353515Y-16223888D02*
X9353515Y-16166746D01*
X9353515Y-16166746D02*
X9363039Y-16147698D01*
X9363039Y-16147698D02*
X9372563Y-16138174D01*
X9372563Y-16138174D02*
X9391611Y-16128650D01*
X9391611Y-16128650D02*
X9420182Y-16128650D01*
X9420182Y-16128650D02*
X9439230Y-16138174D01*
X9439230Y-16138174D02*
X9448753Y-16147698D01*
X9448753Y-16147698D02*
X9458277Y-16166746D01*
X9458277Y-16166746D02*
X9458277Y-16223888D01*
X9458277Y-16223888D02*
X9448753Y-16242936D01*
X9448753Y-16242936D02*
X9439230Y-16252460D01*
X9439230Y-16252460D02*
X9420182Y-16261984D01*
X9420182Y-16261984D02*
X9391611Y-16261984D01*
X9572563Y-16261984D02*
X9553515Y-16252460D01*
X9553515Y-16252460D02*
X9543992Y-16233412D01*
X9543992Y-16233412D02*
X9543992Y-16061984D01*
X9724944Y-16252460D02*
X9705896Y-16261984D01*
X9705896Y-16261984D02*
X9667801Y-16261984D01*
X9667801Y-16261984D02*
X9648753Y-16252460D01*
X9648753Y-16252460D02*
X9639230Y-16233412D01*
X9639230Y-16233412D02*
X9639230Y-16157222D01*
X9639230Y-16157222D02*
X9648753Y-16138174D01*
X9648753Y-16138174D02*
X9667801Y-16128650D01*
X9667801Y-16128650D02*
X9705896Y-16128650D01*
X9705896Y-16128650D02*
X9724944Y-16138174D01*
X9724944Y-16138174D02*
X9734468Y-16157222D01*
X9734468Y-16157222D02*
X9734468Y-16176269D01*
X9734468Y-16176269D02*
X9639230Y-16195317D01*
X9810658Y-16252460D02*
X9829706Y-16261984D01*
X9829706Y-16261984D02*
X9867801Y-16261984D01*
X9867801Y-16261984D02*
X9886849Y-16252460D01*
X9886849Y-16252460D02*
X9896373Y-16233412D01*
X9896373Y-16233412D02*
X9896373Y-16223888D01*
X9896373Y-16223888D02*
X9886849Y-16204841D01*
X9886849Y-16204841D02*
X9867801Y-16195317D01*
X9867801Y-16195317D02*
X9839230Y-16195317D01*
X9839230Y-16195317D02*
X9820182Y-16185793D01*
X9820182Y-16185793D02*
X9810658Y-16166746D01*
X9810658Y-16166746D02*
X9810658Y-16157222D01*
X9810658Y-16157222D02*
X9820182Y-16138174D01*
X9820182Y-16138174D02*
X9839230Y-16128650D01*
X9839230Y-16128650D02*
X9867801Y-16128650D01*
X9867801Y-16128650D02*
X9886849Y-16138174D01*
X9963039Y-16338174D02*
X9972563Y-16328650D01*
X9972563Y-16328650D02*
X9991611Y-16300079D01*
X9991611Y-16300079D02*
X10001134Y-16281031D01*
X10001134Y-16281031D02*
X10010658Y-16252460D01*
X10010658Y-16252460D02*
X10020182Y-16204841D01*
X10020182Y-16204841D02*
X10020182Y-16166746D01*
X10020182Y-16166746D02*
X10010658Y-16119127D01*
X10010658Y-16119127D02*
X10001134Y-16090555D01*
X10001134Y-16090555D02*
X9991611Y-16071508D01*
X9991611Y-16071508D02*
X9972563Y-16042936D01*
X9972563Y-16042936D02*
X9963039Y-16033412D01*
D12*
X4985785Y-16462784D02*
X4985785Y-16406215D01*
X4929216Y-16406215D01*
X4929216Y-16462784D01*
X4985785Y-16462784D01*
D11*
X5296372Y-16325984D02*
X5315420Y-16325984D01*
X5315420Y-16325984D02*
X5334467Y-16335508D01*
X5334467Y-16335508D02*
X5343991Y-16345031D01*
X5343991Y-16345031D02*
X5353515Y-16364079D01*
X5353515Y-16364079D02*
X5363039Y-16402174D01*
X5363039Y-16402174D02*
X5363039Y-16449793D01*
X5363039Y-16449793D02*
X5353515Y-16487888D01*
X5353515Y-16487888D02*
X5343991Y-16506936D01*
X5343991Y-16506936D02*
X5334467Y-16516460D01*
X5334467Y-16516460D02*
X5315420Y-16525984D01*
X5315420Y-16525984D02*
X5296372Y-16525984D01*
X5296372Y-16525984D02*
X5277324Y-16516460D01*
X5277324Y-16516460D02*
X5267801Y-16506936D01*
X5267801Y-16506936D02*
X5258277Y-16487888D01*
X5258277Y-16487888D02*
X5248753Y-16449793D01*
X5248753Y-16449793D02*
X5248753Y-16402174D01*
X5248753Y-16402174D02*
X5258277Y-16364079D01*
X5258277Y-16364079D02*
X5267801Y-16345031D01*
X5267801Y-16345031D02*
X5277324Y-16335508D01*
X5277324Y-16335508D02*
X5296372Y-16325984D01*
X5448753Y-16506936D02*
X5458277Y-16516460D01*
X5458277Y-16516460D02*
X5448753Y-16525984D01*
X5448753Y-16525984D02*
X5439229Y-16516460D01*
X5439229Y-16516460D02*
X5448753Y-16506936D01*
X5448753Y-16506936D02*
X5448753Y-16525984D01*
X5572563Y-16411698D02*
X5553515Y-16402174D01*
X5553515Y-16402174D02*
X5543991Y-16392650D01*
X5543991Y-16392650D02*
X5534467Y-16373603D01*
X5534467Y-16373603D02*
X5534467Y-16364079D01*
X5534467Y-16364079D02*
X5543991Y-16345031D01*
X5543991Y-16345031D02*
X5553515Y-16335508D01*
X5553515Y-16335508D02*
X5572563Y-16325984D01*
X5572563Y-16325984D02*
X5610658Y-16325984D01*
X5610658Y-16325984D02*
X5629705Y-16335508D01*
X5629705Y-16335508D02*
X5639229Y-16345031D01*
X5639229Y-16345031D02*
X5648753Y-16364079D01*
X5648753Y-16364079D02*
X5648753Y-16373603D01*
X5648753Y-16373603D02*
X5639229Y-16392650D01*
X5639229Y-16392650D02*
X5629705Y-16402174D01*
X5629705Y-16402174D02*
X5610658Y-16411698D01*
X5610658Y-16411698D02*
X5572563Y-16411698D01*
X5572563Y-16411698D02*
X5553515Y-16421222D01*
X5553515Y-16421222D02*
X5543991Y-16430746D01*
X5543991Y-16430746D02*
X5534467Y-16449793D01*
X5534467Y-16449793D02*
X5534467Y-16487888D01*
X5534467Y-16487888D02*
X5543991Y-16506936D01*
X5543991Y-16506936D02*
X5553515Y-16516460D01*
X5553515Y-16516460D02*
X5572563Y-16525984D01*
X5572563Y-16525984D02*
X5610658Y-16525984D01*
X5610658Y-16525984D02*
X5629705Y-16516460D01*
X5629705Y-16516460D02*
X5639229Y-16506936D01*
X5639229Y-16506936D02*
X5648753Y-16487888D01*
X5648753Y-16487888D02*
X5648753Y-16449793D01*
X5648753Y-16449793D02*
X5639229Y-16430746D01*
X5639229Y-16430746D02*
X5629705Y-16421222D01*
X5629705Y-16421222D02*
X5610658Y-16411698D01*
X5772562Y-16325984D02*
X5791610Y-16325984D01*
X5791610Y-16325984D02*
X5810658Y-16335508D01*
X5810658Y-16335508D02*
X5820182Y-16345031D01*
X5820182Y-16345031D02*
X5829705Y-16364079D01*
X5829705Y-16364079D02*
X5839229Y-16402174D01*
X5839229Y-16402174D02*
X5839229Y-16449793D01*
X5839229Y-16449793D02*
X5829705Y-16487888D01*
X5829705Y-16487888D02*
X5820182Y-16506936D01*
X5820182Y-16506936D02*
X5810658Y-16516460D01*
X5810658Y-16516460D02*
X5791610Y-16525984D01*
X5791610Y-16525984D02*
X5772562Y-16525984D01*
X5772562Y-16525984D02*
X5753515Y-16516460D01*
X5753515Y-16516460D02*
X5743991Y-16506936D01*
X5743991Y-16506936D02*
X5734467Y-16487888D01*
X5734467Y-16487888D02*
X5724943Y-16449793D01*
X5724943Y-16449793D02*
X5724943Y-16402174D01*
X5724943Y-16402174D02*
X5734467Y-16364079D01*
X5734467Y-16364079D02*
X5743991Y-16345031D01*
X5743991Y-16345031D02*
X5753515Y-16335508D01*
X5753515Y-16335508D02*
X5772562Y-16325984D01*
X5963039Y-16325984D02*
X5982086Y-16325984D01*
X5982086Y-16325984D02*
X6001134Y-16335508D01*
X6001134Y-16335508D02*
X6010658Y-16345031D01*
X6010658Y-16345031D02*
X6020182Y-16364079D01*
X6020182Y-16364079D02*
X6029705Y-16402174D01*
X6029705Y-16402174D02*
X6029705Y-16449793D01*
X6029705Y-16449793D02*
X6020182Y-16487888D01*
X6020182Y-16487888D02*
X6010658Y-16506936D01*
X6010658Y-16506936D02*
X6001134Y-16516460D01*
X6001134Y-16516460D02*
X5982086Y-16525984D01*
X5982086Y-16525984D02*
X5963039Y-16525984D01*
X5963039Y-16525984D02*
X5943991Y-16516460D01*
X5943991Y-16516460D02*
X5934467Y-16506936D01*
X5934467Y-16506936D02*
X5924943Y-16487888D01*
X5924943Y-16487888D02*
X5915420Y-16449793D01*
X5915420Y-16449793D02*
X5915420Y-16402174D01*
X5915420Y-16402174D02*
X5924943Y-16364079D01*
X5924943Y-16364079D02*
X5934467Y-16345031D01*
X5934467Y-16345031D02*
X5943991Y-16335508D01*
X5943991Y-16335508D02*
X5963039Y-16325984D01*
X6115420Y-16525984D02*
X6115420Y-16392650D01*
X6115420Y-16411698D02*
X6124943Y-16402174D01*
X6124943Y-16402174D02*
X6143991Y-16392650D01*
X6143991Y-16392650D02*
X6172563Y-16392650D01*
X6172563Y-16392650D02*
X6191610Y-16402174D01*
X6191610Y-16402174D02*
X6201134Y-16421222D01*
X6201134Y-16421222D02*
X6201134Y-16525984D01*
X6201134Y-16421222D02*
X6210658Y-16402174D01*
X6210658Y-16402174D02*
X6229705Y-16392650D01*
X6229705Y-16392650D02*
X6258277Y-16392650D01*
X6258277Y-16392650D02*
X6277324Y-16402174D01*
X6277324Y-16402174D02*
X6286848Y-16421222D01*
X6286848Y-16421222D02*
X6286848Y-16525984D01*
X6382086Y-16525984D02*
X6382086Y-16392650D01*
X6382086Y-16411698D02*
X6391610Y-16402174D01*
X6391610Y-16402174D02*
X6410658Y-16392650D01*
X6410658Y-16392650D02*
X6439229Y-16392650D01*
X6439229Y-16392650D02*
X6458277Y-16402174D01*
X6458277Y-16402174D02*
X6467801Y-16421222D01*
X6467801Y-16421222D02*
X6467801Y-16525984D01*
X6467801Y-16421222D02*
X6477324Y-16402174D01*
X6477324Y-16402174D02*
X6496372Y-16392650D01*
X6496372Y-16392650D02*
X6524943Y-16392650D01*
X6524943Y-16392650D02*
X6543991Y-16402174D01*
X6543991Y-16402174D02*
X6553515Y-16421222D01*
X6553515Y-16421222D02*
X6553515Y-16525984D01*
X6943991Y-16316460D02*
X6772563Y-16573603D01*
X7201134Y-16325984D02*
X7220182Y-16325984D01*
X7220182Y-16325984D02*
X7239229Y-16335508D01*
X7239229Y-16335508D02*
X7248753Y-16345031D01*
X7248753Y-16345031D02*
X7258277Y-16364079D01*
X7258277Y-16364079D02*
X7267801Y-16402174D01*
X7267801Y-16402174D02*
X7267801Y-16449793D01*
X7267801Y-16449793D02*
X7258277Y-16487888D01*
X7258277Y-16487888D02*
X7248753Y-16506936D01*
X7248753Y-16506936D02*
X7239229Y-16516460D01*
X7239229Y-16516460D02*
X7220182Y-16525984D01*
X7220182Y-16525984D02*
X7201134Y-16525984D01*
X7201134Y-16525984D02*
X7182086Y-16516460D01*
X7182086Y-16516460D02*
X7172563Y-16506936D01*
X7172563Y-16506936D02*
X7163039Y-16487888D01*
X7163039Y-16487888D02*
X7153515Y-16449793D01*
X7153515Y-16449793D02*
X7153515Y-16402174D01*
X7153515Y-16402174D02*
X7163039Y-16364079D01*
X7163039Y-16364079D02*
X7172563Y-16345031D01*
X7172563Y-16345031D02*
X7182086Y-16335508D01*
X7182086Y-16335508D02*
X7201134Y-16325984D01*
X7353515Y-16506936D02*
X7363039Y-16516460D01*
X7363039Y-16516460D02*
X7353515Y-16525984D01*
X7353515Y-16525984D02*
X7343991Y-16516460D01*
X7343991Y-16516460D02*
X7353515Y-16506936D01*
X7353515Y-16506936D02*
X7353515Y-16525984D01*
X7486848Y-16325984D02*
X7505896Y-16325984D01*
X7505896Y-16325984D02*
X7524944Y-16335508D01*
X7524944Y-16335508D02*
X7534467Y-16345031D01*
X7534467Y-16345031D02*
X7543991Y-16364079D01*
X7543991Y-16364079D02*
X7553515Y-16402174D01*
X7553515Y-16402174D02*
X7553515Y-16449793D01*
X7553515Y-16449793D02*
X7543991Y-16487888D01*
X7543991Y-16487888D02*
X7534467Y-16506936D01*
X7534467Y-16506936D02*
X7524944Y-16516460D01*
X7524944Y-16516460D02*
X7505896Y-16525984D01*
X7505896Y-16525984D02*
X7486848Y-16525984D01*
X7486848Y-16525984D02*
X7467801Y-16516460D01*
X7467801Y-16516460D02*
X7458277Y-16506936D01*
X7458277Y-16506936D02*
X7448753Y-16487888D01*
X7448753Y-16487888D02*
X7439229Y-16449793D01*
X7439229Y-16449793D02*
X7439229Y-16402174D01*
X7439229Y-16402174D02*
X7448753Y-16364079D01*
X7448753Y-16364079D02*
X7458277Y-16345031D01*
X7458277Y-16345031D02*
X7467801Y-16335508D01*
X7467801Y-16335508D02*
X7486848Y-16325984D01*
X7620182Y-16325984D02*
X7743991Y-16325984D01*
X7743991Y-16325984D02*
X7677325Y-16402174D01*
X7677325Y-16402174D02*
X7705896Y-16402174D01*
X7705896Y-16402174D02*
X7724944Y-16411698D01*
X7724944Y-16411698D02*
X7734467Y-16421222D01*
X7734467Y-16421222D02*
X7743991Y-16440269D01*
X7743991Y-16440269D02*
X7743991Y-16487888D01*
X7743991Y-16487888D02*
X7734467Y-16506936D01*
X7734467Y-16506936D02*
X7724944Y-16516460D01*
X7724944Y-16516460D02*
X7705896Y-16525984D01*
X7705896Y-16525984D02*
X7648753Y-16525984D01*
X7648753Y-16525984D02*
X7629706Y-16516460D01*
X7629706Y-16516460D02*
X7620182Y-16506936D01*
X7934467Y-16525984D02*
X7820182Y-16525984D01*
X7877325Y-16525984D02*
X7877325Y-16325984D01*
X7877325Y-16325984D02*
X7858277Y-16354555D01*
X7858277Y-16354555D02*
X7839229Y-16373603D01*
X7839229Y-16373603D02*
X7820182Y-16383127D01*
X8115420Y-16325984D02*
X8020182Y-16325984D01*
X8020182Y-16325984D02*
X8010658Y-16421222D01*
X8010658Y-16421222D02*
X8020182Y-16411698D01*
X8020182Y-16411698D02*
X8039229Y-16402174D01*
X8039229Y-16402174D02*
X8086848Y-16402174D01*
X8086848Y-16402174D02*
X8105896Y-16411698D01*
X8105896Y-16411698D02*
X8115420Y-16421222D01*
X8115420Y-16421222D02*
X8124944Y-16440269D01*
X8124944Y-16440269D02*
X8124944Y-16487888D01*
X8124944Y-16487888D02*
X8115420Y-16506936D01*
X8115420Y-16506936D02*
X8105896Y-16516460D01*
X8105896Y-16516460D02*
X8086848Y-16525984D01*
X8086848Y-16525984D02*
X8039229Y-16525984D01*
X8039229Y-16525984D02*
X8020182Y-16516460D01*
X8020182Y-16516460D02*
X8010658Y-16506936D01*
X8201134Y-16325984D02*
X8201134Y-16364079D01*
X8277325Y-16325984D02*
X8277325Y-16364079D01*
X8572563Y-16602174D02*
X8563039Y-16592650D01*
X8563039Y-16592650D02*
X8543991Y-16564079D01*
X8543991Y-16564079D02*
X8534468Y-16545031D01*
X8534468Y-16545031D02*
X8524944Y-16516460D01*
X8524944Y-16516460D02*
X8515420Y-16468841D01*
X8515420Y-16468841D02*
X8515420Y-16430746D01*
X8515420Y-16430746D02*
X8524944Y-16383127D01*
X8524944Y-16383127D02*
X8534468Y-16354555D01*
X8534468Y-16354555D02*
X8543991Y-16335508D01*
X8543991Y-16335508D02*
X8563039Y-16306936D01*
X8563039Y-16306936D02*
X8572563Y-16297412D01*
X8658277Y-16525984D02*
X8696372Y-16525984D01*
X8696372Y-16525984D02*
X8715420Y-16516460D01*
X8715420Y-16516460D02*
X8724944Y-16506936D01*
X8724944Y-16506936D02*
X8743991Y-16478365D01*
X8743991Y-16478365D02*
X8753515Y-16440269D01*
X8753515Y-16440269D02*
X8753515Y-16364079D01*
X8753515Y-16364079D02*
X8743991Y-16345031D01*
X8743991Y-16345031D02*
X8734468Y-16335508D01*
X8734468Y-16335508D02*
X8715420Y-16325984D01*
X8715420Y-16325984D02*
X8677325Y-16325984D01*
X8677325Y-16325984D02*
X8658277Y-16335508D01*
X8658277Y-16335508D02*
X8648753Y-16345031D01*
X8648753Y-16345031D02*
X8639230Y-16364079D01*
X8639230Y-16364079D02*
X8639230Y-16411698D01*
X8639230Y-16411698D02*
X8648753Y-16430746D01*
X8648753Y-16430746D02*
X8658277Y-16440269D01*
X8658277Y-16440269D02*
X8677325Y-16449793D01*
X8677325Y-16449793D02*
X8715420Y-16449793D01*
X8715420Y-16449793D02*
X8734468Y-16440269D01*
X8734468Y-16440269D02*
X8743991Y-16430746D01*
X8743991Y-16430746D02*
X8753515Y-16411698D01*
X8829706Y-16345031D02*
X8839230Y-16335508D01*
X8839230Y-16335508D02*
X8858277Y-16325984D01*
X8858277Y-16325984D02*
X8905896Y-16325984D01*
X8905896Y-16325984D02*
X8924944Y-16335508D01*
X8924944Y-16335508D02*
X8934468Y-16345031D01*
X8934468Y-16345031D02*
X8943991Y-16364079D01*
X8943991Y-16364079D02*
X8943991Y-16383127D01*
X8943991Y-16383127D02*
X8934468Y-16411698D01*
X8934468Y-16411698D02*
X8820182Y-16525984D01*
X8820182Y-16525984D02*
X8943991Y-16525984D01*
X9182087Y-16525984D02*
X9182087Y-16325984D01*
X9267801Y-16525984D02*
X9267801Y-16421222D01*
X9267801Y-16421222D02*
X9258277Y-16402174D01*
X9258277Y-16402174D02*
X9239230Y-16392650D01*
X9239230Y-16392650D02*
X9210658Y-16392650D01*
X9210658Y-16392650D02*
X9191611Y-16402174D01*
X9191611Y-16402174D02*
X9182087Y-16411698D01*
X9391611Y-16525984D02*
X9372563Y-16516460D01*
X9372563Y-16516460D02*
X9363039Y-16506936D01*
X9363039Y-16506936D02*
X9353515Y-16487888D01*
X9353515Y-16487888D02*
X9353515Y-16430746D01*
X9353515Y-16430746D02*
X9363039Y-16411698D01*
X9363039Y-16411698D02*
X9372563Y-16402174D01*
X9372563Y-16402174D02*
X9391611Y-16392650D01*
X9391611Y-16392650D02*
X9420182Y-16392650D01*
X9420182Y-16392650D02*
X9439230Y-16402174D01*
X9439230Y-16402174D02*
X9448753Y-16411698D01*
X9448753Y-16411698D02*
X9458277Y-16430746D01*
X9458277Y-16430746D02*
X9458277Y-16487888D01*
X9458277Y-16487888D02*
X9448753Y-16506936D01*
X9448753Y-16506936D02*
X9439230Y-16516460D01*
X9439230Y-16516460D02*
X9420182Y-16525984D01*
X9420182Y-16525984D02*
X9391611Y-16525984D01*
X9572563Y-16525984D02*
X9553515Y-16516460D01*
X9553515Y-16516460D02*
X9543992Y-16497412D01*
X9543992Y-16497412D02*
X9543992Y-16325984D01*
X9724944Y-16516460D02*
X9705896Y-16525984D01*
X9705896Y-16525984D02*
X9667801Y-16525984D01*
X9667801Y-16525984D02*
X9648753Y-16516460D01*
X9648753Y-16516460D02*
X9639230Y-16497412D01*
X9639230Y-16497412D02*
X9639230Y-16421222D01*
X9639230Y-16421222D02*
X9648753Y-16402174D01*
X9648753Y-16402174D02*
X9667801Y-16392650D01*
X9667801Y-16392650D02*
X9705896Y-16392650D01*
X9705896Y-16392650D02*
X9724944Y-16402174D01*
X9724944Y-16402174D02*
X9734468Y-16421222D01*
X9734468Y-16421222D02*
X9734468Y-16440269D01*
X9734468Y-16440269D02*
X9639230Y-16459317D01*
X9810658Y-16516460D02*
X9829706Y-16525984D01*
X9829706Y-16525984D02*
X9867801Y-16525984D01*
X9867801Y-16525984D02*
X9886849Y-16516460D01*
X9886849Y-16516460D02*
X9896373Y-16497412D01*
X9896373Y-16497412D02*
X9896373Y-16487888D01*
X9896373Y-16487888D02*
X9886849Y-16468841D01*
X9886849Y-16468841D02*
X9867801Y-16459317D01*
X9867801Y-16459317D02*
X9839230Y-16459317D01*
X9839230Y-16459317D02*
X9820182Y-16449793D01*
X9820182Y-16449793D02*
X9810658Y-16430746D01*
X9810658Y-16430746D02*
X9810658Y-16421222D01*
X9810658Y-16421222D02*
X9820182Y-16402174D01*
X9820182Y-16402174D02*
X9839230Y-16392650D01*
X9839230Y-16392650D02*
X9867801Y-16392650D01*
X9867801Y-16392650D02*
X9886849Y-16402174D01*
X9963039Y-16602174D02*
X9972563Y-16592650D01*
X9972563Y-16592650D02*
X9991611Y-16564079D01*
X9991611Y-16564079D02*
X10001134Y-16545031D01*
X10001134Y-16545031D02*
X10010658Y-16516460D01*
X10010658Y-16516460D02*
X10020182Y-16468841D01*
X10020182Y-16468841D02*
X10020182Y-16430746D01*
X10020182Y-16430746D02*
X10010658Y-16383127D01*
X10010658Y-16383127D02*
X10001134Y-16354555D01*
X10001134Y-16354555D02*
X9991611Y-16335508D01*
X9991611Y-16335508D02*
X9972563Y-16306936D01*
X9972563Y-16306936D02*
X9963039Y-16297412D01*
D12*
X4952500Y-16743500D02*
X4997500Y-16698500D01*
X4952500Y-16653500D01*
X4907500Y-16698500D01*
X4952500Y-16743500D01*
D11*
X5296372Y-16589984D02*
X5315420Y-16589984D01*
X5315420Y-16589984D02*
X5334467Y-16599508D01*
X5334467Y-16599508D02*
X5343991Y-16609031D01*
X5343991Y-16609031D02*
X5353515Y-16628079D01*
X5353515Y-16628079D02*
X5363039Y-16666174D01*
X5363039Y-16666174D02*
X5363039Y-16713793D01*
X5363039Y-16713793D02*
X5353515Y-16751888D01*
X5353515Y-16751888D02*
X5343991Y-16770936D01*
X5343991Y-16770936D02*
X5334467Y-16780460D01*
X5334467Y-16780460D02*
X5315420Y-16789984D01*
X5315420Y-16789984D02*
X5296372Y-16789984D01*
X5296372Y-16789984D02*
X5277324Y-16780460D01*
X5277324Y-16780460D02*
X5267801Y-16770936D01*
X5267801Y-16770936D02*
X5258277Y-16751888D01*
X5258277Y-16751888D02*
X5248753Y-16713793D01*
X5248753Y-16713793D02*
X5248753Y-16666174D01*
X5248753Y-16666174D02*
X5258277Y-16628079D01*
X5258277Y-16628079D02*
X5267801Y-16609031D01*
X5267801Y-16609031D02*
X5277324Y-16599508D01*
X5277324Y-16599508D02*
X5296372Y-16589984D01*
X5448753Y-16770936D02*
X5458277Y-16780460D01*
X5458277Y-16780460D02*
X5448753Y-16789984D01*
X5448753Y-16789984D02*
X5439229Y-16780460D01*
X5439229Y-16780460D02*
X5448753Y-16770936D01*
X5448753Y-16770936D02*
X5448753Y-16789984D01*
X5553515Y-16789984D02*
X5591610Y-16789984D01*
X5591610Y-16789984D02*
X5610658Y-16780460D01*
X5610658Y-16780460D02*
X5620182Y-16770936D01*
X5620182Y-16770936D02*
X5639229Y-16742365D01*
X5639229Y-16742365D02*
X5648753Y-16704269D01*
X5648753Y-16704269D02*
X5648753Y-16628079D01*
X5648753Y-16628079D02*
X5639229Y-16609031D01*
X5639229Y-16609031D02*
X5629705Y-16599508D01*
X5629705Y-16599508D02*
X5610658Y-16589984D01*
X5610658Y-16589984D02*
X5572563Y-16589984D01*
X5572563Y-16589984D02*
X5553515Y-16599508D01*
X5553515Y-16599508D02*
X5543991Y-16609031D01*
X5543991Y-16609031D02*
X5534467Y-16628079D01*
X5534467Y-16628079D02*
X5534467Y-16675698D01*
X5534467Y-16675698D02*
X5543991Y-16694746D01*
X5543991Y-16694746D02*
X5553515Y-16704269D01*
X5553515Y-16704269D02*
X5572563Y-16713793D01*
X5572563Y-16713793D02*
X5610658Y-16713793D01*
X5610658Y-16713793D02*
X5629705Y-16704269D01*
X5629705Y-16704269D02*
X5639229Y-16694746D01*
X5639229Y-16694746D02*
X5648753Y-16675698D01*
X5772562Y-16589984D02*
X5791610Y-16589984D01*
X5791610Y-16589984D02*
X5810658Y-16599508D01*
X5810658Y-16599508D02*
X5820182Y-16609031D01*
X5820182Y-16609031D02*
X5829705Y-16628079D01*
X5829705Y-16628079D02*
X5839229Y-16666174D01*
X5839229Y-16666174D02*
X5839229Y-16713793D01*
X5839229Y-16713793D02*
X5829705Y-16751888D01*
X5829705Y-16751888D02*
X5820182Y-16770936D01*
X5820182Y-16770936D02*
X5810658Y-16780460D01*
X5810658Y-16780460D02*
X5791610Y-16789984D01*
X5791610Y-16789984D02*
X5772562Y-16789984D01*
X5772562Y-16789984D02*
X5753515Y-16780460D01*
X5753515Y-16780460D02*
X5743991Y-16770936D01*
X5743991Y-16770936D02*
X5734467Y-16751888D01*
X5734467Y-16751888D02*
X5724943Y-16713793D01*
X5724943Y-16713793D02*
X5724943Y-16666174D01*
X5724943Y-16666174D02*
X5734467Y-16628079D01*
X5734467Y-16628079D02*
X5743991Y-16609031D01*
X5743991Y-16609031D02*
X5753515Y-16599508D01*
X5753515Y-16599508D02*
X5772562Y-16589984D01*
X5963039Y-16589984D02*
X5982086Y-16589984D01*
X5982086Y-16589984D02*
X6001134Y-16599508D01*
X6001134Y-16599508D02*
X6010658Y-16609031D01*
X6010658Y-16609031D02*
X6020182Y-16628079D01*
X6020182Y-16628079D02*
X6029705Y-16666174D01*
X6029705Y-16666174D02*
X6029705Y-16713793D01*
X6029705Y-16713793D02*
X6020182Y-16751888D01*
X6020182Y-16751888D02*
X6010658Y-16770936D01*
X6010658Y-16770936D02*
X6001134Y-16780460D01*
X6001134Y-16780460D02*
X5982086Y-16789984D01*
X5982086Y-16789984D02*
X5963039Y-16789984D01*
X5963039Y-16789984D02*
X5943991Y-16780460D01*
X5943991Y-16780460D02*
X5934467Y-16770936D01*
X5934467Y-16770936D02*
X5924943Y-16751888D01*
X5924943Y-16751888D02*
X5915420Y-16713793D01*
X5915420Y-16713793D02*
X5915420Y-16666174D01*
X5915420Y-16666174D02*
X5924943Y-16628079D01*
X5924943Y-16628079D02*
X5934467Y-16609031D01*
X5934467Y-16609031D02*
X5943991Y-16599508D01*
X5943991Y-16599508D02*
X5963039Y-16589984D01*
X6115420Y-16789984D02*
X6115420Y-16656650D01*
X6115420Y-16675698D02*
X6124943Y-16666174D01*
X6124943Y-16666174D02*
X6143991Y-16656650D01*
X6143991Y-16656650D02*
X6172563Y-16656650D01*
X6172563Y-16656650D02*
X6191610Y-16666174D01*
X6191610Y-16666174D02*
X6201134Y-16685222D01*
X6201134Y-16685222D02*
X6201134Y-16789984D01*
X6201134Y-16685222D02*
X6210658Y-16666174D01*
X6210658Y-16666174D02*
X6229705Y-16656650D01*
X6229705Y-16656650D02*
X6258277Y-16656650D01*
X6258277Y-16656650D02*
X6277324Y-16666174D01*
X6277324Y-16666174D02*
X6286848Y-16685222D01*
X6286848Y-16685222D02*
X6286848Y-16789984D01*
X6382086Y-16789984D02*
X6382086Y-16656650D01*
X6382086Y-16675698D02*
X6391610Y-16666174D01*
X6391610Y-16666174D02*
X6410658Y-16656650D01*
X6410658Y-16656650D02*
X6439229Y-16656650D01*
X6439229Y-16656650D02*
X6458277Y-16666174D01*
X6458277Y-16666174D02*
X6467801Y-16685222D01*
X6467801Y-16685222D02*
X6467801Y-16789984D01*
X6467801Y-16685222D02*
X6477324Y-16666174D01*
X6477324Y-16666174D02*
X6496372Y-16656650D01*
X6496372Y-16656650D02*
X6524943Y-16656650D01*
X6524943Y-16656650D02*
X6543991Y-16666174D01*
X6543991Y-16666174D02*
X6553515Y-16685222D01*
X6553515Y-16685222D02*
X6553515Y-16789984D01*
X6943991Y-16580460D02*
X6772563Y-16837603D01*
X7201134Y-16589984D02*
X7220182Y-16589984D01*
X7220182Y-16589984D02*
X7239229Y-16599508D01*
X7239229Y-16599508D02*
X7248753Y-16609031D01*
X7248753Y-16609031D02*
X7258277Y-16628079D01*
X7258277Y-16628079D02*
X7267801Y-16666174D01*
X7267801Y-16666174D02*
X7267801Y-16713793D01*
X7267801Y-16713793D02*
X7258277Y-16751888D01*
X7258277Y-16751888D02*
X7248753Y-16770936D01*
X7248753Y-16770936D02*
X7239229Y-16780460D01*
X7239229Y-16780460D02*
X7220182Y-16789984D01*
X7220182Y-16789984D02*
X7201134Y-16789984D01*
X7201134Y-16789984D02*
X7182086Y-16780460D01*
X7182086Y-16780460D02*
X7172563Y-16770936D01*
X7172563Y-16770936D02*
X7163039Y-16751888D01*
X7163039Y-16751888D02*
X7153515Y-16713793D01*
X7153515Y-16713793D02*
X7153515Y-16666174D01*
X7153515Y-16666174D02*
X7163039Y-16628079D01*
X7163039Y-16628079D02*
X7172563Y-16609031D01*
X7172563Y-16609031D02*
X7182086Y-16599508D01*
X7182086Y-16599508D02*
X7201134Y-16589984D01*
X7353515Y-16770936D02*
X7363039Y-16780460D01*
X7363039Y-16780460D02*
X7353515Y-16789984D01*
X7353515Y-16789984D02*
X7343991Y-16780460D01*
X7343991Y-16780460D02*
X7353515Y-16770936D01*
X7353515Y-16770936D02*
X7353515Y-16789984D01*
X7486848Y-16589984D02*
X7505896Y-16589984D01*
X7505896Y-16589984D02*
X7524944Y-16599508D01*
X7524944Y-16599508D02*
X7534467Y-16609031D01*
X7534467Y-16609031D02*
X7543991Y-16628079D01*
X7543991Y-16628079D02*
X7553515Y-16666174D01*
X7553515Y-16666174D02*
X7553515Y-16713793D01*
X7553515Y-16713793D02*
X7543991Y-16751888D01*
X7543991Y-16751888D02*
X7534467Y-16770936D01*
X7534467Y-16770936D02*
X7524944Y-16780460D01*
X7524944Y-16780460D02*
X7505896Y-16789984D01*
X7505896Y-16789984D02*
X7486848Y-16789984D01*
X7486848Y-16789984D02*
X7467801Y-16780460D01*
X7467801Y-16780460D02*
X7458277Y-16770936D01*
X7458277Y-16770936D02*
X7448753Y-16751888D01*
X7448753Y-16751888D02*
X7439229Y-16713793D01*
X7439229Y-16713793D02*
X7439229Y-16666174D01*
X7439229Y-16666174D02*
X7448753Y-16628079D01*
X7448753Y-16628079D02*
X7458277Y-16609031D01*
X7458277Y-16609031D02*
X7467801Y-16599508D01*
X7467801Y-16599508D02*
X7486848Y-16589984D01*
X7620182Y-16589984D02*
X7743991Y-16589984D01*
X7743991Y-16589984D02*
X7677325Y-16666174D01*
X7677325Y-16666174D02*
X7705896Y-16666174D01*
X7705896Y-16666174D02*
X7724944Y-16675698D01*
X7724944Y-16675698D02*
X7734467Y-16685222D01*
X7734467Y-16685222D02*
X7743991Y-16704269D01*
X7743991Y-16704269D02*
X7743991Y-16751888D01*
X7743991Y-16751888D02*
X7734467Y-16770936D01*
X7734467Y-16770936D02*
X7724944Y-16780460D01*
X7724944Y-16780460D02*
X7705896Y-16789984D01*
X7705896Y-16789984D02*
X7648753Y-16789984D01*
X7648753Y-16789984D02*
X7629706Y-16780460D01*
X7629706Y-16780460D02*
X7620182Y-16770936D01*
X7924944Y-16589984D02*
X7829706Y-16589984D01*
X7829706Y-16589984D02*
X7820182Y-16685222D01*
X7820182Y-16685222D02*
X7829706Y-16675698D01*
X7829706Y-16675698D02*
X7848753Y-16666174D01*
X7848753Y-16666174D02*
X7896372Y-16666174D01*
X7896372Y-16666174D02*
X7915420Y-16675698D01*
X7915420Y-16675698D02*
X7924944Y-16685222D01*
X7924944Y-16685222D02*
X7934467Y-16704269D01*
X7934467Y-16704269D02*
X7934467Y-16751888D01*
X7934467Y-16751888D02*
X7924944Y-16770936D01*
X7924944Y-16770936D02*
X7915420Y-16780460D01*
X7915420Y-16780460D02*
X7896372Y-16789984D01*
X7896372Y-16789984D02*
X7848753Y-16789984D01*
X7848753Y-16789984D02*
X7829706Y-16780460D01*
X7829706Y-16780460D02*
X7820182Y-16770936D01*
X8105896Y-16656650D02*
X8105896Y-16789984D01*
X8058277Y-16580460D02*
X8010658Y-16723317D01*
X8010658Y-16723317D02*
X8134467Y-16723317D01*
X8201134Y-16589984D02*
X8201134Y-16628079D01*
X8277325Y-16589984D02*
X8277325Y-16628079D01*
X8572563Y-16866174D02*
X8563039Y-16856650D01*
X8563039Y-16856650D02*
X8543991Y-16828079D01*
X8543991Y-16828079D02*
X8534468Y-16809031D01*
X8534468Y-16809031D02*
X8524944Y-16780460D01*
X8524944Y-16780460D02*
X8515420Y-16732841D01*
X8515420Y-16732841D02*
X8515420Y-16694746D01*
X8515420Y-16694746D02*
X8524944Y-16647127D01*
X8524944Y-16647127D02*
X8534468Y-16618555D01*
X8534468Y-16618555D02*
X8543991Y-16599508D01*
X8543991Y-16599508D02*
X8563039Y-16570936D01*
X8563039Y-16570936D02*
X8572563Y-16561412D01*
X8753515Y-16789984D02*
X8639230Y-16789984D01*
X8696372Y-16789984D02*
X8696372Y-16589984D01*
X8696372Y-16589984D02*
X8677325Y-16618555D01*
X8677325Y-16618555D02*
X8658277Y-16637603D01*
X8658277Y-16637603D02*
X8639230Y-16647127D01*
X8924944Y-16656650D02*
X8924944Y-16789984D01*
X8877325Y-16580460D02*
X8829706Y-16723317D01*
X8829706Y-16723317D02*
X8953515Y-16723317D01*
X9182087Y-16789984D02*
X9182087Y-16589984D01*
X9267801Y-16789984D02*
X9267801Y-16685222D01*
X9267801Y-16685222D02*
X9258277Y-16666174D01*
X9258277Y-16666174D02*
X9239230Y-16656650D01*
X9239230Y-16656650D02*
X9210658Y-16656650D01*
X9210658Y-16656650D02*
X9191611Y-16666174D01*
X9191611Y-16666174D02*
X9182087Y-16675698D01*
X9391611Y-16789984D02*
X9372563Y-16780460D01*
X9372563Y-16780460D02*
X9363039Y-16770936D01*
X9363039Y-16770936D02*
X9353515Y-16751888D01*
X9353515Y-16751888D02*
X9353515Y-16694746D01*
X9353515Y-16694746D02*
X9363039Y-16675698D01*
X9363039Y-16675698D02*
X9372563Y-16666174D01*
X9372563Y-16666174D02*
X9391611Y-16656650D01*
X9391611Y-16656650D02*
X9420182Y-16656650D01*
X9420182Y-16656650D02*
X9439230Y-16666174D01*
X9439230Y-16666174D02*
X9448753Y-16675698D01*
X9448753Y-16675698D02*
X9458277Y-16694746D01*
X9458277Y-16694746D02*
X9458277Y-16751888D01*
X9458277Y-16751888D02*
X9448753Y-16770936D01*
X9448753Y-16770936D02*
X9439230Y-16780460D01*
X9439230Y-16780460D02*
X9420182Y-16789984D01*
X9420182Y-16789984D02*
X9391611Y-16789984D01*
X9572563Y-16789984D02*
X9553515Y-16780460D01*
X9553515Y-16780460D02*
X9543992Y-16761412D01*
X9543992Y-16761412D02*
X9543992Y-16589984D01*
X9724944Y-16780460D02*
X9705896Y-16789984D01*
X9705896Y-16789984D02*
X9667801Y-16789984D01*
X9667801Y-16789984D02*
X9648753Y-16780460D01*
X9648753Y-16780460D02*
X9639230Y-16761412D01*
X9639230Y-16761412D02*
X9639230Y-16685222D01*
X9639230Y-16685222D02*
X9648753Y-16666174D01*
X9648753Y-16666174D02*
X9667801Y-16656650D01*
X9667801Y-16656650D02*
X9705896Y-16656650D01*
X9705896Y-16656650D02*
X9724944Y-16666174D01*
X9724944Y-16666174D02*
X9734468Y-16685222D01*
X9734468Y-16685222D02*
X9734468Y-16704269D01*
X9734468Y-16704269D02*
X9639230Y-16723317D01*
X9810658Y-16780460D02*
X9829706Y-16789984D01*
X9829706Y-16789984D02*
X9867801Y-16789984D01*
X9867801Y-16789984D02*
X9886849Y-16780460D01*
X9886849Y-16780460D02*
X9896373Y-16761412D01*
X9896373Y-16761412D02*
X9896373Y-16751888D01*
X9896373Y-16751888D02*
X9886849Y-16732841D01*
X9886849Y-16732841D02*
X9867801Y-16723317D01*
X9867801Y-16723317D02*
X9839230Y-16723317D01*
X9839230Y-16723317D02*
X9820182Y-16713793D01*
X9820182Y-16713793D02*
X9810658Y-16694746D01*
X9810658Y-16694746D02*
X9810658Y-16685222D01*
X9810658Y-16685222D02*
X9820182Y-16666174D01*
X9820182Y-16666174D02*
X9839230Y-16656650D01*
X9839230Y-16656650D02*
X9867801Y-16656650D01*
X9867801Y-16656650D02*
X9886849Y-16666174D01*
X9963039Y-16866174D02*
X9972563Y-16856650D01*
X9972563Y-16856650D02*
X9991611Y-16828079D01*
X9991611Y-16828079D02*
X10001134Y-16809031D01*
X10001134Y-16809031D02*
X10010658Y-16780460D01*
X10010658Y-16780460D02*
X10020182Y-16732841D01*
X10020182Y-16732841D02*
X10020182Y-16694746D01*
X10020182Y-16694746D02*
X10010658Y-16647127D01*
X10010658Y-16647127D02*
X10001134Y-16618555D01*
X10001134Y-16618555D02*
X9991611Y-16599508D01*
X9991611Y-16599508D02*
X9972563Y-16570936D01*
X9972563Y-16570936D02*
X9963039Y-16561412D01*
D12*
X4897500Y-16912500D02*
X4997500Y-17012500D01*
X4997500Y-16912500D02*
X4897500Y-17012500D01*
X4997500Y-16962500D02*
G75*
G02*
X4897500Y-16962500I-50000J0D01*
G01*
X4897500Y-16962500D02*
G75*
G02*
X4997500Y-16962500I50000J0D01*
G01*
D11*
X5363039Y-17053984D02*
X5248753Y-17053984D01*
X5305896Y-17053984D02*
X5305896Y-16853984D01*
X5305896Y-16853984D02*
X5286848Y-16882555D01*
X5286848Y-16882555D02*
X5267801Y-16901603D01*
X5267801Y-16901603D02*
X5248753Y-16911127D01*
X5448753Y-17034936D02*
X5458277Y-17044460D01*
X5458277Y-17044460D02*
X5448753Y-17053984D01*
X5448753Y-17053984D02*
X5439229Y-17044460D01*
X5439229Y-17044460D02*
X5448753Y-17034936D01*
X5448753Y-17034936D02*
X5448753Y-17053984D01*
X5582086Y-16853984D02*
X5601134Y-16853984D01*
X5601134Y-16853984D02*
X5620182Y-16863508D01*
X5620182Y-16863508D02*
X5629705Y-16873031D01*
X5629705Y-16873031D02*
X5639229Y-16892079D01*
X5639229Y-16892079D02*
X5648753Y-16930174D01*
X5648753Y-16930174D02*
X5648753Y-16977793D01*
X5648753Y-16977793D02*
X5639229Y-17015889D01*
X5639229Y-17015889D02*
X5629705Y-17034936D01*
X5629705Y-17034936D02*
X5620182Y-17044460D01*
X5620182Y-17044460D02*
X5601134Y-17053984D01*
X5601134Y-17053984D02*
X5582086Y-17053984D01*
X5582086Y-17053984D02*
X5563039Y-17044460D01*
X5563039Y-17044460D02*
X5553515Y-17034936D01*
X5553515Y-17034936D02*
X5543991Y-17015889D01*
X5543991Y-17015889D02*
X5534467Y-16977793D01*
X5534467Y-16977793D02*
X5534467Y-16930174D01*
X5534467Y-16930174D02*
X5543991Y-16892079D01*
X5543991Y-16892079D02*
X5553515Y-16873031D01*
X5553515Y-16873031D02*
X5563039Y-16863508D01*
X5563039Y-16863508D02*
X5582086Y-16853984D01*
X5772562Y-16853984D02*
X5791610Y-16853984D01*
X5791610Y-16853984D02*
X5810658Y-16863508D01*
X5810658Y-16863508D02*
X5820182Y-16873031D01*
X5820182Y-16873031D02*
X5829705Y-16892079D01*
X5829705Y-16892079D02*
X5839229Y-16930174D01*
X5839229Y-16930174D02*
X5839229Y-16977793D01*
X5839229Y-16977793D02*
X5829705Y-17015889D01*
X5829705Y-17015889D02*
X5820182Y-17034936D01*
X5820182Y-17034936D02*
X5810658Y-17044460D01*
X5810658Y-17044460D02*
X5791610Y-17053984D01*
X5791610Y-17053984D02*
X5772562Y-17053984D01*
X5772562Y-17053984D02*
X5753515Y-17044460D01*
X5753515Y-17044460D02*
X5743991Y-17034936D01*
X5743991Y-17034936D02*
X5734467Y-17015889D01*
X5734467Y-17015889D02*
X5724943Y-16977793D01*
X5724943Y-16977793D02*
X5724943Y-16930174D01*
X5724943Y-16930174D02*
X5734467Y-16892079D01*
X5734467Y-16892079D02*
X5743991Y-16873031D01*
X5743991Y-16873031D02*
X5753515Y-16863508D01*
X5753515Y-16863508D02*
X5772562Y-16853984D01*
X5963039Y-16853984D02*
X5982086Y-16853984D01*
X5982086Y-16853984D02*
X6001134Y-16863508D01*
X6001134Y-16863508D02*
X6010658Y-16873031D01*
X6010658Y-16873031D02*
X6020182Y-16892079D01*
X6020182Y-16892079D02*
X6029705Y-16930174D01*
X6029705Y-16930174D02*
X6029705Y-16977793D01*
X6029705Y-16977793D02*
X6020182Y-17015889D01*
X6020182Y-17015889D02*
X6010658Y-17034936D01*
X6010658Y-17034936D02*
X6001134Y-17044460D01*
X6001134Y-17044460D02*
X5982086Y-17053984D01*
X5982086Y-17053984D02*
X5963039Y-17053984D01*
X5963039Y-17053984D02*
X5943991Y-17044460D01*
X5943991Y-17044460D02*
X5934467Y-17034936D01*
X5934467Y-17034936D02*
X5924943Y-17015889D01*
X5924943Y-17015889D02*
X5915420Y-16977793D01*
X5915420Y-16977793D02*
X5915420Y-16930174D01*
X5915420Y-16930174D02*
X5924943Y-16892079D01*
X5924943Y-16892079D02*
X5934467Y-16873031D01*
X5934467Y-16873031D02*
X5943991Y-16863508D01*
X5943991Y-16863508D02*
X5963039Y-16853984D01*
X6115420Y-17053984D02*
X6115420Y-16920650D01*
X6115420Y-16939698D02*
X6124943Y-16930174D01*
X6124943Y-16930174D02*
X6143991Y-16920650D01*
X6143991Y-16920650D02*
X6172563Y-16920650D01*
X6172563Y-16920650D02*
X6191610Y-16930174D01*
X6191610Y-16930174D02*
X6201134Y-16949222D01*
X6201134Y-16949222D02*
X6201134Y-17053984D01*
X6201134Y-16949222D02*
X6210658Y-16930174D01*
X6210658Y-16930174D02*
X6229705Y-16920650D01*
X6229705Y-16920650D02*
X6258277Y-16920650D01*
X6258277Y-16920650D02*
X6277324Y-16930174D01*
X6277324Y-16930174D02*
X6286848Y-16949222D01*
X6286848Y-16949222D02*
X6286848Y-17053984D01*
X6382086Y-17053984D02*
X6382086Y-16920650D01*
X6382086Y-16939698D02*
X6391610Y-16930174D01*
X6391610Y-16930174D02*
X6410658Y-16920650D01*
X6410658Y-16920650D02*
X6439229Y-16920650D01*
X6439229Y-16920650D02*
X6458277Y-16930174D01*
X6458277Y-16930174D02*
X6467801Y-16949222D01*
X6467801Y-16949222D02*
X6467801Y-17053984D01*
X6467801Y-16949222D02*
X6477324Y-16930174D01*
X6477324Y-16930174D02*
X6496372Y-16920650D01*
X6496372Y-16920650D02*
X6524943Y-16920650D01*
X6524943Y-16920650D02*
X6543991Y-16930174D01*
X6543991Y-16930174D02*
X6553515Y-16949222D01*
X6553515Y-16949222D02*
X6553515Y-17053984D01*
X6943991Y-16844460D02*
X6772563Y-17101603D01*
X7201134Y-16853984D02*
X7220182Y-16853984D01*
X7220182Y-16853984D02*
X7239229Y-16863508D01*
X7239229Y-16863508D02*
X7248753Y-16873031D01*
X7248753Y-16873031D02*
X7258277Y-16892079D01*
X7258277Y-16892079D02*
X7267801Y-16930174D01*
X7267801Y-16930174D02*
X7267801Y-16977793D01*
X7267801Y-16977793D02*
X7258277Y-17015889D01*
X7258277Y-17015889D02*
X7248753Y-17034936D01*
X7248753Y-17034936D02*
X7239229Y-17044460D01*
X7239229Y-17044460D02*
X7220182Y-17053984D01*
X7220182Y-17053984D02*
X7201134Y-17053984D01*
X7201134Y-17053984D02*
X7182086Y-17044460D01*
X7182086Y-17044460D02*
X7172563Y-17034936D01*
X7172563Y-17034936D02*
X7163039Y-17015889D01*
X7163039Y-17015889D02*
X7153515Y-16977793D01*
X7153515Y-16977793D02*
X7153515Y-16930174D01*
X7153515Y-16930174D02*
X7163039Y-16892079D01*
X7163039Y-16892079D02*
X7172563Y-16873031D01*
X7172563Y-16873031D02*
X7182086Y-16863508D01*
X7182086Y-16863508D02*
X7201134Y-16853984D01*
X7353515Y-17034936D02*
X7363039Y-17044460D01*
X7363039Y-17044460D02*
X7353515Y-17053984D01*
X7353515Y-17053984D02*
X7343991Y-17044460D01*
X7343991Y-17044460D02*
X7353515Y-17034936D01*
X7353515Y-17034936D02*
X7353515Y-17053984D01*
X7486848Y-16853984D02*
X7505896Y-16853984D01*
X7505896Y-16853984D02*
X7524944Y-16863508D01*
X7524944Y-16863508D02*
X7534467Y-16873031D01*
X7534467Y-16873031D02*
X7543991Y-16892079D01*
X7543991Y-16892079D02*
X7553515Y-16930174D01*
X7553515Y-16930174D02*
X7553515Y-16977793D01*
X7553515Y-16977793D02*
X7543991Y-17015889D01*
X7543991Y-17015889D02*
X7534467Y-17034936D01*
X7534467Y-17034936D02*
X7524944Y-17044460D01*
X7524944Y-17044460D02*
X7505896Y-17053984D01*
X7505896Y-17053984D02*
X7486848Y-17053984D01*
X7486848Y-17053984D02*
X7467801Y-17044460D01*
X7467801Y-17044460D02*
X7458277Y-17034936D01*
X7458277Y-17034936D02*
X7448753Y-17015889D01*
X7448753Y-17015889D02*
X7439229Y-16977793D01*
X7439229Y-16977793D02*
X7439229Y-16930174D01*
X7439229Y-16930174D02*
X7448753Y-16892079D01*
X7448753Y-16892079D02*
X7458277Y-16873031D01*
X7458277Y-16873031D02*
X7467801Y-16863508D01*
X7467801Y-16863508D02*
X7486848Y-16853984D01*
X7620182Y-16853984D02*
X7743991Y-16853984D01*
X7743991Y-16853984D02*
X7677325Y-16930174D01*
X7677325Y-16930174D02*
X7705896Y-16930174D01*
X7705896Y-16930174D02*
X7724944Y-16939698D01*
X7724944Y-16939698D02*
X7734467Y-16949222D01*
X7734467Y-16949222D02*
X7743991Y-16968270D01*
X7743991Y-16968270D02*
X7743991Y-17015889D01*
X7743991Y-17015889D02*
X7734467Y-17034936D01*
X7734467Y-17034936D02*
X7724944Y-17044460D01*
X7724944Y-17044460D02*
X7705896Y-17053984D01*
X7705896Y-17053984D02*
X7648753Y-17053984D01*
X7648753Y-17053984D02*
X7629706Y-17044460D01*
X7629706Y-17044460D02*
X7620182Y-17034936D01*
X7839229Y-17053984D02*
X7877325Y-17053984D01*
X7877325Y-17053984D02*
X7896372Y-17044460D01*
X7896372Y-17044460D02*
X7905896Y-17034936D01*
X7905896Y-17034936D02*
X7924944Y-17006365D01*
X7924944Y-17006365D02*
X7934467Y-16968270D01*
X7934467Y-16968270D02*
X7934467Y-16892079D01*
X7934467Y-16892079D02*
X7924944Y-16873031D01*
X7924944Y-16873031D02*
X7915420Y-16863508D01*
X7915420Y-16863508D02*
X7896372Y-16853984D01*
X7896372Y-16853984D02*
X7858277Y-16853984D01*
X7858277Y-16853984D02*
X7839229Y-16863508D01*
X7839229Y-16863508D02*
X7829706Y-16873031D01*
X7829706Y-16873031D02*
X7820182Y-16892079D01*
X7820182Y-16892079D02*
X7820182Y-16939698D01*
X7820182Y-16939698D02*
X7829706Y-16958746D01*
X7829706Y-16958746D02*
X7839229Y-16968270D01*
X7839229Y-16968270D02*
X7858277Y-16977793D01*
X7858277Y-16977793D02*
X7896372Y-16977793D01*
X7896372Y-16977793D02*
X7915420Y-16968270D01*
X7915420Y-16968270D02*
X7924944Y-16958746D01*
X7924944Y-16958746D02*
X7934467Y-16939698D01*
X8105896Y-16920650D02*
X8105896Y-17053984D01*
X8058277Y-16844460D02*
X8010658Y-16987317D01*
X8010658Y-16987317D02*
X8134467Y-16987317D01*
X8201134Y-16853984D02*
X8201134Y-16892079D01*
X8277325Y-16853984D02*
X8277325Y-16892079D01*
X8572563Y-17130174D02*
X8563039Y-17120650D01*
X8563039Y-17120650D02*
X8543991Y-17092079D01*
X8543991Y-17092079D02*
X8534468Y-17073031D01*
X8534468Y-17073031D02*
X8524944Y-17044460D01*
X8524944Y-17044460D02*
X8515420Y-16996841D01*
X8515420Y-16996841D02*
X8515420Y-16958746D01*
X8515420Y-16958746D02*
X8524944Y-16911127D01*
X8524944Y-16911127D02*
X8534468Y-16882555D01*
X8534468Y-16882555D02*
X8543991Y-16863508D01*
X8543991Y-16863508D02*
X8563039Y-16834936D01*
X8563039Y-16834936D02*
X8572563Y-16825412D01*
X8734468Y-16853984D02*
X8696372Y-16853984D01*
X8696372Y-16853984D02*
X8677325Y-16863508D01*
X8677325Y-16863508D02*
X8667801Y-16873031D01*
X8667801Y-16873031D02*
X8648753Y-16901603D01*
X8648753Y-16901603D02*
X8639230Y-16939698D01*
X8639230Y-16939698D02*
X8639230Y-17015889D01*
X8639230Y-17015889D02*
X8648753Y-17034936D01*
X8648753Y-17034936D02*
X8658277Y-17044460D01*
X8658277Y-17044460D02*
X8677325Y-17053984D01*
X8677325Y-17053984D02*
X8715420Y-17053984D01*
X8715420Y-17053984D02*
X8734468Y-17044460D01*
X8734468Y-17044460D02*
X8743991Y-17034936D01*
X8743991Y-17034936D02*
X8753515Y-17015889D01*
X8753515Y-17015889D02*
X8753515Y-16968270D01*
X8753515Y-16968270D02*
X8743991Y-16949222D01*
X8743991Y-16949222D02*
X8734468Y-16939698D01*
X8734468Y-16939698D02*
X8715420Y-16930174D01*
X8715420Y-16930174D02*
X8677325Y-16930174D01*
X8677325Y-16930174D02*
X8658277Y-16939698D01*
X8658277Y-16939698D02*
X8648753Y-16949222D01*
X8648753Y-16949222D02*
X8639230Y-16968270D01*
X8829706Y-16873031D02*
X8839230Y-16863508D01*
X8839230Y-16863508D02*
X8858277Y-16853984D01*
X8858277Y-16853984D02*
X8905896Y-16853984D01*
X8905896Y-16853984D02*
X8924944Y-16863508D01*
X8924944Y-16863508D02*
X8934468Y-16873031D01*
X8934468Y-16873031D02*
X8943991Y-16892079D01*
X8943991Y-16892079D02*
X8943991Y-16911127D01*
X8943991Y-16911127D02*
X8934468Y-16939698D01*
X8934468Y-16939698D02*
X8820182Y-17053984D01*
X8820182Y-17053984D02*
X8943991Y-17053984D01*
X9182087Y-17053984D02*
X9182087Y-16853984D01*
X9267801Y-17053984D02*
X9267801Y-16949222D01*
X9267801Y-16949222D02*
X9258277Y-16930174D01*
X9258277Y-16930174D02*
X9239230Y-16920650D01*
X9239230Y-16920650D02*
X9210658Y-16920650D01*
X9210658Y-16920650D02*
X9191611Y-16930174D01*
X9191611Y-16930174D02*
X9182087Y-16939698D01*
X9391611Y-17053984D02*
X9372563Y-17044460D01*
X9372563Y-17044460D02*
X9363039Y-17034936D01*
X9363039Y-17034936D02*
X9353515Y-17015889D01*
X9353515Y-17015889D02*
X9353515Y-16958746D01*
X9353515Y-16958746D02*
X9363039Y-16939698D01*
X9363039Y-16939698D02*
X9372563Y-16930174D01*
X9372563Y-16930174D02*
X9391611Y-16920650D01*
X9391611Y-16920650D02*
X9420182Y-16920650D01*
X9420182Y-16920650D02*
X9439230Y-16930174D01*
X9439230Y-16930174D02*
X9448753Y-16939698D01*
X9448753Y-16939698D02*
X9458277Y-16958746D01*
X9458277Y-16958746D02*
X9458277Y-17015889D01*
X9458277Y-17015889D02*
X9448753Y-17034936D01*
X9448753Y-17034936D02*
X9439230Y-17044460D01*
X9439230Y-17044460D02*
X9420182Y-17053984D01*
X9420182Y-17053984D02*
X9391611Y-17053984D01*
X9572563Y-17053984D02*
X9553515Y-17044460D01*
X9553515Y-17044460D02*
X9543992Y-17025412D01*
X9543992Y-17025412D02*
X9543992Y-16853984D01*
X9724944Y-17044460D02*
X9705896Y-17053984D01*
X9705896Y-17053984D02*
X9667801Y-17053984D01*
X9667801Y-17053984D02*
X9648753Y-17044460D01*
X9648753Y-17044460D02*
X9639230Y-17025412D01*
X9639230Y-17025412D02*
X9639230Y-16949222D01*
X9639230Y-16949222D02*
X9648753Y-16930174D01*
X9648753Y-16930174D02*
X9667801Y-16920650D01*
X9667801Y-16920650D02*
X9705896Y-16920650D01*
X9705896Y-16920650D02*
X9724944Y-16930174D01*
X9724944Y-16930174D02*
X9734468Y-16949222D01*
X9734468Y-16949222D02*
X9734468Y-16968270D01*
X9734468Y-16968270D02*
X9639230Y-16987317D01*
X9810658Y-17044460D02*
X9829706Y-17053984D01*
X9829706Y-17053984D02*
X9867801Y-17053984D01*
X9867801Y-17053984D02*
X9886849Y-17044460D01*
X9886849Y-17044460D02*
X9896373Y-17025412D01*
X9896373Y-17025412D02*
X9896373Y-17015889D01*
X9896373Y-17015889D02*
X9886849Y-16996841D01*
X9886849Y-16996841D02*
X9867801Y-16987317D01*
X9867801Y-16987317D02*
X9839230Y-16987317D01*
X9839230Y-16987317D02*
X9820182Y-16977793D01*
X9820182Y-16977793D02*
X9810658Y-16958746D01*
X9810658Y-16958746D02*
X9810658Y-16949222D01*
X9810658Y-16949222D02*
X9820182Y-16930174D01*
X9820182Y-16930174D02*
X9839230Y-16920650D01*
X9839230Y-16920650D02*
X9867801Y-16920650D01*
X9867801Y-16920650D02*
X9886849Y-16930174D01*
X9963039Y-17130174D02*
X9972563Y-17120650D01*
X9972563Y-17120650D02*
X9991611Y-17092079D01*
X9991611Y-17092079D02*
X10001134Y-17073031D01*
X10001134Y-17073031D02*
X10010658Y-17044460D01*
X10010658Y-17044460D02*
X10020182Y-16996841D01*
X10020182Y-16996841D02*
X10020182Y-16958746D01*
X10020182Y-16958746D02*
X10010658Y-16911127D01*
X10010658Y-16911127D02*
X10001134Y-16882555D01*
X10001134Y-16882555D02*
X9991611Y-16863508D01*
X9991611Y-16863508D02*
X9972563Y-16834936D01*
X9972563Y-16834936D02*
X9963039Y-16825412D01*
D13*
X4895900Y-17175700D02*
X4997500Y-17277300D01*
X4997500Y-17175700D02*
X4895900Y-17277300D01*
X4946700Y-17175700D02*
X4946700Y-17277300D01*
X4895900Y-17226500D02*
X4997500Y-17226500D01*
D11*
X5363039Y-17317984D02*
X5248753Y-17317984D01*
X5305896Y-17317984D02*
X5305896Y-17117984D01*
X5305896Y-17117984D02*
X5286848Y-17146555D01*
X5286848Y-17146555D02*
X5267801Y-17165603D01*
X5267801Y-17165603D02*
X5248753Y-17175127D01*
X5448753Y-17298936D02*
X5458277Y-17308460D01*
X5458277Y-17308460D02*
X5448753Y-17317984D01*
X5448753Y-17317984D02*
X5439229Y-17308460D01*
X5439229Y-17308460D02*
X5448753Y-17298936D01*
X5448753Y-17298936D02*
X5448753Y-17317984D01*
X5582086Y-17117984D02*
X5601134Y-17117984D01*
X5601134Y-17117984D02*
X5620182Y-17127508D01*
X5620182Y-17127508D02*
X5629705Y-17137031D01*
X5629705Y-17137031D02*
X5639229Y-17156079D01*
X5639229Y-17156079D02*
X5648753Y-17194174D01*
X5648753Y-17194174D02*
X5648753Y-17241793D01*
X5648753Y-17241793D02*
X5639229Y-17279889D01*
X5639229Y-17279889D02*
X5629705Y-17298936D01*
X5629705Y-17298936D02*
X5620182Y-17308460D01*
X5620182Y-17308460D02*
X5601134Y-17317984D01*
X5601134Y-17317984D02*
X5582086Y-17317984D01*
X5582086Y-17317984D02*
X5563039Y-17308460D01*
X5563039Y-17308460D02*
X5553515Y-17298936D01*
X5553515Y-17298936D02*
X5543991Y-17279889D01*
X5543991Y-17279889D02*
X5534467Y-17241793D01*
X5534467Y-17241793D02*
X5534467Y-17194174D01*
X5534467Y-17194174D02*
X5543991Y-17156079D01*
X5543991Y-17156079D02*
X5553515Y-17137031D01*
X5553515Y-17137031D02*
X5563039Y-17127508D01*
X5563039Y-17127508D02*
X5582086Y-17117984D01*
X5839229Y-17317984D02*
X5724943Y-17317984D01*
X5782086Y-17317984D02*
X5782086Y-17117984D01*
X5782086Y-17117984D02*
X5763039Y-17146555D01*
X5763039Y-17146555D02*
X5743991Y-17165603D01*
X5743991Y-17165603D02*
X5724943Y-17175127D01*
X6010658Y-17117984D02*
X5972562Y-17117984D01*
X5972562Y-17117984D02*
X5953515Y-17127508D01*
X5953515Y-17127508D02*
X5943991Y-17137031D01*
X5943991Y-17137031D02*
X5924943Y-17165603D01*
X5924943Y-17165603D02*
X5915420Y-17203698D01*
X5915420Y-17203698D02*
X5915420Y-17279889D01*
X5915420Y-17279889D02*
X5924943Y-17298936D01*
X5924943Y-17298936D02*
X5934467Y-17308460D01*
X5934467Y-17308460D02*
X5953515Y-17317984D01*
X5953515Y-17317984D02*
X5991610Y-17317984D01*
X5991610Y-17317984D02*
X6010658Y-17308460D01*
X6010658Y-17308460D02*
X6020182Y-17298936D01*
X6020182Y-17298936D02*
X6029705Y-17279889D01*
X6029705Y-17279889D02*
X6029705Y-17232270D01*
X6029705Y-17232270D02*
X6020182Y-17213222D01*
X6020182Y-17213222D02*
X6010658Y-17203698D01*
X6010658Y-17203698D02*
X5991610Y-17194174D01*
X5991610Y-17194174D02*
X5953515Y-17194174D01*
X5953515Y-17194174D02*
X5934467Y-17203698D01*
X5934467Y-17203698D02*
X5924943Y-17213222D01*
X5924943Y-17213222D02*
X5915420Y-17232270D01*
X6115420Y-17317984D02*
X6115420Y-17184650D01*
X6115420Y-17203698D02*
X6124943Y-17194174D01*
X6124943Y-17194174D02*
X6143991Y-17184650D01*
X6143991Y-17184650D02*
X6172563Y-17184650D01*
X6172563Y-17184650D02*
X6191610Y-17194174D01*
X6191610Y-17194174D02*
X6201134Y-17213222D01*
X6201134Y-17213222D02*
X6201134Y-17317984D01*
X6201134Y-17213222D02*
X6210658Y-17194174D01*
X6210658Y-17194174D02*
X6229705Y-17184650D01*
X6229705Y-17184650D02*
X6258277Y-17184650D01*
X6258277Y-17184650D02*
X6277324Y-17194174D01*
X6277324Y-17194174D02*
X6286848Y-17213222D01*
X6286848Y-17213222D02*
X6286848Y-17317984D01*
X6382086Y-17317984D02*
X6382086Y-17184650D01*
X6382086Y-17203698D02*
X6391610Y-17194174D01*
X6391610Y-17194174D02*
X6410658Y-17184650D01*
X6410658Y-17184650D02*
X6439229Y-17184650D01*
X6439229Y-17184650D02*
X6458277Y-17194174D01*
X6458277Y-17194174D02*
X6467801Y-17213222D01*
X6467801Y-17213222D02*
X6467801Y-17317984D01*
X6467801Y-17213222D02*
X6477324Y-17194174D01*
X6477324Y-17194174D02*
X6496372Y-17184650D01*
X6496372Y-17184650D02*
X6524943Y-17184650D01*
X6524943Y-17184650D02*
X6543991Y-17194174D01*
X6543991Y-17194174D02*
X6553515Y-17213222D01*
X6553515Y-17213222D02*
X6553515Y-17317984D01*
X6943991Y-17108460D02*
X6772563Y-17365603D01*
X7201134Y-17117984D02*
X7220182Y-17117984D01*
X7220182Y-17117984D02*
X7239229Y-17127508D01*
X7239229Y-17127508D02*
X7248753Y-17137031D01*
X7248753Y-17137031D02*
X7258277Y-17156079D01*
X7258277Y-17156079D02*
X7267801Y-17194174D01*
X7267801Y-17194174D02*
X7267801Y-17241793D01*
X7267801Y-17241793D02*
X7258277Y-17279889D01*
X7258277Y-17279889D02*
X7248753Y-17298936D01*
X7248753Y-17298936D02*
X7239229Y-17308460D01*
X7239229Y-17308460D02*
X7220182Y-17317984D01*
X7220182Y-17317984D02*
X7201134Y-17317984D01*
X7201134Y-17317984D02*
X7182086Y-17308460D01*
X7182086Y-17308460D02*
X7172563Y-17298936D01*
X7172563Y-17298936D02*
X7163039Y-17279889D01*
X7163039Y-17279889D02*
X7153515Y-17241793D01*
X7153515Y-17241793D02*
X7153515Y-17194174D01*
X7153515Y-17194174D02*
X7163039Y-17156079D01*
X7163039Y-17156079D02*
X7172563Y-17137031D01*
X7172563Y-17137031D02*
X7182086Y-17127508D01*
X7182086Y-17127508D02*
X7201134Y-17117984D01*
X7353515Y-17298936D02*
X7363039Y-17308460D01*
X7363039Y-17308460D02*
X7353515Y-17317984D01*
X7353515Y-17317984D02*
X7343991Y-17308460D01*
X7343991Y-17308460D02*
X7353515Y-17298936D01*
X7353515Y-17298936D02*
X7353515Y-17317984D01*
X7486848Y-17117984D02*
X7505896Y-17117984D01*
X7505896Y-17117984D02*
X7524944Y-17127508D01*
X7524944Y-17127508D02*
X7534467Y-17137031D01*
X7534467Y-17137031D02*
X7543991Y-17156079D01*
X7543991Y-17156079D02*
X7553515Y-17194174D01*
X7553515Y-17194174D02*
X7553515Y-17241793D01*
X7553515Y-17241793D02*
X7543991Y-17279889D01*
X7543991Y-17279889D02*
X7534467Y-17298936D01*
X7534467Y-17298936D02*
X7524944Y-17308460D01*
X7524944Y-17308460D02*
X7505896Y-17317984D01*
X7505896Y-17317984D02*
X7486848Y-17317984D01*
X7486848Y-17317984D02*
X7467801Y-17308460D01*
X7467801Y-17308460D02*
X7458277Y-17298936D01*
X7458277Y-17298936D02*
X7448753Y-17279889D01*
X7448753Y-17279889D02*
X7439229Y-17241793D01*
X7439229Y-17241793D02*
X7439229Y-17194174D01*
X7439229Y-17194174D02*
X7448753Y-17156079D01*
X7448753Y-17156079D02*
X7458277Y-17137031D01*
X7458277Y-17137031D02*
X7467801Y-17127508D01*
X7467801Y-17127508D02*
X7486848Y-17117984D01*
X7724944Y-17184650D02*
X7724944Y-17317984D01*
X7677325Y-17108460D02*
X7629706Y-17251317D01*
X7629706Y-17251317D02*
X7753515Y-17251317D01*
X7867801Y-17117984D02*
X7886848Y-17117984D01*
X7886848Y-17117984D02*
X7905896Y-17127508D01*
X7905896Y-17127508D02*
X7915420Y-17137031D01*
X7915420Y-17137031D02*
X7924944Y-17156079D01*
X7924944Y-17156079D02*
X7934467Y-17194174D01*
X7934467Y-17194174D02*
X7934467Y-17241793D01*
X7934467Y-17241793D02*
X7924944Y-17279889D01*
X7924944Y-17279889D02*
X7915420Y-17298936D01*
X7915420Y-17298936D02*
X7905896Y-17308460D01*
X7905896Y-17308460D02*
X7886848Y-17317984D01*
X7886848Y-17317984D02*
X7867801Y-17317984D01*
X7867801Y-17317984D02*
X7848753Y-17308460D01*
X7848753Y-17308460D02*
X7839229Y-17298936D01*
X7839229Y-17298936D02*
X7829706Y-17279889D01*
X7829706Y-17279889D02*
X7820182Y-17241793D01*
X7820182Y-17241793D02*
X7820182Y-17194174D01*
X7820182Y-17194174D02*
X7829706Y-17156079D01*
X7829706Y-17156079D02*
X7839229Y-17137031D01*
X7839229Y-17137031D02*
X7848753Y-17127508D01*
X7848753Y-17127508D02*
X7867801Y-17117984D01*
X8058277Y-17117984D02*
X8077325Y-17117984D01*
X8077325Y-17117984D02*
X8096372Y-17127508D01*
X8096372Y-17127508D02*
X8105896Y-17137031D01*
X8105896Y-17137031D02*
X8115420Y-17156079D01*
X8115420Y-17156079D02*
X8124944Y-17194174D01*
X8124944Y-17194174D02*
X8124944Y-17241793D01*
X8124944Y-17241793D02*
X8115420Y-17279889D01*
X8115420Y-17279889D02*
X8105896Y-17298936D01*
X8105896Y-17298936D02*
X8096372Y-17308460D01*
X8096372Y-17308460D02*
X8077325Y-17317984D01*
X8077325Y-17317984D02*
X8058277Y-17317984D01*
X8058277Y-17317984D02*
X8039229Y-17308460D01*
X8039229Y-17308460D02*
X8029706Y-17298936D01*
X8029706Y-17298936D02*
X8020182Y-17279889D01*
X8020182Y-17279889D02*
X8010658Y-17241793D01*
X8010658Y-17241793D02*
X8010658Y-17194174D01*
X8010658Y-17194174D02*
X8020182Y-17156079D01*
X8020182Y-17156079D02*
X8029706Y-17137031D01*
X8029706Y-17137031D02*
X8039229Y-17127508D01*
X8039229Y-17127508D02*
X8058277Y-17117984D01*
X8201134Y-17117984D02*
X8201134Y-17156079D01*
X8277325Y-17117984D02*
X8277325Y-17156079D01*
X8572563Y-17394174D02*
X8563039Y-17384650D01*
X8563039Y-17384650D02*
X8543991Y-17356079D01*
X8543991Y-17356079D02*
X8534468Y-17337031D01*
X8534468Y-17337031D02*
X8524944Y-17308460D01*
X8524944Y-17308460D02*
X8515420Y-17260841D01*
X8515420Y-17260841D02*
X8515420Y-17222746D01*
X8515420Y-17222746D02*
X8524944Y-17175127D01*
X8524944Y-17175127D02*
X8534468Y-17146555D01*
X8534468Y-17146555D02*
X8543991Y-17127508D01*
X8543991Y-17127508D02*
X8563039Y-17098936D01*
X8563039Y-17098936D02*
X8572563Y-17089412D01*
X8743991Y-17117984D02*
X8648753Y-17117984D01*
X8648753Y-17117984D02*
X8639230Y-17213222D01*
X8639230Y-17213222D02*
X8648753Y-17203698D01*
X8648753Y-17203698D02*
X8667801Y-17194174D01*
X8667801Y-17194174D02*
X8715420Y-17194174D01*
X8715420Y-17194174D02*
X8734468Y-17203698D01*
X8734468Y-17203698D02*
X8743991Y-17213222D01*
X8743991Y-17213222D02*
X8753515Y-17232270D01*
X8753515Y-17232270D02*
X8753515Y-17279889D01*
X8753515Y-17279889D02*
X8743991Y-17298936D01*
X8743991Y-17298936D02*
X8734468Y-17308460D01*
X8734468Y-17308460D02*
X8715420Y-17317984D01*
X8715420Y-17317984D02*
X8667801Y-17317984D01*
X8667801Y-17317984D02*
X8648753Y-17308460D01*
X8648753Y-17308460D02*
X8639230Y-17298936D01*
X8924944Y-17184650D02*
X8924944Y-17317984D01*
X8877325Y-17108460D02*
X8829706Y-17251317D01*
X8829706Y-17251317D02*
X8953515Y-17251317D01*
X9182087Y-17317984D02*
X9182087Y-17117984D01*
X9267801Y-17317984D02*
X9267801Y-17213222D01*
X9267801Y-17213222D02*
X9258277Y-17194174D01*
X9258277Y-17194174D02*
X9239230Y-17184650D01*
X9239230Y-17184650D02*
X9210658Y-17184650D01*
X9210658Y-17184650D02*
X9191611Y-17194174D01*
X9191611Y-17194174D02*
X9182087Y-17203698D01*
X9391611Y-17317984D02*
X9372563Y-17308460D01*
X9372563Y-17308460D02*
X9363039Y-17298936D01*
X9363039Y-17298936D02*
X9353515Y-17279889D01*
X9353515Y-17279889D02*
X9353515Y-17222746D01*
X9353515Y-17222746D02*
X9363039Y-17203698D01*
X9363039Y-17203698D02*
X9372563Y-17194174D01*
X9372563Y-17194174D02*
X9391611Y-17184650D01*
X9391611Y-17184650D02*
X9420182Y-17184650D01*
X9420182Y-17184650D02*
X9439230Y-17194174D01*
X9439230Y-17194174D02*
X9448753Y-17203698D01*
X9448753Y-17203698D02*
X9458277Y-17222746D01*
X9458277Y-17222746D02*
X9458277Y-17279889D01*
X9458277Y-17279889D02*
X9448753Y-17298936D01*
X9448753Y-17298936D02*
X9439230Y-17308460D01*
X9439230Y-17308460D02*
X9420182Y-17317984D01*
X9420182Y-17317984D02*
X9391611Y-17317984D01*
X9572563Y-17317984D02*
X9553515Y-17308460D01*
X9553515Y-17308460D02*
X9543992Y-17289412D01*
X9543992Y-17289412D02*
X9543992Y-17117984D01*
X9724944Y-17308460D02*
X9705896Y-17317984D01*
X9705896Y-17317984D02*
X9667801Y-17317984D01*
X9667801Y-17317984D02*
X9648753Y-17308460D01*
X9648753Y-17308460D02*
X9639230Y-17289412D01*
X9639230Y-17289412D02*
X9639230Y-17213222D01*
X9639230Y-17213222D02*
X9648753Y-17194174D01*
X9648753Y-17194174D02*
X9667801Y-17184650D01*
X9667801Y-17184650D02*
X9705896Y-17184650D01*
X9705896Y-17184650D02*
X9724944Y-17194174D01*
X9724944Y-17194174D02*
X9734468Y-17213222D01*
X9734468Y-17213222D02*
X9734468Y-17232270D01*
X9734468Y-17232270D02*
X9639230Y-17251317D01*
X9810658Y-17308460D02*
X9829706Y-17317984D01*
X9829706Y-17317984D02*
X9867801Y-17317984D01*
X9867801Y-17317984D02*
X9886849Y-17308460D01*
X9886849Y-17308460D02*
X9896373Y-17289412D01*
X9896373Y-17289412D02*
X9896373Y-17279889D01*
X9896373Y-17279889D02*
X9886849Y-17260841D01*
X9886849Y-17260841D02*
X9867801Y-17251317D01*
X9867801Y-17251317D02*
X9839230Y-17251317D01*
X9839230Y-17251317D02*
X9820182Y-17241793D01*
X9820182Y-17241793D02*
X9810658Y-17222746D01*
X9810658Y-17222746D02*
X9810658Y-17213222D01*
X9810658Y-17213222D02*
X9820182Y-17194174D01*
X9820182Y-17194174D02*
X9839230Y-17184650D01*
X9839230Y-17184650D02*
X9867801Y-17184650D01*
X9867801Y-17184650D02*
X9886849Y-17194174D01*
X9963039Y-17394174D02*
X9972563Y-17384650D01*
X9972563Y-17384650D02*
X9991611Y-17356079D01*
X9991611Y-17356079D02*
X10001134Y-17337031D01*
X10001134Y-17337031D02*
X10010658Y-17308460D01*
X10010658Y-17308460D02*
X10020182Y-17260841D01*
X10020182Y-17260841D02*
X10020182Y-17222746D01*
X10020182Y-17222746D02*
X10010658Y-17175127D01*
X10010658Y-17175127D02*
X10001134Y-17146555D01*
X10001134Y-17146555D02*
X9991611Y-17127508D01*
X9991611Y-17127508D02*
X9972563Y-17098936D01*
X9972563Y-17098936D02*
X9963039Y-17089412D01*
D14*
X4887500Y-17435500D02*
X4997500Y-17545500D01*
X4997500Y-17435500D02*
X4887500Y-17545500D01*
X4981391Y-17529391D02*
X4981391Y-17451609D01*
X4903609Y-17451609D01*
X4903609Y-17529391D01*
X4981391Y-17529391D01*
D11*
X5363039Y-17581984D02*
X5248753Y-17581984D01*
X5305896Y-17581984D02*
X5305896Y-17381984D01*
X5305896Y-17381984D02*
X5286848Y-17410555D01*
X5286848Y-17410555D02*
X5267801Y-17429603D01*
X5267801Y-17429603D02*
X5248753Y-17439127D01*
X5448753Y-17562936D02*
X5458277Y-17572460D01*
X5458277Y-17572460D02*
X5448753Y-17581984D01*
X5448753Y-17581984D02*
X5439229Y-17572460D01*
X5439229Y-17572460D02*
X5448753Y-17562936D01*
X5448753Y-17562936D02*
X5448753Y-17581984D01*
X5648753Y-17581984D02*
X5534467Y-17581984D01*
X5591610Y-17581984D02*
X5591610Y-17381984D01*
X5591610Y-17381984D02*
X5572563Y-17410555D01*
X5572563Y-17410555D02*
X5553515Y-17429603D01*
X5553515Y-17429603D02*
X5534467Y-17439127D01*
X5772562Y-17381984D02*
X5791610Y-17381984D01*
X5791610Y-17381984D02*
X5810658Y-17391508D01*
X5810658Y-17391508D02*
X5820182Y-17401031D01*
X5820182Y-17401031D02*
X5829705Y-17420079D01*
X5829705Y-17420079D02*
X5839229Y-17458174D01*
X5839229Y-17458174D02*
X5839229Y-17505793D01*
X5839229Y-17505793D02*
X5829705Y-17543889D01*
X5829705Y-17543889D02*
X5820182Y-17562936D01*
X5820182Y-17562936D02*
X5810658Y-17572460D01*
X5810658Y-17572460D02*
X5791610Y-17581984D01*
X5791610Y-17581984D02*
X5772562Y-17581984D01*
X5772562Y-17581984D02*
X5753515Y-17572460D01*
X5753515Y-17572460D02*
X5743991Y-17562936D01*
X5743991Y-17562936D02*
X5734467Y-17543889D01*
X5734467Y-17543889D02*
X5724943Y-17505793D01*
X5724943Y-17505793D02*
X5724943Y-17458174D01*
X5724943Y-17458174D02*
X5734467Y-17420079D01*
X5734467Y-17420079D02*
X5743991Y-17401031D01*
X5743991Y-17401031D02*
X5753515Y-17391508D01*
X5753515Y-17391508D02*
X5772562Y-17381984D01*
X5963039Y-17381984D02*
X5982086Y-17381984D01*
X5982086Y-17381984D02*
X6001134Y-17391508D01*
X6001134Y-17391508D02*
X6010658Y-17401031D01*
X6010658Y-17401031D02*
X6020182Y-17420079D01*
X6020182Y-17420079D02*
X6029705Y-17458174D01*
X6029705Y-17458174D02*
X6029705Y-17505793D01*
X6029705Y-17505793D02*
X6020182Y-17543889D01*
X6020182Y-17543889D02*
X6010658Y-17562936D01*
X6010658Y-17562936D02*
X6001134Y-17572460D01*
X6001134Y-17572460D02*
X5982086Y-17581984D01*
X5982086Y-17581984D02*
X5963039Y-17581984D01*
X5963039Y-17581984D02*
X5943991Y-17572460D01*
X5943991Y-17572460D02*
X5934467Y-17562936D01*
X5934467Y-17562936D02*
X5924943Y-17543889D01*
X5924943Y-17543889D02*
X5915420Y-17505793D01*
X5915420Y-17505793D02*
X5915420Y-17458174D01*
X5915420Y-17458174D02*
X5924943Y-17420079D01*
X5924943Y-17420079D02*
X5934467Y-17401031D01*
X5934467Y-17401031D02*
X5943991Y-17391508D01*
X5943991Y-17391508D02*
X5963039Y-17381984D01*
X6115420Y-17581984D02*
X6115420Y-17448650D01*
X6115420Y-17467698D02*
X6124943Y-17458174D01*
X6124943Y-17458174D02*
X6143991Y-17448650D01*
X6143991Y-17448650D02*
X6172563Y-17448650D01*
X6172563Y-17448650D02*
X6191610Y-17458174D01*
X6191610Y-17458174D02*
X6201134Y-17477222D01*
X6201134Y-17477222D02*
X6201134Y-17581984D01*
X6201134Y-17477222D02*
X6210658Y-17458174D01*
X6210658Y-17458174D02*
X6229705Y-17448650D01*
X6229705Y-17448650D02*
X6258277Y-17448650D01*
X6258277Y-17448650D02*
X6277324Y-17458174D01*
X6277324Y-17458174D02*
X6286848Y-17477222D01*
X6286848Y-17477222D02*
X6286848Y-17581984D01*
X6382086Y-17581984D02*
X6382086Y-17448650D01*
X6382086Y-17467698D02*
X6391610Y-17458174D01*
X6391610Y-17458174D02*
X6410658Y-17448650D01*
X6410658Y-17448650D02*
X6439229Y-17448650D01*
X6439229Y-17448650D02*
X6458277Y-17458174D01*
X6458277Y-17458174D02*
X6467801Y-17477222D01*
X6467801Y-17477222D02*
X6467801Y-17581984D01*
X6467801Y-17477222D02*
X6477324Y-17458174D01*
X6477324Y-17458174D02*
X6496372Y-17448650D01*
X6496372Y-17448650D02*
X6524943Y-17448650D01*
X6524943Y-17448650D02*
X6543991Y-17458174D01*
X6543991Y-17458174D02*
X6553515Y-17477222D01*
X6553515Y-17477222D02*
X6553515Y-17581984D01*
X6943991Y-17372460D02*
X6772563Y-17629603D01*
X7201134Y-17381984D02*
X7220182Y-17381984D01*
X7220182Y-17381984D02*
X7239229Y-17391508D01*
X7239229Y-17391508D02*
X7248753Y-17401031D01*
X7248753Y-17401031D02*
X7258277Y-17420079D01*
X7258277Y-17420079D02*
X7267801Y-17458174D01*
X7267801Y-17458174D02*
X7267801Y-17505793D01*
X7267801Y-17505793D02*
X7258277Y-17543889D01*
X7258277Y-17543889D02*
X7248753Y-17562936D01*
X7248753Y-17562936D02*
X7239229Y-17572460D01*
X7239229Y-17572460D02*
X7220182Y-17581984D01*
X7220182Y-17581984D02*
X7201134Y-17581984D01*
X7201134Y-17581984D02*
X7182086Y-17572460D01*
X7182086Y-17572460D02*
X7172563Y-17562936D01*
X7172563Y-17562936D02*
X7163039Y-17543889D01*
X7163039Y-17543889D02*
X7153515Y-17505793D01*
X7153515Y-17505793D02*
X7153515Y-17458174D01*
X7153515Y-17458174D02*
X7163039Y-17420079D01*
X7163039Y-17420079D02*
X7172563Y-17401031D01*
X7172563Y-17401031D02*
X7182086Y-17391508D01*
X7182086Y-17391508D02*
X7201134Y-17381984D01*
X7353515Y-17562936D02*
X7363039Y-17572460D01*
X7363039Y-17572460D02*
X7353515Y-17581984D01*
X7353515Y-17581984D02*
X7343991Y-17572460D01*
X7343991Y-17572460D02*
X7353515Y-17562936D01*
X7353515Y-17562936D02*
X7353515Y-17581984D01*
X7486848Y-17381984D02*
X7505896Y-17381984D01*
X7505896Y-17381984D02*
X7524944Y-17391508D01*
X7524944Y-17391508D02*
X7534467Y-17401031D01*
X7534467Y-17401031D02*
X7543991Y-17420079D01*
X7543991Y-17420079D02*
X7553515Y-17458174D01*
X7553515Y-17458174D02*
X7553515Y-17505793D01*
X7553515Y-17505793D02*
X7543991Y-17543889D01*
X7543991Y-17543889D02*
X7534467Y-17562936D01*
X7534467Y-17562936D02*
X7524944Y-17572460D01*
X7524944Y-17572460D02*
X7505896Y-17581984D01*
X7505896Y-17581984D02*
X7486848Y-17581984D01*
X7486848Y-17581984D02*
X7467801Y-17572460D01*
X7467801Y-17572460D02*
X7458277Y-17562936D01*
X7458277Y-17562936D02*
X7448753Y-17543889D01*
X7448753Y-17543889D02*
X7439229Y-17505793D01*
X7439229Y-17505793D02*
X7439229Y-17458174D01*
X7439229Y-17458174D02*
X7448753Y-17420079D01*
X7448753Y-17420079D02*
X7458277Y-17401031D01*
X7458277Y-17401031D02*
X7467801Y-17391508D01*
X7467801Y-17391508D02*
X7486848Y-17381984D01*
X7724944Y-17448650D02*
X7724944Y-17581984D01*
X7677325Y-17372460D02*
X7629706Y-17515317D01*
X7629706Y-17515317D02*
X7753515Y-17515317D01*
X7810658Y-17381984D02*
X7934467Y-17381984D01*
X7934467Y-17381984D02*
X7867801Y-17458174D01*
X7867801Y-17458174D02*
X7896372Y-17458174D01*
X7896372Y-17458174D02*
X7915420Y-17467698D01*
X7915420Y-17467698D02*
X7924944Y-17477222D01*
X7924944Y-17477222D02*
X7934467Y-17496270D01*
X7934467Y-17496270D02*
X7934467Y-17543889D01*
X7934467Y-17543889D02*
X7924944Y-17562936D01*
X7924944Y-17562936D02*
X7915420Y-17572460D01*
X7915420Y-17572460D02*
X7896372Y-17581984D01*
X7896372Y-17581984D02*
X7839229Y-17581984D01*
X7839229Y-17581984D02*
X7820182Y-17572460D01*
X7820182Y-17572460D02*
X7810658Y-17562936D01*
X8001134Y-17381984D02*
X8124944Y-17381984D01*
X8124944Y-17381984D02*
X8058277Y-17458174D01*
X8058277Y-17458174D02*
X8086848Y-17458174D01*
X8086848Y-17458174D02*
X8105896Y-17467698D01*
X8105896Y-17467698D02*
X8115420Y-17477222D01*
X8115420Y-17477222D02*
X8124944Y-17496270D01*
X8124944Y-17496270D02*
X8124944Y-17543889D01*
X8124944Y-17543889D02*
X8115420Y-17562936D01*
X8115420Y-17562936D02*
X8105896Y-17572460D01*
X8105896Y-17572460D02*
X8086848Y-17581984D01*
X8086848Y-17581984D02*
X8029706Y-17581984D01*
X8029706Y-17581984D02*
X8010658Y-17572460D01*
X8010658Y-17572460D02*
X8001134Y-17562936D01*
X8201134Y-17381984D02*
X8201134Y-17420079D01*
X8277325Y-17381984D02*
X8277325Y-17420079D01*
X8572563Y-17658174D02*
X8563039Y-17648650D01*
X8563039Y-17648650D02*
X8543991Y-17620079D01*
X8543991Y-17620079D02*
X8534468Y-17601031D01*
X8534468Y-17601031D02*
X8524944Y-17572460D01*
X8524944Y-17572460D02*
X8515420Y-17524841D01*
X8515420Y-17524841D02*
X8515420Y-17486746D01*
X8515420Y-17486746D02*
X8524944Y-17439127D01*
X8524944Y-17439127D02*
X8534468Y-17410555D01*
X8534468Y-17410555D02*
X8543991Y-17391508D01*
X8543991Y-17391508D02*
X8563039Y-17362936D01*
X8563039Y-17362936D02*
X8572563Y-17353412D01*
X8639230Y-17401031D02*
X8648753Y-17391508D01*
X8648753Y-17391508D02*
X8667801Y-17381984D01*
X8667801Y-17381984D02*
X8715420Y-17381984D01*
X8715420Y-17381984D02*
X8734468Y-17391508D01*
X8734468Y-17391508D02*
X8743991Y-17401031D01*
X8743991Y-17401031D02*
X8753515Y-17420079D01*
X8753515Y-17420079D02*
X8753515Y-17439127D01*
X8753515Y-17439127D02*
X8743991Y-17467698D01*
X8743991Y-17467698D02*
X8629706Y-17581984D01*
X8629706Y-17581984D02*
X8753515Y-17581984D01*
X8991611Y-17581984D02*
X8991611Y-17381984D01*
X9077325Y-17581984D02*
X9077325Y-17477222D01*
X9077325Y-17477222D02*
X9067801Y-17458174D01*
X9067801Y-17458174D02*
X9048753Y-17448650D01*
X9048753Y-17448650D02*
X9020182Y-17448650D01*
X9020182Y-17448650D02*
X9001134Y-17458174D01*
X9001134Y-17458174D02*
X8991611Y-17467698D01*
X9201134Y-17581984D02*
X9182087Y-17572460D01*
X9182087Y-17572460D02*
X9172563Y-17562936D01*
X9172563Y-17562936D02*
X9163039Y-17543889D01*
X9163039Y-17543889D02*
X9163039Y-17486746D01*
X9163039Y-17486746D02*
X9172563Y-17467698D01*
X9172563Y-17467698D02*
X9182087Y-17458174D01*
X9182087Y-17458174D02*
X9201134Y-17448650D01*
X9201134Y-17448650D02*
X9229706Y-17448650D01*
X9229706Y-17448650D02*
X9248753Y-17458174D01*
X9248753Y-17458174D02*
X9258277Y-17467698D01*
X9258277Y-17467698D02*
X9267801Y-17486746D01*
X9267801Y-17486746D02*
X9267801Y-17543889D01*
X9267801Y-17543889D02*
X9258277Y-17562936D01*
X9258277Y-17562936D02*
X9248753Y-17572460D01*
X9248753Y-17572460D02*
X9229706Y-17581984D01*
X9229706Y-17581984D02*
X9201134Y-17581984D01*
X9382087Y-17581984D02*
X9363039Y-17572460D01*
X9363039Y-17572460D02*
X9353515Y-17553412D01*
X9353515Y-17553412D02*
X9353515Y-17381984D01*
X9534468Y-17572460D02*
X9515420Y-17581984D01*
X9515420Y-17581984D02*
X9477325Y-17581984D01*
X9477325Y-17581984D02*
X9458277Y-17572460D01*
X9458277Y-17572460D02*
X9448753Y-17553412D01*
X9448753Y-17553412D02*
X9448753Y-17477222D01*
X9448753Y-17477222D02*
X9458277Y-17458174D01*
X9458277Y-17458174D02*
X9477325Y-17448650D01*
X9477325Y-17448650D02*
X9515420Y-17448650D01*
X9515420Y-17448650D02*
X9534468Y-17458174D01*
X9534468Y-17458174D02*
X9543992Y-17477222D01*
X9543992Y-17477222D02*
X9543992Y-17496270D01*
X9543992Y-17496270D02*
X9448753Y-17515317D01*
X9620182Y-17572460D02*
X9639230Y-17581984D01*
X9639230Y-17581984D02*
X9677325Y-17581984D01*
X9677325Y-17581984D02*
X9696373Y-17572460D01*
X9696373Y-17572460D02*
X9705896Y-17553412D01*
X9705896Y-17553412D02*
X9705896Y-17543889D01*
X9705896Y-17543889D02*
X9696373Y-17524841D01*
X9696373Y-17524841D02*
X9677325Y-17515317D01*
X9677325Y-17515317D02*
X9648753Y-17515317D01*
X9648753Y-17515317D02*
X9629706Y-17505793D01*
X9629706Y-17505793D02*
X9620182Y-17486746D01*
X9620182Y-17486746D02*
X9620182Y-17477222D01*
X9620182Y-17477222D02*
X9629706Y-17458174D01*
X9629706Y-17458174D02*
X9648753Y-17448650D01*
X9648753Y-17448650D02*
X9677325Y-17448650D01*
X9677325Y-17448650D02*
X9696373Y-17458174D01*
X9772563Y-17658174D02*
X9782087Y-17648650D01*
X9782087Y-17648650D02*
X9801134Y-17620079D01*
X9801134Y-17620079D02*
X9810658Y-17601031D01*
X9810658Y-17601031D02*
X9820182Y-17572460D01*
X9820182Y-17572460D02*
X9829706Y-17524841D01*
X9829706Y-17524841D02*
X9829706Y-17486746D01*
X9829706Y-17486746D02*
X9820182Y-17439127D01*
X9820182Y-17439127D02*
X9810658Y-17410555D01*
X9810658Y-17410555D02*
X9801134Y-17391508D01*
X9801134Y-17391508D02*
X9782087Y-17362936D01*
X9782087Y-17362936D02*
X9772563Y-17353412D01*
D15*
X4867500Y-17689500D02*
X4997500Y-17819500D01*
X4997500Y-17689500D02*
X4867500Y-17819500D01*
X4932500Y-17819500D02*
X4997500Y-17754500D01*
X4932500Y-17689500D01*
X4867500Y-17754500D01*
X4932500Y-17819500D01*
D11*
X5363039Y-17845984D02*
X5248753Y-17845984D01*
X5305896Y-17845984D02*
X5305896Y-17645984D01*
X5305896Y-17645984D02*
X5286848Y-17674555D01*
X5286848Y-17674555D02*
X5267801Y-17693603D01*
X5267801Y-17693603D02*
X5248753Y-17703127D01*
X5448753Y-17826936D02*
X5458277Y-17836460D01*
X5458277Y-17836460D02*
X5448753Y-17845984D01*
X5448753Y-17845984D02*
X5439229Y-17836460D01*
X5439229Y-17836460D02*
X5448753Y-17826936D01*
X5448753Y-17826936D02*
X5448753Y-17845984D01*
X5524944Y-17645984D02*
X5648753Y-17645984D01*
X5648753Y-17645984D02*
X5582086Y-17722174D01*
X5582086Y-17722174D02*
X5610658Y-17722174D01*
X5610658Y-17722174D02*
X5629705Y-17731698D01*
X5629705Y-17731698D02*
X5639229Y-17741222D01*
X5639229Y-17741222D02*
X5648753Y-17760270D01*
X5648753Y-17760270D02*
X5648753Y-17807889D01*
X5648753Y-17807889D02*
X5639229Y-17826936D01*
X5639229Y-17826936D02*
X5629705Y-17836460D01*
X5629705Y-17836460D02*
X5610658Y-17845984D01*
X5610658Y-17845984D02*
X5553515Y-17845984D01*
X5553515Y-17845984D02*
X5534467Y-17836460D01*
X5534467Y-17836460D02*
X5524944Y-17826936D01*
X5772562Y-17645984D02*
X5791610Y-17645984D01*
X5791610Y-17645984D02*
X5810658Y-17655508D01*
X5810658Y-17655508D02*
X5820182Y-17665031D01*
X5820182Y-17665031D02*
X5829705Y-17684079D01*
X5829705Y-17684079D02*
X5839229Y-17722174D01*
X5839229Y-17722174D02*
X5839229Y-17769793D01*
X5839229Y-17769793D02*
X5829705Y-17807889D01*
X5829705Y-17807889D02*
X5820182Y-17826936D01*
X5820182Y-17826936D02*
X5810658Y-17836460D01*
X5810658Y-17836460D02*
X5791610Y-17845984D01*
X5791610Y-17845984D02*
X5772562Y-17845984D01*
X5772562Y-17845984D02*
X5753515Y-17836460D01*
X5753515Y-17836460D02*
X5743991Y-17826936D01*
X5743991Y-17826936D02*
X5734467Y-17807889D01*
X5734467Y-17807889D02*
X5724943Y-17769793D01*
X5724943Y-17769793D02*
X5724943Y-17722174D01*
X5724943Y-17722174D02*
X5734467Y-17684079D01*
X5734467Y-17684079D02*
X5743991Y-17665031D01*
X5743991Y-17665031D02*
X5753515Y-17655508D01*
X5753515Y-17655508D02*
X5772562Y-17645984D01*
X5963039Y-17645984D02*
X5982086Y-17645984D01*
X5982086Y-17645984D02*
X6001134Y-17655508D01*
X6001134Y-17655508D02*
X6010658Y-17665031D01*
X6010658Y-17665031D02*
X6020182Y-17684079D01*
X6020182Y-17684079D02*
X6029705Y-17722174D01*
X6029705Y-17722174D02*
X6029705Y-17769793D01*
X6029705Y-17769793D02*
X6020182Y-17807889D01*
X6020182Y-17807889D02*
X6010658Y-17826936D01*
X6010658Y-17826936D02*
X6001134Y-17836460D01*
X6001134Y-17836460D02*
X5982086Y-17845984D01*
X5982086Y-17845984D02*
X5963039Y-17845984D01*
X5963039Y-17845984D02*
X5943991Y-17836460D01*
X5943991Y-17836460D02*
X5934467Y-17826936D01*
X5934467Y-17826936D02*
X5924943Y-17807889D01*
X5924943Y-17807889D02*
X5915420Y-17769793D01*
X5915420Y-17769793D02*
X5915420Y-17722174D01*
X5915420Y-17722174D02*
X5924943Y-17684079D01*
X5924943Y-17684079D02*
X5934467Y-17665031D01*
X5934467Y-17665031D02*
X5943991Y-17655508D01*
X5943991Y-17655508D02*
X5963039Y-17645984D01*
X6115420Y-17845984D02*
X6115420Y-17712650D01*
X6115420Y-17731698D02*
X6124943Y-17722174D01*
X6124943Y-17722174D02*
X6143991Y-17712650D01*
X6143991Y-17712650D02*
X6172563Y-17712650D01*
X6172563Y-17712650D02*
X6191610Y-17722174D01*
X6191610Y-17722174D02*
X6201134Y-17741222D01*
X6201134Y-17741222D02*
X6201134Y-17845984D01*
X6201134Y-17741222D02*
X6210658Y-17722174D01*
X6210658Y-17722174D02*
X6229705Y-17712650D01*
X6229705Y-17712650D02*
X6258277Y-17712650D01*
X6258277Y-17712650D02*
X6277324Y-17722174D01*
X6277324Y-17722174D02*
X6286848Y-17741222D01*
X6286848Y-17741222D02*
X6286848Y-17845984D01*
X6382086Y-17845984D02*
X6382086Y-17712650D01*
X6382086Y-17731698D02*
X6391610Y-17722174D01*
X6391610Y-17722174D02*
X6410658Y-17712650D01*
X6410658Y-17712650D02*
X6439229Y-17712650D01*
X6439229Y-17712650D02*
X6458277Y-17722174D01*
X6458277Y-17722174D02*
X6467801Y-17741222D01*
X6467801Y-17741222D02*
X6467801Y-17845984D01*
X6467801Y-17741222D02*
X6477324Y-17722174D01*
X6477324Y-17722174D02*
X6496372Y-17712650D01*
X6496372Y-17712650D02*
X6524943Y-17712650D01*
X6524943Y-17712650D02*
X6543991Y-17722174D01*
X6543991Y-17722174D02*
X6553515Y-17741222D01*
X6553515Y-17741222D02*
X6553515Y-17845984D01*
X6943991Y-17636460D02*
X6772563Y-17893603D01*
X7201134Y-17645984D02*
X7220182Y-17645984D01*
X7220182Y-17645984D02*
X7239229Y-17655508D01*
X7239229Y-17655508D02*
X7248753Y-17665031D01*
X7248753Y-17665031D02*
X7258277Y-17684079D01*
X7258277Y-17684079D02*
X7267801Y-17722174D01*
X7267801Y-17722174D02*
X7267801Y-17769793D01*
X7267801Y-17769793D02*
X7258277Y-17807889D01*
X7258277Y-17807889D02*
X7248753Y-17826936D01*
X7248753Y-17826936D02*
X7239229Y-17836460D01*
X7239229Y-17836460D02*
X7220182Y-17845984D01*
X7220182Y-17845984D02*
X7201134Y-17845984D01*
X7201134Y-17845984D02*
X7182086Y-17836460D01*
X7182086Y-17836460D02*
X7172563Y-17826936D01*
X7172563Y-17826936D02*
X7163039Y-17807889D01*
X7163039Y-17807889D02*
X7153515Y-17769793D01*
X7153515Y-17769793D02*
X7153515Y-17722174D01*
X7153515Y-17722174D02*
X7163039Y-17684079D01*
X7163039Y-17684079D02*
X7172563Y-17665031D01*
X7172563Y-17665031D02*
X7182086Y-17655508D01*
X7182086Y-17655508D02*
X7201134Y-17645984D01*
X7353515Y-17826936D02*
X7363039Y-17836460D01*
X7363039Y-17836460D02*
X7353515Y-17845984D01*
X7353515Y-17845984D02*
X7343991Y-17836460D01*
X7343991Y-17836460D02*
X7353515Y-17826936D01*
X7353515Y-17826936D02*
X7353515Y-17845984D01*
X7486848Y-17645984D02*
X7505896Y-17645984D01*
X7505896Y-17645984D02*
X7524944Y-17655508D01*
X7524944Y-17655508D02*
X7534467Y-17665031D01*
X7534467Y-17665031D02*
X7543991Y-17684079D01*
X7543991Y-17684079D02*
X7553515Y-17722174D01*
X7553515Y-17722174D02*
X7553515Y-17769793D01*
X7553515Y-17769793D02*
X7543991Y-17807889D01*
X7543991Y-17807889D02*
X7534467Y-17826936D01*
X7534467Y-17826936D02*
X7524944Y-17836460D01*
X7524944Y-17836460D02*
X7505896Y-17845984D01*
X7505896Y-17845984D02*
X7486848Y-17845984D01*
X7486848Y-17845984D02*
X7467801Y-17836460D01*
X7467801Y-17836460D02*
X7458277Y-17826936D01*
X7458277Y-17826936D02*
X7448753Y-17807889D01*
X7448753Y-17807889D02*
X7439229Y-17769793D01*
X7439229Y-17769793D02*
X7439229Y-17722174D01*
X7439229Y-17722174D02*
X7448753Y-17684079D01*
X7448753Y-17684079D02*
X7458277Y-17665031D01*
X7458277Y-17665031D02*
X7467801Y-17655508D01*
X7467801Y-17655508D02*
X7486848Y-17645984D01*
X7734467Y-17645984D02*
X7639229Y-17645984D01*
X7639229Y-17645984D02*
X7629706Y-17741222D01*
X7629706Y-17741222D02*
X7639229Y-17731698D01*
X7639229Y-17731698D02*
X7658277Y-17722174D01*
X7658277Y-17722174D02*
X7705896Y-17722174D01*
X7705896Y-17722174D02*
X7724944Y-17731698D01*
X7724944Y-17731698D02*
X7734467Y-17741222D01*
X7734467Y-17741222D02*
X7743991Y-17760270D01*
X7743991Y-17760270D02*
X7743991Y-17807889D01*
X7743991Y-17807889D02*
X7734467Y-17826936D01*
X7734467Y-17826936D02*
X7724944Y-17836460D01*
X7724944Y-17836460D02*
X7705896Y-17845984D01*
X7705896Y-17845984D02*
X7658277Y-17845984D01*
X7658277Y-17845984D02*
X7639229Y-17836460D01*
X7639229Y-17836460D02*
X7629706Y-17826936D01*
X7934467Y-17845984D02*
X7820182Y-17845984D01*
X7877325Y-17845984D02*
X7877325Y-17645984D01*
X7877325Y-17645984D02*
X7858277Y-17674555D01*
X7858277Y-17674555D02*
X7839229Y-17693603D01*
X7839229Y-17693603D02*
X7820182Y-17703127D01*
X8010658Y-17665031D02*
X8020182Y-17655508D01*
X8020182Y-17655508D02*
X8039229Y-17645984D01*
X8039229Y-17645984D02*
X8086848Y-17645984D01*
X8086848Y-17645984D02*
X8105896Y-17655508D01*
X8105896Y-17655508D02*
X8115420Y-17665031D01*
X8115420Y-17665031D02*
X8124944Y-17684079D01*
X8124944Y-17684079D02*
X8124944Y-17703127D01*
X8124944Y-17703127D02*
X8115420Y-17731698D01*
X8115420Y-17731698D02*
X8001134Y-17845984D01*
X8001134Y-17845984D02*
X8124944Y-17845984D01*
X8201134Y-17645984D02*
X8201134Y-17684079D01*
X8277325Y-17645984D02*
X8277325Y-17684079D01*
X8572563Y-17922174D02*
X8563039Y-17912650D01*
X8563039Y-17912650D02*
X8543991Y-17884079D01*
X8543991Y-17884079D02*
X8534468Y-17865031D01*
X8534468Y-17865031D02*
X8524944Y-17836460D01*
X8524944Y-17836460D02*
X8515420Y-17788841D01*
X8515420Y-17788841D02*
X8515420Y-17750746D01*
X8515420Y-17750746D02*
X8524944Y-17703127D01*
X8524944Y-17703127D02*
X8534468Y-17674555D01*
X8534468Y-17674555D02*
X8543991Y-17655508D01*
X8543991Y-17655508D02*
X8563039Y-17626936D01*
X8563039Y-17626936D02*
X8572563Y-17617412D01*
X8629706Y-17645984D02*
X8763039Y-17645984D01*
X8763039Y-17645984D02*
X8677325Y-17845984D01*
X8991611Y-17845984D02*
X8991611Y-17645984D01*
X9077325Y-17845984D02*
X9077325Y-17741222D01*
X9077325Y-17741222D02*
X9067801Y-17722174D01*
X9067801Y-17722174D02*
X9048753Y-17712650D01*
X9048753Y-17712650D02*
X9020182Y-17712650D01*
X9020182Y-17712650D02*
X9001134Y-17722174D01*
X9001134Y-17722174D02*
X8991611Y-17731698D01*
X9201134Y-17845984D02*
X9182087Y-17836460D01*
X9182087Y-17836460D02*
X9172563Y-17826936D01*
X9172563Y-17826936D02*
X9163039Y-17807889D01*
X9163039Y-17807889D02*
X9163039Y-17750746D01*
X9163039Y-17750746D02*
X9172563Y-17731698D01*
X9172563Y-17731698D02*
X9182087Y-17722174D01*
X9182087Y-17722174D02*
X9201134Y-17712650D01*
X9201134Y-17712650D02*
X9229706Y-17712650D01*
X9229706Y-17712650D02*
X9248753Y-17722174D01*
X9248753Y-17722174D02*
X9258277Y-17731698D01*
X9258277Y-17731698D02*
X9267801Y-17750746D01*
X9267801Y-17750746D02*
X9267801Y-17807889D01*
X9267801Y-17807889D02*
X9258277Y-17826936D01*
X9258277Y-17826936D02*
X9248753Y-17836460D01*
X9248753Y-17836460D02*
X9229706Y-17845984D01*
X9229706Y-17845984D02*
X9201134Y-17845984D01*
X9382087Y-17845984D02*
X9363039Y-17836460D01*
X9363039Y-17836460D02*
X9353515Y-17817412D01*
X9353515Y-17817412D02*
X9353515Y-17645984D01*
X9534468Y-17836460D02*
X9515420Y-17845984D01*
X9515420Y-17845984D02*
X9477325Y-17845984D01*
X9477325Y-17845984D02*
X9458277Y-17836460D01*
X9458277Y-17836460D02*
X9448753Y-17817412D01*
X9448753Y-17817412D02*
X9448753Y-17741222D01*
X9448753Y-17741222D02*
X9458277Y-17722174D01*
X9458277Y-17722174D02*
X9477325Y-17712650D01*
X9477325Y-17712650D02*
X9515420Y-17712650D01*
X9515420Y-17712650D02*
X9534468Y-17722174D01*
X9534468Y-17722174D02*
X9543992Y-17741222D01*
X9543992Y-17741222D02*
X9543992Y-17760270D01*
X9543992Y-17760270D02*
X9448753Y-17779317D01*
X9620182Y-17836460D02*
X9639230Y-17845984D01*
X9639230Y-17845984D02*
X9677325Y-17845984D01*
X9677325Y-17845984D02*
X9696373Y-17836460D01*
X9696373Y-17836460D02*
X9705896Y-17817412D01*
X9705896Y-17817412D02*
X9705896Y-17807889D01*
X9705896Y-17807889D02*
X9696373Y-17788841D01*
X9696373Y-17788841D02*
X9677325Y-17779317D01*
X9677325Y-17779317D02*
X9648753Y-17779317D01*
X9648753Y-17779317D02*
X9629706Y-17769793D01*
X9629706Y-17769793D02*
X9620182Y-17750746D01*
X9620182Y-17750746D02*
X9620182Y-17741222D01*
X9620182Y-17741222D02*
X9629706Y-17722174D01*
X9629706Y-17722174D02*
X9648753Y-17712650D01*
X9648753Y-17712650D02*
X9677325Y-17712650D01*
X9677325Y-17712650D02*
X9696373Y-17722174D01*
X9772563Y-17922174D02*
X9782087Y-17912650D01*
X9782087Y-17912650D02*
X9801134Y-17884079D01*
X9801134Y-17884079D02*
X9810658Y-17865031D01*
X9810658Y-17865031D02*
X9820182Y-17836460D01*
X9820182Y-17836460D02*
X9829706Y-17788841D01*
X9829706Y-17788841D02*
X9829706Y-17750746D01*
X9829706Y-17750746D02*
X9820182Y-17703127D01*
X9820182Y-17703127D02*
X9810658Y-17674555D01*
X9810658Y-17674555D02*
X9801134Y-17655508D01*
X9801134Y-17655508D02*
X9782087Y-17626936D01*
X9782087Y-17626936D02*
X9772563Y-17617412D01*
M02*
