G04 #@! TF.GenerationSoftware,KiCad,Pcbnew,8.0.6*
G04 #@! TF.CreationDate,2024-12-03T19:12:37+01:00*
G04 #@! TF.ProjectId,HomeAutomationESP32C2mini_2024,486f6d65-4175-4746-9f6d-6174696f6e45,Rev A*
G04 #@! TF.SameCoordinates,Original*
G04 #@! TF.FileFunction,Profile,NP*
%FSLAX46Y46*%
G04 Gerber Fmt 4.6, Leading zero omitted, Abs format (unit mm)*
G04 Created by KiCad (PCBNEW 8.0.6) date 2024-12-03 19:12:37*
%MOMM*%
%LPD*%
G01*
G04 APERTURE LIST*
G04 #@! TA.AperFunction,Profile*
%ADD10C,0.050000*%
G04 #@! TD*
G04 APERTURE END LIST*
D10*
X84750000Y-137000000D02*
X88000000Y-137000000D01*
X150000000Y-50000000D02*
X50000000Y-50000000D01*
X96000000Y-82250000D02*
X96000000Y-83750000D01*
X63750000Y-112300000D02*
X57200000Y-112300000D01*
X68750000Y-83750000D02*
X68750000Y-82250000D01*
X62500000Y-113300000D02*
X62500000Y-119200000D01*
X57200000Y-112300000D02*
X57200000Y-120000000D01*
X94750000Y-63000000D02*
X94750000Y-82250000D01*
X111500000Y-83445000D02*
X145250000Y-83445000D01*
X62500000Y-119200000D02*
X63750000Y-119200000D01*
X110000000Y-63000000D02*
X111250000Y-63000000D01*
X57200000Y-120000000D02*
X58500000Y-120000000D01*
X111500000Y-96195000D02*
X111500000Y-83445000D01*
X50000000Y-50000000D02*
X50000000Y-150000000D01*
X95750000Y-139000000D02*
X95750000Y-92750000D01*
X96000000Y-82250000D02*
X96000000Y-63000000D01*
X97250000Y-92750000D02*
X97250000Y-139000000D01*
X75500000Y-135750000D02*
X75500000Y-137000000D01*
X63750000Y-119200000D02*
X63750000Y-112300000D01*
X111750000Y-81945000D02*
X110000000Y-81945000D01*
X83750000Y-137000000D02*
X83750000Y-147000000D01*
X110000000Y-96195000D02*
X111500000Y-96195000D01*
X145250000Y-81945000D02*
X111750000Y-81945000D01*
X68750000Y-82250000D02*
X94750000Y-82250000D01*
X96000000Y-83750000D02*
X68750000Y-83750000D01*
X75500000Y-137000000D02*
X83750000Y-137000000D01*
X95750000Y-92750000D02*
X97250000Y-92750000D01*
X83750000Y-147000000D02*
X84750000Y-147000000D01*
X111250000Y-79250000D02*
X110000000Y-79250000D01*
X88000000Y-137000000D02*
X88000000Y-135750000D01*
X145250000Y-83445000D02*
X145250000Y-81945000D01*
X150000000Y-150000000D02*
X150000000Y-50000000D01*
X111250000Y-63000000D02*
X111250000Y-79250000D01*
X58500000Y-113300000D02*
X62500000Y-113300000D01*
X110000000Y-79250000D02*
X110000000Y-63000000D01*
X97250000Y-139000000D02*
X95750000Y-139000000D01*
X84750000Y-147000000D02*
X84750000Y-137000000D01*
X58500000Y-120000000D02*
X58500000Y-113300000D01*
X50000000Y-150000000D02*
X150000000Y-150000000D01*
X88000000Y-135750000D02*
X75500000Y-135750000D01*
X96000000Y-63000000D02*
X94750000Y-63000000D01*
X110000000Y-81945000D02*
X110000000Y-96195000D01*
M02*
