G04 #@! TF.GenerationSoftware,KiCad,Pcbnew,8.0.6*
G04 #@! TF.CreationDate,2024-12-03T19:12:37+01:00*
G04 #@! TF.ProjectId,HomeAutomationESP32C2mini_2024,486f6d65-4175-4746-9f6d-6174696f6e45,Rev A*
G04 #@! TF.SameCoordinates,Original*
G04 #@! TF.FileFunction,Paste,Top*
G04 #@! TF.FilePolarity,Positive*
%FSLAX46Y46*%
G04 Gerber Fmt 4.6, Leading zero omitted, Abs format (unit mm)*
G04 Created by KiCad (PCBNEW 8.0.6) date 2024-12-03 19:12:37*
%MOMM*%
%LPD*%
G01*
G04 APERTURE LIST*
G04 Aperture macros list*
%AMRoundRect*
0 Rectangle with rounded corners*
0 $1 Rounding radius*
0 $2 $3 $4 $5 $6 $7 $8 $9 X,Y pos of 4 corners*
0 Add a 4 corners polygon primitive as box body*
4,1,4,$2,$3,$4,$5,$6,$7,$8,$9,$2,$3,0*
0 Add four circle primitives for the rounded corners*
1,1,$1+$1,$2,$3*
1,1,$1+$1,$4,$5*
1,1,$1+$1,$6,$7*
1,1,$1+$1,$8,$9*
0 Add four rect primitives between the rounded corners*
20,1,$1+$1,$2,$3,$4,$5,0*
20,1,$1+$1,$4,$5,$6,$7,0*
20,1,$1+$1,$6,$7,$8,$9,0*
20,1,$1+$1,$8,$9,$2,$3,0*%
G04 Aperture macros list end*
%ADD10RoundRect,0.250000X0.262500X0.450000X-0.262500X0.450000X-0.262500X-0.450000X0.262500X-0.450000X0*%
%ADD11RoundRect,0.250000X-0.262500X-0.450000X0.262500X-0.450000X0.262500X0.450000X-0.262500X0.450000X0*%
%ADD12RoundRect,0.250000X0.450000X-0.262500X0.450000X0.262500X-0.450000X0.262500X-0.450000X-0.262500X0*%
%ADD13RoundRect,0.250000X-0.450000X0.262500X-0.450000X-0.262500X0.450000X-0.262500X0.450000X0.262500X0*%
%ADD14RoundRect,0.250000X-0.250000X-0.475000X0.250000X-0.475000X0.250000X0.475000X-0.250000X0.475000X0*%
%ADD15RoundRect,0.250000X0.250000X0.475000X-0.250000X0.475000X-0.250000X-0.475000X0.250000X-0.475000X0*%
%ADD16RoundRect,0.250000X0.475000X-0.250000X0.475000X0.250000X-0.475000X0.250000X-0.475000X-0.250000X0*%
%ADD17RoundRect,0.250000X-0.475000X0.250000X-0.475000X-0.250000X0.475000X-0.250000X0.475000X0.250000X0*%
G04 APERTURE END LIST*
D10*
X62270000Y-63555000D03*
X60445000Y-63555000D03*
D11*
X131175000Y-70000000D03*
X133000000Y-70000000D03*
X100175000Y-54000000D03*
X102000000Y-54000000D03*
D10*
X107000000Y-51300000D03*
X105175000Y-51300000D03*
D12*
X51300000Y-79912500D03*
X51300000Y-78087500D03*
X104000000Y-133825000D03*
X104000000Y-132000000D03*
D13*
X136500000Y-103370000D03*
X136500000Y-105195000D03*
D11*
X100175000Y-57000000D03*
X102000000Y-57000000D03*
D12*
X97250000Y-80825000D03*
X97250000Y-79000000D03*
D10*
X62270000Y-60555000D03*
X60445000Y-60555000D03*
D12*
X101250000Y-80825000D03*
X101250000Y-79000000D03*
D11*
X133185000Y-127750000D03*
X135010000Y-127750000D03*
D10*
X62575000Y-104750000D03*
X60750000Y-104750000D03*
D11*
X76250000Y-91800000D03*
X78075000Y-91800000D03*
D10*
X107000000Y-57000000D03*
X105175000Y-57000000D03*
D13*
X140000000Y-51175000D03*
X140000000Y-53000000D03*
D12*
X99300000Y-80825000D03*
X99300000Y-79000000D03*
D13*
X133550000Y-103370000D03*
X133550000Y-105195000D03*
D14*
X51100000Y-95000000D03*
X53000000Y-95000000D03*
D15*
X121000000Y-108195000D03*
X119100000Y-108195000D03*
D12*
X80945000Y-62555000D03*
X80945000Y-60730000D03*
D11*
X76175000Y-88550000D03*
X78000000Y-88550000D03*
D16*
X80945000Y-65955000D03*
X80945000Y-64055000D03*
D12*
X140000000Y-60825000D03*
X140000000Y-59000000D03*
X102000000Y-125825000D03*
X102000000Y-124000000D03*
X105750000Y-80825000D03*
X105750000Y-79000000D03*
X132000000Y-57000000D03*
X132000000Y-55175000D03*
X72945000Y-62555000D03*
X72945000Y-60730000D03*
X107800000Y-80825000D03*
X107800000Y-79000000D03*
D16*
X140000000Y-56900000D03*
X140000000Y-55000000D03*
D11*
X122675000Y-90195000D03*
X124500000Y-90195000D03*
D10*
X132162500Y-137000000D03*
X130337500Y-137000000D03*
D17*
X136750000Y-144500000D03*
X136750000Y-146400000D03*
D10*
X131585000Y-127750000D03*
X129760000Y-127750000D03*
D13*
X78250000Y-101675000D03*
X78250000Y-103500000D03*
D10*
X107000000Y-54000000D03*
X105175000Y-54000000D03*
D11*
X137175000Y-70000000D03*
X139000000Y-70000000D03*
D10*
X62500000Y-100000000D03*
X60675000Y-100000000D03*
D11*
X100175000Y-51300000D03*
X102000000Y-51300000D03*
D10*
X125000000Y-74000000D03*
X123175000Y-74000000D03*
X129912500Y-103695000D03*
X128087500Y-103695000D03*
D13*
X117000000Y-140175000D03*
X117000000Y-142000000D03*
D11*
X122675000Y-103695000D03*
X124500000Y-103695000D03*
D16*
X104000000Y-125900000D03*
X104000000Y-124000000D03*
D10*
X137500000Y-142500000D03*
X135675000Y-142500000D03*
D13*
X72945000Y-64230000D03*
X72945000Y-66055000D03*
D12*
X106000000Y-125825000D03*
X106000000Y-124000000D03*
D10*
X124500000Y-97195000D03*
X122675000Y-97195000D03*
D12*
X103800000Y-80825000D03*
X103800000Y-79000000D03*
D11*
X128587500Y-142750000D03*
X130412500Y-142750000D03*
M02*
