G04 #@! TF.GenerationSoftware,KiCad,Pcbnew,8.0.6*
G04 #@! TF.CreationDate,2024-12-03T19:12:37+01:00*
G04 #@! TF.ProjectId,HomeAutomationESP32C2mini_2024,486f6d65-4175-4746-9f6d-6174696f6e45,Rev A*
G04 #@! TF.SameCoordinates,Original*
G04 #@! TF.FileFunction,Copper,L1,Top*
G04 #@! TF.FilePolarity,Positive*
%FSLAX46Y46*%
G04 Gerber Fmt 4.6, Leading zero omitted, Abs format (unit mm)*
G04 Created by KiCad (PCBNEW 8.0.6) date 2024-12-03 19:12:37*
%MOMM*%
%LPD*%
G01*
G04 APERTURE LIST*
G04 Aperture macros list*
%AMRoundRect*
0 Rectangle with rounded corners*
0 $1 Rounding radius*
0 $2 $3 $4 $5 $6 $7 $8 $9 X,Y pos of 4 corners*
0 Add a 4 corners polygon primitive as box body*
4,1,4,$2,$3,$4,$5,$6,$7,$8,$9,$2,$3,0*
0 Add four circle primitives for the rounded corners*
1,1,$1+$1,$2,$3*
1,1,$1+$1,$4,$5*
1,1,$1+$1,$6,$7*
1,1,$1+$1,$8,$9*
0 Add four rect primitives between the rounded corners*
20,1,$1+$1,$2,$3,$4,$5,0*
20,1,$1+$1,$4,$5,$6,$7,0*
20,1,$1+$1,$6,$7,$8,$9,0*
20,1,$1+$1,$8,$9,$2,$3,0*%
%AMFreePoly0*
4,1,19,0.550000,-0.750000,0.000000,-0.750000,0.000000,-0.744911,-0.071157,-0.744911,-0.207708,-0.704816,-0.327430,-0.627875,-0.420627,-0.520320,-0.479746,-0.390866,-0.500000,-0.250000,-0.500000,0.250000,-0.479746,0.390866,-0.420627,0.520320,-0.327430,0.627875,-0.207708,0.704816,-0.071157,0.744911,0.000000,0.744911,0.000000,0.750000,0.550000,0.750000,0.550000,-0.750000,0.550000,-0.750000,
$1*%
%AMFreePoly1*
4,1,19,0.000000,0.744911,0.071157,0.744911,0.207708,0.704816,0.327430,0.627875,0.420627,0.520320,0.479746,0.390866,0.500000,0.250000,0.500000,-0.250000,0.479746,-0.390866,0.420627,-0.520320,0.327430,-0.627875,0.207708,-0.704816,0.071157,-0.744911,0.000000,-0.744911,0.000000,-0.750000,-0.550000,-0.750000,-0.550000,0.750000,0.000000,0.750000,0.000000,0.744911,0.000000,0.744911,
$1*%
G04 Aperture macros list end*
G04 #@! TA.AperFunction,EtchedComponent*
%ADD10C,0.000000*%
G04 #@! TD*
G04 #@! TA.AperFunction,SMDPad,CuDef*
%ADD11RoundRect,0.250000X0.262500X0.450000X-0.262500X0.450000X-0.262500X-0.450000X0.262500X-0.450000X0*%
G04 #@! TD*
G04 #@! TA.AperFunction,SMDPad,CuDef*
%ADD12RoundRect,0.250000X-0.262500X-0.450000X0.262500X-0.450000X0.262500X0.450000X-0.262500X0.450000X0*%
G04 #@! TD*
G04 #@! TA.AperFunction,ComponentPad*
%ADD13R,1.050000X1.500000*%
G04 #@! TD*
G04 #@! TA.AperFunction,ComponentPad*
%ADD14O,1.050000X1.500000*%
G04 #@! TD*
G04 #@! TA.AperFunction,ComponentPad*
%ADD15O,1.727200X2.032000*%
G04 #@! TD*
G04 #@! TA.AperFunction,SMDPad,CuDef*
%ADD16RoundRect,0.250000X0.450000X-0.262500X0.450000X0.262500X-0.450000X0.262500X-0.450000X-0.262500X0*%
G04 #@! TD*
G04 #@! TA.AperFunction,ComponentPad*
%ADD17O,2.000000X1.200000*%
G04 #@! TD*
G04 #@! TA.AperFunction,SMDPad,CuDef*
%ADD18RoundRect,0.250000X-0.450000X0.262500X-0.450000X-0.262500X0.450000X-0.262500X0.450000X0.262500X0*%
G04 #@! TD*
G04 #@! TA.AperFunction,ComponentPad*
%ADD19R,1.700000X1.700000*%
G04 #@! TD*
G04 #@! TA.AperFunction,ComponentPad*
%ADD20O,1.700000X1.700000*%
G04 #@! TD*
G04 #@! TA.AperFunction,ComponentPad*
%ADD21O,2.032000X1.727200*%
G04 #@! TD*
G04 #@! TA.AperFunction,SMDPad,CuDef*
%ADD22FreePoly0,0.000000*%
G04 #@! TD*
G04 #@! TA.AperFunction,SMDPad,CuDef*
%ADD23R,1.000000X1.500000*%
G04 #@! TD*
G04 #@! TA.AperFunction,SMDPad,CuDef*
%ADD24FreePoly1,0.000000*%
G04 #@! TD*
G04 #@! TA.AperFunction,ComponentPad*
%ADD25R,1.500000X1.050000*%
G04 #@! TD*
G04 #@! TA.AperFunction,ComponentPad*
%ADD26O,1.500000X1.050000*%
G04 #@! TD*
G04 #@! TA.AperFunction,ComponentPad*
%ADD27R,1.800000X1.800000*%
G04 #@! TD*
G04 #@! TA.AperFunction,ComponentPad*
%ADD28C,1.800000*%
G04 #@! TD*
G04 #@! TA.AperFunction,SMDPad,CuDef*
%ADD29FreePoly0,270.000000*%
G04 #@! TD*
G04 #@! TA.AperFunction,SMDPad,CuDef*
%ADD30R,1.500000X1.000000*%
G04 #@! TD*
G04 #@! TA.AperFunction,SMDPad,CuDef*
%ADD31FreePoly1,270.000000*%
G04 #@! TD*
G04 #@! TA.AperFunction,SMDPad,CuDef*
%ADD32RoundRect,0.250000X-0.250000X-0.475000X0.250000X-0.475000X0.250000X0.475000X-0.250000X0.475000X0*%
G04 #@! TD*
G04 #@! TA.AperFunction,ComponentPad*
%ADD33R,2.600000X2.600000*%
G04 #@! TD*
G04 #@! TA.AperFunction,ComponentPad*
%ADD34C,2.600000*%
G04 #@! TD*
G04 #@! TA.AperFunction,SMDPad,CuDef*
%ADD35RoundRect,0.250000X0.250000X0.475000X-0.250000X0.475000X-0.250000X-0.475000X0.250000X-0.475000X0*%
G04 #@! TD*
G04 #@! TA.AperFunction,ComponentPad*
%ADD36R,1.800000X1.100000*%
G04 #@! TD*
G04 #@! TA.AperFunction,ComponentPad*
%ADD37RoundRect,0.275000X-0.625000X0.275000X-0.625000X-0.275000X0.625000X-0.275000X0.625000X0.275000X0*%
G04 #@! TD*
G04 #@! TA.AperFunction,ComponentPad*
%ADD38R,2.000000X2.000000*%
G04 #@! TD*
G04 #@! TA.AperFunction,ComponentPad*
%ADD39O,1.600000X2.000000*%
G04 #@! TD*
G04 #@! TA.AperFunction,ComponentPad*
%ADD40R,1.500000X1.500000*%
G04 #@! TD*
G04 #@! TA.AperFunction,ComponentPad*
%ADD41C,1.500000*%
G04 #@! TD*
G04 #@! TA.AperFunction,ComponentPad*
%ADD42O,1.200000X2.000000*%
G04 #@! TD*
G04 #@! TA.AperFunction,SMDPad,CuDef*
%ADD43RoundRect,0.250000X0.475000X-0.250000X0.475000X0.250000X-0.475000X0.250000X-0.475000X-0.250000X0*%
G04 #@! TD*
G04 #@! TA.AperFunction,ComponentPad*
%ADD44R,2.000000X1.700000*%
G04 #@! TD*
G04 #@! TA.AperFunction,ComponentPad*
%ADD45O,2.000000X1.700000*%
G04 #@! TD*
G04 #@! TA.AperFunction,ComponentPad*
%ADD46R,2.200000X2.200000*%
G04 #@! TD*
G04 #@! TA.AperFunction,ComponentPad*
%ADD47O,2.200000X2.200000*%
G04 #@! TD*
G04 #@! TA.AperFunction,SMDPad,CuDef*
%ADD48RoundRect,0.250000X-0.475000X0.250000X-0.475000X-0.250000X0.475000X-0.250000X0.475000X0.250000X0*%
G04 #@! TD*
G04 #@! TA.AperFunction,ComponentPad*
%ADD49C,2.500000*%
G04 #@! TD*
G04 #@! TA.AperFunction,ComponentPad*
%ADD50C,3.000000*%
G04 #@! TD*
G04 #@! TA.AperFunction,ComponentPad*
%ADD51C,1.600000*%
G04 #@! TD*
G04 #@! TA.AperFunction,ViaPad*
%ADD52C,0.600000*%
G04 #@! TD*
G04 #@! TA.AperFunction,Conductor*
%ADD53C,0.200000*%
G04 #@! TD*
G04 #@! TA.AperFunction,Conductor*
%ADD54C,0.300000*%
G04 #@! TD*
G04 APERTURE END LIST*
D10*
G04 #@! TA.AperFunction,EtchedComponent*
G36*
X92350000Y-111550000D02*
G01*
X91850000Y-111550000D01*
X91850000Y-110950000D01*
X92350000Y-110950000D01*
X92350000Y-111550000D01*
G37*
G04 #@! TD.AperFunction*
G04 #@! TA.AperFunction,EtchedComponent*
G36*
X74800000Y-102150000D02*
G01*
X74200000Y-102150000D01*
X74200000Y-101650000D01*
X74800000Y-101650000D01*
X74800000Y-102150000D01*
G37*
G04 #@! TD.AperFunction*
D11*
X62270000Y-63555000D03*
X60445000Y-63555000D03*
D12*
X131175000Y-70000000D03*
X133000000Y-70000000D03*
D13*
X118540000Y-69000000D03*
D14*
X117270000Y-69000000D03*
X116000000Y-69000000D03*
D12*
X100175000Y-54000000D03*
X102000000Y-54000000D03*
D11*
X107000000Y-51300000D03*
X105175000Y-51300000D03*
D15*
X116730000Y-111695000D03*
X119270000Y-111695000D03*
X121810000Y-111695000D03*
X102920000Y-141000000D03*
X105460000Y-141000000D03*
X108000000Y-141000000D03*
D16*
X51300000Y-79912500D03*
X51300000Y-78087500D03*
X104000000Y-133825000D03*
X104000000Y-132000000D03*
D17*
X69380000Y-61110000D03*
X69380000Y-63650000D03*
X69380000Y-66190000D03*
X69380000Y-68730000D03*
X69380000Y-71270000D03*
X69380000Y-73810000D03*
X69380000Y-76350000D03*
X69380000Y-78890000D03*
X84620000Y-78890000D03*
X84620000Y-76350000D03*
X84620000Y-73810000D03*
X84620000Y-71270000D03*
X84620000Y-68730000D03*
X84620000Y-66190000D03*
X84620000Y-63650000D03*
X84620000Y-61110000D03*
D18*
X136500000Y-103370000D03*
X136500000Y-105195000D03*
D17*
X128432500Y-52285000D03*
X128432500Y-54825000D03*
X128432500Y-57365000D03*
X128432500Y-59905000D03*
X128432500Y-62445000D03*
X128432500Y-64985000D03*
X128432500Y-67525000D03*
X128432500Y-70065000D03*
X143672500Y-70065000D03*
X143672500Y-67525000D03*
X143672500Y-64985000D03*
X143672500Y-62445000D03*
X143672500Y-59905000D03*
X143672500Y-57365000D03*
X143672500Y-54825000D03*
X143672500Y-52285000D03*
D19*
X148000000Y-52000000D03*
D20*
X148000000Y-54540000D03*
X148000000Y-57080000D03*
X148000000Y-59620000D03*
X148000000Y-62160000D03*
X148000000Y-64700000D03*
X148000000Y-67240000D03*
X148000000Y-69780000D03*
D21*
X85000000Y-52460000D03*
X85000000Y-55000000D03*
X85000000Y-57540000D03*
D22*
X91450000Y-111250000D03*
D23*
X92750000Y-111250000D03*
D24*
X94050000Y-111250000D03*
D17*
X71260000Y-87310000D03*
X71260000Y-89850000D03*
X71260000Y-92390000D03*
X71260000Y-94930000D03*
X71260000Y-97470000D03*
X71260000Y-100010000D03*
X71260000Y-102550000D03*
X71260000Y-105090000D03*
X86500000Y-105090000D03*
X86500000Y-102550000D03*
X86500000Y-100010000D03*
X86500000Y-97470000D03*
X86500000Y-94930000D03*
X86500000Y-92390000D03*
X86500000Y-89850000D03*
X86500000Y-87310000D03*
D12*
X100175000Y-57000000D03*
X102000000Y-57000000D03*
D16*
X97250000Y-80825000D03*
X97250000Y-79000000D03*
D25*
X51930000Y-90820000D03*
D26*
X51930000Y-89550000D03*
X51930000Y-88280000D03*
D11*
X62270000Y-60555000D03*
X60445000Y-60555000D03*
D16*
X101250000Y-80825000D03*
X101250000Y-79000000D03*
D12*
X133185000Y-127750000D03*
X135010000Y-127750000D03*
D27*
X125540000Y-79000000D03*
D28*
X123000000Y-79000000D03*
D21*
X61000000Y-74000000D03*
X61000000Y-71460000D03*
X61000000Y-68920000D03*
D15*
X75670000Y-52250000D03*
X78210000Y-52250000D03*
X80750000Y-52250000D03*
D27*
X53750000Y-99210000D03*
D28*
X53750000Y-101750000D03*
D27*
X126500000Y-136975000D03*
D28*
X126500000Y-139515000D03*
D21*
X59500000Y-87410000D03*
X59500000Y-89950000D03*
X59500000Y-92490000D03*
D15*
X114920000Y-62000000D03*
X117460000Y-62000000D03*
X120000000Y-62000000D03*
D11*
X62575000Y-104750000D03*
X60750000Y-104750000D03*
D21*
X70000000Y-52460000D03*
X70000000Y-55000000D03*
X70000000Y-57540000D03*
D12*
X76250000Y-91800000D03*
X78075000Y-91800000D03*
D11*
X107000000Y-57000000D03*
X105175000Y-57000000D03*
D19*
X130030000Y-121250000D03*
D20*
X132570000Y-121250000D03*
X135110000Y-121250000D03*
X137650000Y-121250000D03*
X140190000Y-121250000D03*
X142730000Y-121250000D03*
X145270000Y-121250000D03*
X147810000Y-121250000D03*
D18*
X140000000Y-51175000D03*
X140000000Y-53000000D03*
D29*
X74500000Y-101250000D03*
D30*
X74500000Y-102550000D03*
D31*
X74500000Y-103850000D03*
D16*
X99300000Y-80825000D03*
X99300000Y-79000000D03*
D27*
X53000000Y-68460000D03*
D28*
X53000000Y-71000000D03*
D18*
X133550000Y-103370000D03*
X133550000Y-105195000D03*
D19*
X92500000Y-61315000D03*
D20*
X92500000Y-63855000D03*
X92500000Y-66395000D03*
X92500000Y-68935000D03*
X92500000Y-71475000D03*
X92500000Y-74015000D03*
X92500000Y-76555000D03*
X92500000Y-79095000D03*
D32*
X51100000Y-95000000D03*
X53000000Y-95000000D03*
D21*
X63370000Y-87410000D03*
X63370000Y-89950000D03*
X63370000Y-92490000D03*
D33*
X53250000Y-144250000D03*
D34*
X58250000Y-144250000D03*
X63250000Y-144250000D03*
X68250000Y-144250000D03*
D35*
X121000000Y-108195000D03*
X119100000Y-108195000D03*
D16*
X80945000Y-62555000D03*
X80945000Y-60730000D03*
D36*
X69330000Y-108460000D03*
D37*
X71400000Y-109730000D03*
X69330000Y-111000000D03*
D21*
X55750000Y-87410000D03*
X55750000Y-89950000D03*
X55750000Y-92490000D03*
D19*
X61810000Y-79000000D03*
D20*
X59270000Y-79000000D03*
X56730000Y-79000000D03*
X54190000Y-79000000D03*
D38*
X141390000Y-85250000D03*
D39*
X138850000Y-85250000D03*
X136310000Y-85250000D03*
X133770000Y-85250000D03*
X131230000Y-85250000D03*
X128690000Y-85250000D03*
X126150000Y-85250000D03*
X123610000Y-85250000D03*
X123610000Y-108110000D03*
X126150000Y-108110000D03*
X128690000Y-108110000D03*
X131230000Y-108110000D03*
X133770000Y-108110000D03*
X136310000Y-108110000D03*
X138850000Y-108110000D03*
X141390000Y-108110000D03*
D40*
X132690000Y-112750000D03*
D41*
X135230000Y-112750000D03*
X137770000Y-112750000D03*
X140310000Y-112750000D03*
D42*
X129760000Y-139990000D03*
X132300000Y-139990000D03*
X134840000Y-139990000D03*
X137380000Y-139990000D03*
X139920000Y-139990000D03*
X142460000Y-139990000D03*
X145000000Y-139990000D03*
X147540000Y-139990000D03*
X147540000Y-124750000D03*
X145000000Y-124750000D03*
X142460000Y-124750000D03*
X139920000Y-124750000D03*
X137380000Y-124750000D03*
X134840000Y-124750000D03*
X132300000Y-124750000D03*
X129760000Y-124750000D03*
D12*
X76175000Y-88550000D03*
X78000000Y-88550000D03*
D43*
X80945000Y-65955000D03*
X80945000Y-64055000D03*
D19*
X138290000Y-95250000D03*
D20*
X135750000Y-95250000D03*
X133210000Y-95250000D03*
X130670000Y-95250000D03*
D13*
X117960000Y-116055000D03*
D14*
X119230000Y-116055000D03*
X120500000Y-116055000D03*
D13*
X75730000Y-57000000D03*
D14*
X77000000Y-57000000D03*
X78270000Y-57000000D03*
D16*
X140000000Y-60825000D03*
X140000000Y-59000000D03*
D15*
X105540000Y-69000000D03*
X103000000Y-69000000D03*
X100460000Y-69000000D03*
X105540000Y-63950000D03*
X103000000Y-63950000D03*
X100460000Y-63950000D03*
X128965000Y-148225000D03*
X131505000Y-148225000D03*
X134045000Y-148225000D03*
D16*
X102000000Y-125825000D03*
X102000000Y-124000000D03*
D15*
X128960000Y-145250000D03*
X131500000Y-145250000D03*
X134040000Y-145250000D03*
D16*
X105750000Y-80825000D03*
X105750000Y-79000000D03*
X132000000Y-57000000D03*
X132000000Y-55175000D03*
X72945000Y-62555000D03*
X72945000Y-60730000D03*
D44*
X81792500Y-145747500D03*
D45*
X86792500Y-145747500D03*
X76792500Y-116667500D03*
X91792500Y-116667500D03*
D19*
X94000000Y-86850000D03*
D20*
X94000000Y-89390000D03*
X94000000Y-91930000D03*
X94000000Y-94470000D03*
X94000000Y-97010000D03*
X94000000Y-99550000D03*
X94000000Y-102090000D03*
X94000000Y-104630000D03*
D16*
X107800000Y-80825000D03*
X107800000Y-79000000D03*
D27*
X118540000Y-145175000D03*
D28*
X116000000Y-145175000D03*
D27*
X53750000Y-104210000D03*
D28*
X53750000Y-106750000D03*
D43*
X140000000Y-56900000D03*
X140000000Y-55000000D03*
D12*
X122675000Y-90195000D03*
X124500000Y-90195000D03*
D27*
X124460000Y-115695000D03*
D28*
X127000000Y-115695000D03*
D15*
X114920000Y-52000000D03*
X117460000Y-52000000D03*
X120000000Y-52000000D03*
D46*
X54840000Y-110000000D03*
D47*
X65000000Y-110000000D03*
D11*
X132162500Y-137000000D03*
X130337500Y-137000000D03*
D48*
X136750000Y-144500000D03*
X136750000Y-146400000D03*
D40*
X62945000Y-56455000D03*
D41*
X60405000Y-56455000D03*
X57865000Y-56455000D03*
X55325000Y-56455000D03*
D11*
X131585000Y-127750000D03*
X129760000Y-127750000D03*
D18*
X78250000Y-101675000D03*
X78250000Y-103500000D03*
D11*
X107000000Y-54000000D03*
X105175000Y-54000000D03*
D12*
X137175000Y-70000000D03*
X139000000Y-70000000D03*
D11*
X62500000Y-100000000D03*
X60675000Y-100000000D03*
D13*
X104380000Y-146000000D03*
D14*
X105650000Y-146000000D03*
X106920000Y-146000000D03*
D12*
X100175000Y-51300000D03*
X102000000Y-51300000D03*
D49*
X66450000Y-117250000D03*
D50*
X66500000Y-129500000D03*
X54450000Y-129450000D03*
D49*
X54450000Y-117250000D03*
D50*
X60500000Y-115300000D03*
D15*
X114920000Y-57000000D03*
X117460000Y-57000000D03*
X120000000Y-57000000D03*
D40*
X131287500Y-75250000D03*
D41*
X133827500Y-75250000D03*
X136367500Y-75250000D03*
X138907500Y-75250000D03*
D11*
X125000000Y-74000000D03*
X123175000Y-74000000D03*
X129912500Y-103695000D03*
X128087500Y-103695000D03*
D18*
X117000000Y-140175000D03*
X117000000Y-142000000D03*
D15*
X105540000Y-74000000D03*
X103000000Y-74000000D03*
X100460000Y-74000000D03*
D51*
X58250000Y-135950000D03*
X63250000Y-138250000D03*
D15*
X142250000Y-148250000D03*
X144790000Y-148250000D03*
X147330000Y-148250000D03*
D12*
X122675000Y-103695000D03*
X124500000Y-103695000D03*
D43*
X104000000Y-125900000D03*
X104000000Y-124000000D03*
D11*
X137500000Y-142500000D03*
X135675000Y-142500000D03*
D13*
X86000000Y-109500000D03*
D14*
X84730000Y-109500000D03*
X83460000Y-109500000D03*
D13*
X143500000Y-144500000D03*
D14*
X144770000Y-144500000D03*
X146040000Y-144500000D03*
D18*
X72945000Y-64230000D03*
X72945000Y-66055000D03*
D16*
X106000000Y-125825000D03*
X106000000Y-124000000D03*
D11*
X124500000Y-97195000D03*
X122675000Y-97195000D03*
D16*
X103800000Y-80825000D03*
X103800000Y-79000000D03*
D12*
X128587500Y-142750000D03*
X130412500Y-142750000D03*
D42*
X102110000Y-137620000D03*
X104650000Y-137620000D03*
X107190000Y-137620000D03*
X109730000Y-137620000D03*
X112270000Y-137620000D03*
X114810000Y-137620000D03*
X117350000Y-137620000D03*
X119890000Y-137620000D03*
X119890000Y-122380000D03*
X117350000Y-122380000D03*
X114810000Y-122380000D03*
X112270000Y-122380000D03*
X109730000Y-122380000D03*
X107190000Y-122380000D03*
X104650000Y-122380000D03*
X102110000Y-122380000D03*
D52*
X101250000Y-79000000D03*
X101250000Y-80825000D03*
X130450735Y-80650000D03*
X132000000Y-80750000D03*
X107800000Y-80825000D03*
X132000000Y-57000000D03*
X63000000Y-109750000D03*
D53*
X50880000Y-89105000D02*
X51705000Y-88280000D01*
X51705000Y-88280000D02*
X51930000Y-88280000D01*
X50880000Y-94780000D02*
X50880000Y-89105000D01*
X51100000Y-95000000D02*
X50880000Y-94780000D01*
X51000000Y-77787500D02*
X51300000Y-78087500D01*
X51000000Y-73250000D02*
X51000000Y-77787500D01*
X53000000Y-71250000D02*
X51000000Y-73250000D01*
X51300000Y-79912500D02*
X52337500Y-80950000D01*
X52337500Y-80950000D02*
X82560000Y-80950000D01*
X82560000Y-80950000D02*
X84620000Y-78890000D01*
X53000000Y-71000000D02*
X53000000Y-71250000D01*
X100987500Y-52312500D02*
X102000000Y-51300000D01*
X100987500Y-63422500D02*
X100987500Y-52312500D01*
X100460000Y-63950000D02*
X100987500Y-63422500D01*
X84890000Y-61110000D02*
X84620000Y-61110000D01*
X102000000Y-51300000D02*
X105175000Y-51300000D01*
X92695000Y-61315000D02*
X85095000Y-61315000D01*
X85095000Y-61315000D02*
X84890000Y-61110000D01*
X92695000Y-58480000D02*
X92695000Y-61315000D01*
X99875000Y-51300000D02*
X92695000Y-58480000D01*
X100175000Y-51300000D02*
X99875000Y-51300000D01*
X106187500Y-54687500D02*
X109400000Y-57900000D01*
X106187500Y-52112500D02*
X106187500Y-54687500D01*
X109400000Y-57900000D02*
X109400000Y-80100000D01*
X109950000Y-80650000D02*
X130450735Y-80650000D01*
X107000000Y-51300000D02*
X106187500Y-52112500D01*
X109400000Y-80100000D02*
X109950000Y-80650000D01*
X92190000Y-66190000D02*
X84620000Y-66190000D01*
X92395000Y-66395000D02*
X92190000Y-66190000D01*
X94100000Y-62600000D02*
X94100000Y-64990000D01*
X94300000Y-62400000D02*
X94100000Y-62600000D01*
X94100000Y-64990000D02*
X92695000Y-66395000D01*
X92695000Y-66395000D02*
X92395000Y-66395000D01*
X96300000Y-62400000D02*
X94300000Y-62400000D01*
X100175000Y-58525000D02*
X96300000Y-62400000D01*
X100175000Y-57000000D02*
X100175000Y-58525000D01*
X92145000Y-63855000D02*
X91940000Y-63650000D01*
X92695000Y-63855000D02*
X92145000Y-63855000D01*
X93700000Y-61400000D02*
X93700000Y-62850000D01*
X100175000Y-54925000D02*
X93700000Y-61400000D01*
X93700000Y-62850000D02*
X92695000Y-63855000D01*
X91940000Y-63650000D02*
X84620000Y-63650000D01*
X100175000Y-54000000D02*
X100175000Y-54925000D01*
X77000000Y-57000000D02*
X77000000Y-53460000D01*
X77000000Y-53460000D02*
X78210000Y-52250000D01*
X80960000Y-55000000D02*
X78210000Y-52250000D01*
X85000000Y-55000000D02*
X80960000Y-55000000D01*
X131350000Y-141600000D02*
X131350000Y-127985000D01*
X131350000Y-127985000D02*
X131585000Y-127750000D01*
X132250000Y-142500000D02*
X131350000Y-141600000D01*
X135675000Y-142500000D02*
X132250000Y-142500000D01*
X129015000Y-137000000D02*
X130337500Y-137000000D01*
X132162500Y-137312500D02*
X132162500Y-137000000D01*
X126500000Y-139515000D02*
X129015000Y-137000000D01*
X134840000Y-139990000D02*
X132162500Y-137312500D01*
X130412500Y-140837500D02*
X130412500Y-142750000D01*
X129760000Y-140185000D02*
X130412500Y-140837500D01*
X129760000Y-139990000D02*
X129760000Y-140185000D01*
X131500000Y-143837500D02*
X131500000Y-145250000D01*
X130412500Y-142750000D02*
X131500000Y-143837500D01*
X128587500Y-142750000D02*
X128960000Y-143122500D01*
X125300000Y-140012057D02*
X128037943Y-142750000D01*
X128960000Y-143122500D02*
X128960000Y-145250000D01*
X125300000Y-134035000D02*
X125300000Y-140012057D01*
X128037943Y-142750000D02*
X128587500Y-142750000D01*
X131585000Y-127750000D02*
X125300000Y-134035000D01*
X57865000Y-56455000D02*
X59320000Y-55000000D01*
X53000000Y-68460000D02*
X53000000Y-56250000D01*
X84215000Y-64055000D02*
X84620000Y-63650000D01*
X54250000Y-55000000D02*
X56410000Y-55000000D01*
X53000000Y-56250000D02*
X54250000Y-55000000D01*
X56410000Y-55000000D02*
X57865000Y-56455000D01*
X67460000Y-55000000D02*
X70000000Y-57540000D01*
X59320000Y-55000000D02*
X67460000Y-55000000D01*
X80945000Y-64055000D02*
X84215000Y-64055000D01*
X71457500Y-61542500D02*
X70500000Y-62500000D01*
X55740000Y-80550000D02*
X69450000Y-80550000D01*
X78270000Y-57225000D02*
X73952500Y-61542500D01*
X66850686Y-60555000D02*
X68795686Y-62500000D01*
X72945000Y-66055000D02*
X80845000Y-66055000D01*
X71500000Y-64610000D02*
X72945000Y-66055000D01*
X62270000Y-57130000D02*
X62945000Y-56455000D01*
X73952500Y-61542500D02*
X71457500Y-61542500D01*
X68795686Y-62500000D02*
X70500000Y-62500000D01*
X63265000Y-64550000D02*
X62270000Y-63555000D01*
X80845000Y-66055000D02*
X80945000Y-65955000D01*
X72945000Y-77055000D02*
X72945000Y-66055000D01*
X62270000Y-60555000D02*
X66850686Y-60555000D01*
X62270000Y-60555000D02*
X62270000Y-57130000D01*
X69450000Y-80550000D02*
X72945000Y-77055000D01*
X71440000Y-64550000D02*
X63265000Y-64550000D01*
X78270000Y-57000000D02*
X78270000Y-57225000D01*
X54190000Y-79000000D02*
X55740000Y-80550000D01*
X72945000Y-66055000D02*
X71440000Y-64550000D01*
X70500000Y-62500000D02*
X71500000Y-63500000D01*
X81180000Y-66190000D02*
X80945000Y-65955000D01*
X71500000Y-63500000D02*
X71500000Y-64610000D01*
X84620000Y-66190000D02*
X81180000Y-66190000D01*
X92490000Y-76350000D02*
X92695000Y-76555000D01*
X84620000Y-76350000D02*
X92490000Y-76350000D01*
X84825000Y-68935000D02*
X84620000Y-68730000D01*
X92695000Y-68935000D02*
X84825000Y-68935000D01*
X84240000Y-60730000D02*
X84620000Y-61110000D01*
X80945000Y-60730000D02*
X84240000Y-60730000D01*
X92490000Y-71270000D02*
X92695000Y-71475000D01*
X84620000Y-71270000D02*
X92490000Y-71270000D01*
X84825000Y-79095000D02*
X84620000Y-78890000D01*
X92695000Y-79095000D02*
X84825000Y-79095000D01*
X84825000Y-74015000D02*
X84620000Y-73810000D01*
X92695000Y-74015000D02*
X84825000Y-74015000D01*
X100460000Y-76210000D02*
X100460000Y-75790000D01*
X100460000Y-69000000D02*
X100460000Y-74000000D01*
X103800000Y-79000000D02*
X103250000Y-79000000D01*
X100460000Y-74000000D02*
X100460000Y-75790000D01*
X103250000Y-79000000D02*
X100460000Y-76210000D01*
X100460000Y-75790000D02*
X100460000Y-76040000D01*
X100460000Y-76040000D02*
X97500000Y-79000000D01*
X100950000Y-63950000D02*
X101000000Y-64000000D01*
X100460000Y-63950000D02*
X100950000Y-63950000D01*
X97500000Y-79000000D02*
X97250000Y-79000000D01*
X100460000Y-68000000D02*
X100460000Y-63950000D01*
X103000000Y-68000000D02*
X103000000Y-63950000D01*
X103000000Y-63950000D02*
X103000000Y-58000000D01*
X99300000Y-79000000D02*
X100112500Y-79812500D01*
X105750000Y-79000000D02*
X103000000Y-76250000D01*
X103000000Y-76250000D02*
X103000000Y-74000000D01*
X100112500Y-79812500D02*
X104937500Y-79812500D01*
X104937500Y-79812500D02*
X105750000Y-79000000D01*
X103000000Y-58000000D02*
X102000000Y-57000000D01*
X103000000Y-69000000D02*
X103000000Y-74000000D01*
X102000000Y-57000000D02*
X105175000Y-57000000D01*
X102000000Y-54000000D02*
X105175000Y-54000000D01*
X105540000Y-69000000D02*
X105540000Y-74000000D01*
X107800000Y-79000000D02*
X107800000Y-78550000D01*
X105540000Y-76290000D02*
X105540000Y-74000000D01*
X105987500Y-63502500D02*
X105987500Y-56237500D01*
X105750000Y-56000000D02*
X105750000Y-54575000D01*
X105540000Y-63950000D02*
X105987500Y-63502500D01*
X107800000Y-78550000D02*
X105540000Y-76290000D01*
X105987500Y-56237500D02*
X105750000Y-56000000D01*
X105750000Y-54575000D02*
X105175000Y-54000000D01*
X105540000Y-68000000D02*
X105540000Y-63950000D01*
X66510000Y-62010000D02*
X68150000Y-63650000D01*
X60405000Y-56455000D02*
X60405000Y-60515000D01*
X60445000Y-60555000D02*
X61900000Y-62010000D01*
X68150000Y-63650000D02*
X69380000Y-63650000D01*
X61900000Y-62010000D02*
X66510000Y-62010000D01*
X60405000Y-60515000D02*
X60445000Y-60555000D01*
X55325000Y-56455000D02*
X55325000Y-58435000D01*
X55325000Y-58435000D02*
X60445000Y-63555000D01*
X63080000Y-66190000D02*
X60445000Y-63555000D01*
X69380000Y-66190000D02*
X63080000Y-66190000D01*
X76445000Y-62555000D02*
X72945000Y-62555000D01*
X85000000Y-52460000D02*
X85000000Y-52500000D01*
X82623600Y-56376400D02*
X76445000Y-62555000D01*
X75670000Y-51330000D02*
X76066000Y-50934000D01*
X80945000Y-62555000D02*
X72945000Y-62555000D01*
X83474000Y-50934000D02*
X85000000Y-52460000D01*
X86500000Y-55500000D02*
X85623600Y-56376400D01*
X75670000Y-52250000D02*
X75670000Y-51330000D01*
X86500000Y-54000000D02*
X86500000Y-55500000D01*
X85000000Y-52500000D02*
X86500000Y-54000000D01*
X70000000Y-52460000D02*
X75000000Y-52460000D01*
X72945000Y-62555000D02*
X72945000Y-64230000D01*
X75000000Y-52460000D02*
X75460000Y-52000000D01*
X76066000Y-50934000D02*
X83474000Y-50934000D01*
X85623600Y-56376400D02*
X82623600Y-56376400D01*
X72945000Y-57945000D02*
X74940000Y-55950000D01*
X74940000Y-55950000D02*
X76900000Y-55950000D01*
X78000000Y-53000000D02*
X78000000Y-52000000D01*
X70000000Y-55000000D02*
X72945000Y-57945000D01*
X72945000Y-57945000D02*
X72945000Y-60730000D01*
X69380000Y-61110000D02*
X72565000Y-61110000D01*
X76900000Y-55950000D02*
X77000000Y-56050000D01*
X77000000Y-56050000D02*
X77000000Y-57000000D01*
X78000000Y-52890000D02*
X78000000Y-52000000D01*
X72565000Y-61110000D02*
X72945000Y-60730000D01*
X61500000Y-74000000D02*
X61690000Y-73810000D01*
X61690000Y-73810000D02*
X69380000Y-73810000D01*
X61000000Y-74000000D02*
X61500000Y-74000000D01*
X61000000Y-68920000D02*
X69190000Y-68920000D01*
X69190000Y-68920000D02*
X69380000Y-68730000D01*
X69190000Y-71460000D02*
X69380000Y-71270000D01*
X61000000Y-71460000D02*
X69190000Y-71460000D01*
X69380000Y-76350000D02*
X59380000Y-76350000D01*
X59380000Y-76350000D02*
X56730000Y-79000000D01*
X68120000Y-80150000D02*
X60420000Y-80150000D01*
X60420000Y-80150000D02*
X59270000Y-79000000D01*
X69380000Y-78890000D02*
X68120000Y-80150000D01*
X107000000Y-54000000D02*
X111850000Y-58850000D01*
X111850000Y-69350000D02*
X112550000Y-70050000D01*
X120000000Y-52000000D02*
X120000000Y-62000000D01*
X148000000Y-54540000D02*
X143957500Y-54540000D01*
X140000000Y-55000000D02*
X143497500Y-55000000D01*
X143497500Y-55000000D02*
X143672500Y-54825000D01*
X120000000Y-62000000D02*
X120000000Y-67540000D01*
X143957500Y-54540000D02*
X143672500Y-54825000D01*
X111850000Y-58850000D02*
X111850000Y-69350000D01*
X120000000Y-67540000D02*
X118540000Y-69000000D01*
X118540000Y-69225000D02*
X118540000Y-69000000D01*
X112550000Y-70050000D02*
X117715000Y-70050000D01*
X117715000Y-70050000D02*
X118540000Y-69225000D01*
X109000000Y-80348528D02*
X109901472Y-81250000D01*
X107000000Y-57000000D02*
X109000000Y-59000000D01*
X142372500Y-58665000D02*
X142372500Y-74627500D01*
X109000000Y-59000000D02*
X109000000Y-80348528D01*
X138671212Y-76971212D02*
X138642424Y-77000000D01*
X130750000Y-81250000D02*
X131287500Y-80712500D01*
X143672500Y-57365000D02*
X142372500Y-58665000D01*
X133037500Y-77000000D02*
X131287500Y-75250000D01*
X142372500Y-74627500D02*
X140028788Y-76971212D01*
X148000000Y-57080000D02*
X143957500Y-57080000D01*
X138642424Y-77000000D02*
X133037500Y-77000000D01*
X109901472Y-81250000D02*
X130750000Y-81250000D01*
X143957500Y-57080000D02*
X143672500Y-57365000D01*
X131287500Y-75250000D02*
X131287500Y-70112500D01*
X140900000Y-56900000D02*
X141365000Y-57365000D01*
X138642424Y-77000000D02*
X138000000Y-77000000D01*
X137417500Y-76417500D02*
X137417500Y-70242500D01*
X131287500Y-80712500D02*
X131287500Y-75250000D01*
X140000000Y-56900000D02*
X140900000Y-56900000D01*
X138000000Y-77000000D02*
X137417500Y-76417500D01*
X140000000Y-56900000D02*
X140000000Y-59000000D01*
X140028788Y-76971212D02*
X138671212Y-76971212D01*
X137417500Y-70242500D02*
X137175000Y-70000000D01*
X131287500Y-70112500D02*
X131175000Y-70000000D01*
X141365000Y-57365000D02*
X143672500Y-57365000D01*
X51930000Y-90820000D02*
X54080000Y-90820000D01*
X53750000Y-104210000D02*
X52550000Y-105410000D01*
X52550000Y-107247057D02*
X53902943Y-108600000D01*
X55750000Y-92490000D02*
X55510000Y-92490000D01*
X63600000Y-108600000D02*
X65000000Y-110000000D01*
X54080000Y-90820000D02*
X55750000Y-92490000D01*
X53750000Y-99210000D02*
X52550000Y-100410000D01*
X55750000Y-92490000D02*
X63370000Y-92490000D01*
X86960000Y-89390000D02*
X86500000Y-89850000D01*
X94000000Y-89390000D02*
X86960000Y-89390000D01*
X53750000Y-99210000D02*
X53750000Y-95750000D01*
X52550000Y-105410000D02*
X52550000Y-107247057D01*
X55510000Y-92490000D02*
X53000000Y-95000000D01*
X53902943Y-108600000D02*
X63600000Y-108600000D01*
X52550000Y-103010000D02*
X53750000Y-104210000D01*
X52550000Y-100410000D02*
X52550000Y-103010000D01*
X53750000Y-95750000D02*
X53000000Y-95000000D01*
X74035000Y-86410000D02*
X64370000Y-86410000D01*
X76250000Y-88625000D02*
X76175000Y-88550000D01*
X55750000Y-87410000D02*
X63370000Y-87410000D01*
X76250000Y-91800000D02*
X76250000Y-88625000D01*
X76175000Y-88550000D02*
X74035000Y-86410000D01*
X51930000Y-88280000D02*
X54880000Y-88280000D01*
X54880000Y-88280000D02*
X55750000Y-87410000D01*
X64370000Y-86410000D02*
X63370000Y-87410000D01*
X67500000Y-109675000D02*
X67500000Y-112000000D01*
X62575000Y-104750000D02*
X67500000Y-109675000D01*
X92750000Y-115710000D02*
X92750000Y-111250000D01*
X92750000Y-112200000D02*
X92750000Y-111250000D01*
X91792500Y-116667500D02*
X92750000Y-115710000D01*
X92450000Y-112500000D02*
X92750000Y-112200000D01*
X68000000Y-112500000D02*
X92450000Y-112500000D01*
X67500000Y-112000000D02*
X68000000Y-112500000D01*
X146040000Y-144500000D02*
X146040000Y-142702792D01*
X144100000Y-138665000D02*
X133185000Y-127750000D01*
X136750000Y-144500000D02*
X135675000Y-143425000D01*
X144100000Y-140762792D02*
X144100000Y-138665000D01*
X147330000Y-148250000D02*
X147330000Y-145790000D01*
X128965000Y-145255000D02*
X128960000Y-145250000D01*
X147330000Y-145790000D02*
X146040000Y-144500000D01*
X135675000Y-143425000D02*
X135675000Y-142500000D01*
X146040000Y-142702792D02*
X144100000Y-140762792D01*
X133185000Y-127750000D02*
X131585000Y-127750000D01*
X128965000Y-148225000D02*
X128965000Y-145255000D01*
X140715000Y-52285000D02*
X140000000Y-53000000D01*
X149300000Y-53300000D02*
X148000000Y-52000000D01*
X143672500Y-52285000D02*
X140715000Y-52285000D01*
X132000000Y-80750000D02*
X149000000Y-80750000D01*
X149000000Y-80750000D02*
X149300000Y-80450000D01*
X149300000Y-80450000D02*
X149300000Y-53300000D01*
X143957500Y-52000000D02*
X143672500Y-52285000D01*
X148000000Y-52000000D02*
X143957500Y-52000000D01*
X104650000Y-123350000D02*
X104000000Y-124000000D01*
X104650000Y-122380000D02*
X104650000Y-123350000D01*
X104380000Y-142460000D02*
X102920000Y-141000000D01*
X104380000Y-146000000D02*
X104380000Y-142460000D01*
X123000000Y-78000000D02*
X123175000Y-77825000D01*
X123000000Y-79000000D02*
X123000000Y-78000000D01*
X123175000Y-77825000D02*
X123175000Y-74000000D01*
X133827500Y-70827500D02*
X133000000Y-70000000D01*
X127659708Y-58265000D02*
X127132500Y-57737792D01*
X128766814Y-58265000D02*
X127659708Y-58265000D01*
X134000000Y-69000000D02*
X134000000Y-63498186D01*
X127132500Y-56125000D02*
X128432500Y-54825000D01*
X134000000Y-63498186D02*
X128766814Y-58265000D01*
X133000000Y-70000000D02*
X134000000Y-69000000D01*
X133827500Y-75250000D02*
X133827500Y-70827500D01*
X127132500Y-57737792D02*
X127132500Y-56125000D01*
X55750000Y-100000000D02*
X60675000Y-100000000D01*
X54000000Y-101750000D02*
X55750000Y-100000000D01*
X53750000Y-101750000D02*
X54000000Y-101750000D01*
X58750000Y-106750000D02*
X60750000Y-104750000D01*
X53750000Y-106750000D02*
X58750000Y-106750000D01*
D54*
X58250000Y-135950000D02*
X60500000Y-133700000D01*
X53250000Y-138000000D02*
X55300000Y-135950000D01*
X53250000Y-144250000D02*
X53250000Y-138000000D01*
X55300000Y-135950000D02*
X58250000Y-135950000D01*
X60500000Y-133700000D02*
X60500000Y-115300000D01*
D53*
X114920000Y-62000000D02*
X114920000Y-57000000D01*
X114920000Y-57000000D02*
X114920000Y-52000000D01*
X140000000Y-60825000D02*
X135825000Y-60825000D01*
X116000000Y-68000000D02*
X114920000Y-66920000D01*
X114920000Y-66920000D02*
X114920000Y-62000000D01*
X116000000Y-69000000D02*
X116000000Y-68000000D01*
X135825000Y-60825000D02*
X132000000Y-57000000D01*
X140000000Y-51175000D02*
X137825000Y-51175000D01*
X137825000Y-51175000D02*
X132000000Y-57000000D01*
X132000000Y-55175000D02*
X129110000Y-52285000D01*
X129110000Y-52285000D02*
X128432500Y-52285000D01*
X117460000Y-52000000D02*
X117460000Y-68810000D01*
X117460000Y-68810000D02*
X117270000Y-69000000D01*
X143957500Y-59620000D02*
X143672500Y-59905000D01*
X148000000Y-59620000D02*
X143957500Y-59620000D01*
X143957500Y-62160000D02*
X143672500Y-62445000D01*
X148000000Y-62160000D02*
X143957500Y-62160000D01*
X148000000Y-67240000D02*
X143957500Y-67240000D01*
X143957500Y-67240000D02*
X143672500Y-67525000D01*
X143957500Y-69780000D02*
X143672500Y-70065000D01*
X148000000Y-69780000D02*
X143957500Y-69780000D01*
X143957500Y-64700000D02*
X143672500Y-64985000D01*
X148000000Y-64700000D02*
X143957500Y-64700000D01*
D54*
X68250000Y-144250000D02*
X68250000Y-139250000D01*
X68250000Y-144250000D02*
X72500000Y-148500000D01*
X67250000Y-138250000D02*
X63250000Y-138250000D01*
X68250000Y-139250000D02*
X67250000Y-138250000D01*
X85750000Y-148500000D02*
X86792500Y-147457500D01*
X72500000Y-148500000D02*
X85750000Y-148500000D01*
X86792500Y-147457500D02*
X86792500Y-145747500D01*
D53*
X55550000Y-89950000D02*
X55150000Y-89550000D01*
X55150000Y-89550000D02*
X51930000Y-89550000D01*
X71260000Y-87310000D02*
X69940000Y-87310000D01*
X67250000Y-90000000D02*
X66750000Y-90000000D01*
X55750000Y-89950000D02*
X55550000Y-89950000D01*
X66750000Y-90000000D02*
X66700000Y-89950000D01*
X69940000Y-87310000D02*
X67250000Y-90000000D01*
X66700000Y-89950000D02*
X55750000Y-89950000D01*
X99300000Y-86630000D02*
X94000000Y-91930000D01*
X86960000Y-91930000D02*
X86500000Y-92390000D01*
X94000000Y-91930000D02*
X86960000Y-91930000D01*
X99300000Y-80825000D02*
X99300000Y-86630000D01*
X95150000Y-93080000D02*
X94000000Y-91930000D01*
X95150000Y-110150000D02*
X95150000Y-93080000D01*
X86500000Y-92390000D02*
X78665000Y-92390000D01*
X78665000Y-92390000D02*
X78075000Y-91800000D01*
X94050000Y-111250000D02*
X95150000Y-110150000D01*
X86960000Y-94470000D02*
X86500000Y-94930000D01*
X94000000Y-94470000D02*
X86960000Y-94470000D01*
X86960000Y-104630000D02*
X86500000Y-105090000D01*
X94000000Y-104630000D02*
X86960000Y-104630000D01*
X94000000Y-97010000D02*
X86960000Y-97010000D01*
X86960000Y-97010000D02*
X86500000Y-97470000D01*
X94000000Y-102090000D02*
X86960000Y-102090000D01*
X86960000Y-102090000D02*
X86500000Y-102550000D01*
X81067756Y-87310000D02*
X77262500Y-91115256D01*
X97250000Y-80825000D02*
X97250000Y-83600000D01*
X69730000Y-111000000D02*
X84725000Y-111000000D01*
X86500000Y-87310000D02*
X81067756Y-87310000D01*
X86960000Y-86850000D02*
X86500000Y-87310000D01*
X94000000Y-86850000D02*
X86960000Y-86850000D01*
X84725000Y-111000000D02*
X86000000Y-109725000D01*
X77262500Y-98762500D02*
X86000000Y-107500000D01*
X89700000Y-109500000D02*
X86000000Y-109500000D01*
X86000000Y-107500000D02*
X86000000Y-109500000D01*
X86000000Y-109725000D02*
X86000000Y-109500000D01*
X91450000Y-111250000D02*
X89700000Y-109500000D01*
X86500000Y-87310000D02*
X79240000Y-87310000D01*
X97250000Y-83600000D02*
X94000000Y-86850000D01*
X79240000Y-87310000D02*
X78000000Y-88550000D01*
X77262500Y-91115256D02*
X77262500Y-98762500D01*
X86960000Y-99550000D02*
X86500000Y-100010000D01*
X94000000Y-99550000D02*
X86960000Y-99550000D01*
X144770000Y-143550000D02*
X144770000Y-144500000D01*
X133810000Y-141500000D02*
X136500000Y-141500000D01*
X136500000Y-141500000D02*
X137500000Y-142500000D01*
X132300000Y-139990000D02*
X133810000Y-141500000D01*
X137500000Y-142500000D02*
X143720000Y-142500000D01*
X143720000Y-142500000D02*
X144770000Y-143550000D01*
X144790000Y-144520000D02*
X144770000Y-144500000D01*
X144790000Y-148250000D02*
X144790000Y-144520000D01*
X131505000Y-145255000D02*
X131500000Y-145250000D01*
X131505000Y-148225000D02*
X131505000Y-145255000D01*
X140190000Y-124480000D02*
X139920000Y-124750000D01*
X140190000Y-121000000D02*
X140190000Y-124480000D01*
X102000000Y-125825000D02*
X106000000Y-125825000D01*
X108000000Y-141000000D02*
X106290000Y-139290000D01*
X106290000Y-139290000D02*
X106290000Y-134290000D01*
X106290000Y-134290000D02*
X104000000Y-132000000D01*
X106920000Y-146000000D02*
X106920000Y-142080000D01*
X106920000Y-142080000D02*
X108000000Y-141000000D01*
X104000000Y-125900000D02*
X104000000Y-132000000D01*
X117000000Y-142000000D02*
X117000000Y-144175000D01*
X117000000Y-144175000D02*
X116000000Y-145175000D01*
X147810000Y-121000000D02*
X147810000Y-124480000D01*
X147810000Y-124480000D02*
X147540000Y-124750000D01*
X145270000Y-121000000D02*
X145270000Y-124480000D01*
X145270000Y-124480000D02*
X145000000Y-124750000D01*
X142730000Y-124480000D02*
X142460000Y-124750000D01*
X142730000Y-121000000D02*
X142730000Y-124480000D01*
X137650000Y-124480000D02*
X137380000Y-124750000D01*
X137650000Y-121000000D02*
X137650000Y-124480000D01*
X73260000Y-100010000D02*
X74500000Y-101250000D01*
X71260000Y-100010000D02*
X73260000Y-100010000D01*
X77375000Y-102550000D02*
X78250000Y-101675000D01*
X74500000Y-102550000D02*
X77375000Y-102550000D01*
X73260000Y-105090000D02*
X74500000Y-103850000D01*
X71260000Y-105090000D02*
X73260000Y-105090000D01*
X54450000Y-117250000D02*
X54450000Y-110390000D01*
X71230000Y-109500000D02*
X83460000Y-109500000D01*
X62750000Y-110000000D02*
X54840000Y-110000000D01*
X63000000Y-109750000D02*
X62750000Y-110000000D01*
X71000000Y-109730000D02*
X71230000Y-109500000D01*
X54450000Y-110390000D02*
X54840000Y-110000000D01*
X73040000Y-108460000D02*
X69730000Y-108460000D01*
X84730000Y-109280000D02*
X84730000Y-109500000D01*
X78250000Y-103500000D02*
X78000000Y-103500000D01*
X78250000Y-103500000D02*
X78950000Y-103500000D01*
X78950000Y-103500000D02*
X84730000Y-109280000D01*
X78000000Y-103500000D02*
X73040000Y-108460000D01*
X125000000Y-63337500D02*
X128432500Y-59905000D01*
X125000000Y-74000000D02*
X125000000Y-63337500D01*
X139000000Y-70000000D02*
X139000000Y-67932500D01*
X139000000Y-67932500D02*
X128432500Y-57365000D01*
X138907500Y-70092500D02*
X139000000Y-70000000D01*
X138907500Y-75250000D02*
X138907500Y-70092500D01*
X62500000Y-100000000D02*
X62500000Y-98610000D01*
X62500000Y-98610000D02*
X71260000Y-89850000D01*
X102110000Y-122380000D02*
X102110000Y-123890000D01*
X103800000Y-80825000D02*
X103800000Y-101050000D01*
X103800000Y-101050000D02*
X102110000Y-102740000D01*
X102110000Y-123890000D02*
X102000000Y-124000000D01*
X102110000Y-102740000D02*
X102110000Y-122380000D01*
X105750000Y-95750000D02*
X107190000Y-97190000D01*
X107190000Y-97190000D02*
X107190000Y-122380000D01*
X107190000Y-122810000D02*
X106000000Y-124000000D01*
X107190000Y-122380000D02*
X107190000Y-122810000D01*
X105750000Y-80825000D02*
X105750000Y-95750000D01*
X104000000Y-133825000D02*
X104000000Y-136970000D01*
X104650000Y-137620000D02*
X104650000Y-140190000D01*
X104000000Y-136970000D02*
X104650000Y-137620000D01*
X104650000Y-140190000D02*
X105460000Y-141000000D01*
X105460000Y-141000000D02*
X105460000Y-145810000D01*
X105460000Y-145810000D02*
X105650000Y-146000000D01*
X109745000Y-140175000D02*
X117000000Y-140175000D01*
X107190000Y-137620000D02*
X109745000Y-140175000D01*
X141250000Y-114000000D02*
X139020000Y-114000000D01*
X117960000Y-112925000D02*
X116730000Y-111695000D01*
X139020000Y-114000000D02*
X137770000Y-112750000D01*
X142490000Y-99450000D02*
X142490000Y-112760000D01*
X116730000Y-111695000D02*
X116730000Y-110565000D01*
X138290000Y-95250000D02*
X142490000Y-99450000D01*
X142490000Y-112760000D02*
X141250000Y-114000000D01*
X117960000Y-116055000D02*
X117960000Y-112925000D01*
X116730000Y-110565000D02*
X119100000Y-108195000D01*
X120500000Y-113005000D02*
X121810000Y-111695000D01*
X122675000Y-97195000D02*
X122675000Y-103695000D01*
X121000000Y-107750000D02*
X122675000Y-106075000D01*
X122675000Y-90195000D02*
X122675000Y-97195000D01*
X120500000Y-116055000D02*
X120500000Y-113005000D01*
X122675000Y-106075000D02*
X122675000Y-103695000D01*
X121000000Y-108195000D02*
X121000000Y-107750000D01*
X121810000Y-109005000D02*
X121000000Y-108195000D01*
X121810000Y-111695000D02*
X121810000Y-109005000D01*
X129790000Y-105397500D02*
X129790000Y-112905000D01*
X129790000Y-112905000D02*
X127000000Y-115695000D01*
X128087500Y-103695000D02*
X129790000Y-105397500D01*
X133210000Y-95250000D02*
X138850000Y-100890000D01*
X138850000Y-100890000D02*
X138850000Y-108110000D01*
X135750000Y-95250000D02*
X141390000Y-100890000D01*
X141390000Y-100890000D02*
X141390000Y-108110000D01*
X125615000Y-90195000D02*
X124500000Y-90195000D01*
X124500000Y-94320000D02*
X133550000Y-103370000D01*
X130670000Y-95250000D02*
X125615000Y-90195000D01*
X123610000Y-85250000D02*
X123610000Y-89305000D01*
X132550000Y-112610000D02*
X132550000Y-104370000D01*
X132550000Y-104370000D02*
X133550000Y-103370000D01*
X133550000Y-103370000D02*
X136500000Y-103370000D01*
X132690000Y-112750000D02*
X132550000Y-112610000D01*
X124500000Y-90195000D02*
X124500000Y-94320000D01*
X123610000Y-89305000D02*
X124500000Y-90195000D01*
X119230000Y-116280000D02*
X119230000Y-116055000D01*
X119230000Y-116055000D02*
X119230000Y-111735000D01*
X124500000Y-101604744D02*
X124500000Y-97195000D01*
X128690000Y-105794744D02*
X124500000Y-101604744D01*
X121325000Y-115475000D02*
X121325000Y-116621726D01*
X120841726Y-117105000D02*
X120055000Y-117105000D01*
X128690000Y-108110000D02*
X121325000Y-115475000D01*
X128690000Y-108110000D02*
X128690000Y-105794744D01*
X120055000Y-117105000D02*
X119230000Y-116280000D01*
X121325000Y-116621726D02*
X120841726Y-117105000D01*
X119230000Y-111735000D02*
X119270000Y-111695000D01*
X124500000Y-107220000D02*
X123610000Y-108110000D01*
X124500000Y-103695000D02*
X124500000Y-107220000D01*
X131230000Y-108110000D02*
X131230000Y-105012500D01*
X131230000Y-105012500D02*
X129912500Y-103695000D01*
X142250000Y-148250000D02*
X142250000Y-145750000D01*
X135190000Y-146400000D02*
X134040000Y-145250000D01*
X136750000Y-146400000D02*
X135190000Y-146400000D01*
X132570000Y-121000000D02*
X132570000Y-124480000D01*
X134045000Y-145255000D02*
X134040000Y-145250000D01*
X136750000Y-146400000D02*
X140400000Y-146400000D01*
X134045000Y-148225000D02*
X134045000Y-145255000D01*
X132570000Y-124480000D02*
X132300000Y-124750000D01*
X142250000Y-145750000D02*
X143500000Y-144500000D01*
X140400000Y-146400000D02*
X142250000Y-148250000D01*
X129760000Y-124750000D02*
X129760000Y-127750000D01*
X130030000Y-124480000D02*
X129760000Y-124750000D01*
X130030000Y-121000000D02*
X130030000Y-124480000D01*
X135110000Y-124480000D02*
X134840000Y-124750000D01*
X135110000Y-121000000D02*
X135110000Y-124480000D01*
X134840000Y-127580000D02*
X135010000Y-127750000D01*
X134840000Y-124750000D02*
X134840000Y-127580000D01*
X136500000Y-107920000D02*
X136310000Y-108110000D01*
X136500000Y-105195000D02*
X136500000Y-107920000D01*
X140310000Y-112750000D02*
X136310000Y-108750000D01*
X136310000Y-108750000D02*
X136310000Y-108110000D01*
X135230000Y-109570000D02*
X133770000Y-108110000D01*
X133770000Y-105415000D02*
X133550000Y-105195000D01*
X135230000Y-112750000D02*
X135230000Y-109570000D01*
X133770000Y-108110000D02*
X133770000Y-105415000D01*
M02*
