G04 #@! TF.GenerationSoftware,KiCad,Pcbnew,8.0.6*
G04 #@! TF.CreationDate,2024-12-03T19:12:37+01:00*
G04 #@! TF.ProjectId,HomeAutomationESP32C2mini_2024,486f6d65-4175-4746-9f6d-6174696f6e45,Rev A*
G04 #@! TF.SameCoordinates,Original*
G04 #@! TF.FileFunction,Soldermask,Bot*
G04 #@! TF.FilePolarity,Negative*
%FSLAX46Y46*%
G04 Gerber Fmt 4.6, Leading zero omitted, Abs format (unit mm)*
G04 Created by KiCad (PCBNEW 8.0.6) date 2024-12-03 19:12:37*
%MOMM*%
%LPD*%
G01*
G04 APERTURE LIST*
G04 Aperture macros list*
%AMRoundRect*
0 Rectangle with rounded corners*
0 $1 Rounding radius*
0 $2 $3 $4 $5 $6 $7 $8 $9 X,Y pos of 4 corners*
0 Add a 4 corners polygon primitive as box body*
4,1,4,$2,$3,$4,$5,$6,$7,$8,$9,$2,$3,0*
0 Add four circle primitives for the rounded corners*
1,1,$1+$1,$2,$3*
1,1,$1+$1,$4,$5*
1,1,$1+$1,$6,$7*
1,1,$1+$1,$8,$9*
0 Add four rect primitives between the rounded corners*
20,1,$1+$1,$2,$3,$4,$5,0*
20,1,$1+$1,$4,$5,$6,$7,0*
20,1,$1+$1,$6,$7,$8,$9,0*
20,1,$1+$1,$8,$9,$2,$3,0*%
G04 Aperture macros list end*
%ADD10R,1.050000X1.500000*%
%ADD11O,1.050000X1.500000*%
%ADD12O,1.727200X2.032000*%
%ADD13O,2.000000X1.200000*%
%ADD14R,1.700000X1.700000*%
%ADD15O,1.700000X1.700000*%
%ADD16O,2.032000X1.727200*%
%ADD17R,1.500000X1.050000*%
%ADD18O,1.500000X1.050000*%
%ADD19R,1.800000X1.800000*%
%ADD20C,1.800000*%
%ADD21R,2.600000X2.600000*%
%ADD22C,2.600000*%
%ADD23R,1.800000X1.100000*%
%ADD24RoundRect,0.275000X-0.625000X0.275000X-0.625000X-0.275000X0.625000X-0.275000X0.625000X0.275000X0*%
%ADD25R,2.000000X2.000000*%
%ADD26O,1.600000X2.000000*%
%ADD27R,1.500000X1.500000*%
%ADD28C,1.500000*%
%ADD29O,1.200000X2.000000*%
%ADD30R,2.000000X1.700000*%
%ADD31O,2.000000X1.700000*%
%ADD32R,2.200000X2.200000*%
%ADD33O,2.200000X2.200000*%
%ADD34C,2.500000*%
%ADD35C,3.000000*%
%ADD36C,1.600000*%
%ADD37RoundRect,0.250000X-0.400000X-1.450000X0.400000X-1.450000X0.400000X1.450000X-0.400000X1.450000X0*%
%ADD38RoundRect,0.250000X0.250000X0.475000X-0.250000X0.475000X-0.250000X-0.475000X0.250000X-0.475000X0*%
G04 APERTURE END LIST*
D10*
X118540000Y-69000000D03*
D11*
X117270000Y-69000000D03*
X116000000Y-69000000D03*
D12*
X116730000Y-111695000D03*
X119270000Y-111695000D03*
X121810000Y-111695000D03*
X102920000Y-141000000D03*
X105460000Y-141000000D03*
X108000000Y-141000000D03*
D13*
X69380000Y-61110000D03*
X69380000Y-63650000D03*
X69380000Y-66190000D03*
X69380000Y-68730000D03*
X69380000Y-71270000D03*
X69380000Y-73810000D03*
X69380000Y-76350000D03*
X69380000Y-78890000D03*
X84620000Y-78890000D03*
X84620000Y-76350000D03*
X84620000Y-73810000D03*
X84620000Y-71270000D03*
X84620000Y-68730000D03*
X84620000Y-66190000D03*
X84620000Y-63650000D03*
X84620000Y-61110000D03*
X128432500Y-52285000D03*
X128432500Y-54825000D03*
X128432500Y-57365000D03*
X128432500Y-59905000D03*
X128432500Y-62445000D03*
X128432500Y-64985000D03*
X128432500Y-67525000D03*
X128432500Y-70065000D03*
X143672500Y-70065000D03*
X143672500Y-67525000D03*
X143672500Y-64985000D03*
X143672500Y-62445000D03*
X143672500Y-59905000D03*
X143672500Y-57365000D03*
X143672500Y-54825000D03*
X143672500Y-52285000D03*
D14*
X148000000Y-52000000D03*
D15*
X148000000Y-54540000D03*
X148000000Y-57080000D03*
X148000000Y-59620000D03*
X148000000Y-62160000D03*
X148000000Y-64700000D03*
X148000000Y-67240000D03*
X148000000Y-69780000D03*
D16*
X85000000Y-52460000D03*
X85000000Y-55000000D03*
X85000000Y-57540000D03*
D13*
X71260000Y-87310000D03*
X71260000Y-89850000D03*
X71260000Y-92390000D03*
X71260000Y-94930000D03*
X71260000Y-97470000D03*
X71260000Y-100010000D03*
X71260000Y-102550000D03*
X71260000Y-105090000D03*
X86500000Y-105090000D03*
X86500000Y-102550000D03*
X86500000Y-100010000D03*
X86500000Y-97470000D03*
X86500000Y-94930000D03*
X86500000Y-92390000D03*
X86500000Y-89850000D03*
X86500000Y-87310000D03*
D17*
X51930000Y-90820000D03*
D18*
X51930000Y-89550000D03*
X51930000Y-88280000D03*
D19*
X125540000Y-79000000D03*
D20*
X123000000Y-79000000D03*
D16*
X61000000Y-74000000D03*
X61000000Y-71460000D03*
X61000000Y-68920000D03*
D12*
X75670000Y-52250000D03*
X78210000Y-52250000D03*
X80750000Y-52250000D03*
D19*
X53750000Y-99210000D03*
D20*
X53750000Y-101750000D03*
D19*
X126500000Y-136975000D03*
D20*
X126500000Y-139515000D03*
D16*
X59500000Y-87410000D03*
X59500000Y-89950000D03*
X59500000Y-92490000D03*
D12*
X114920000Y-62000000D03*
X117460000Y-62000000D03*
X120000000Y-62000000D03*
D16*
X70000000Y-52460000D03*
X70000000Y-55000000D03*
X70000000Y-57540000D03*
D14*
X130030000Y-121250000D03*
D15*
X132570000Y-121250000D03*
X135110000Y-121250000D03*
X137650000Y-121250000D03*
X140190000Y-121250000D03*
X142730000Y-121250000D03*
X145270000Y-121250000D03*
X147810000Y-121250000D03*
D19*
X53000000Y-68460000D03*
D20*
X53000000Y-71000000D03*
D14*
X92500000Y-61315000D03*
D15*
X92500000Y-63855000D03*
X92500000Y-66395000D03*
X92500000Y-68935000D03*
X92500000Y-71475000D03*
X92500000Y-74015000D03*
X92500000Y-76555000D03*
X92500000Y-79095000D03*
D16*
X63370000Y-87410000D03*
X63370000Y-89950000D03*
X63370000Y-92490000D03*
D21*
X53250000Y-144250000D03*
D22*
X58250000Y-144250000D03*
X63250000Y-144250000D03*
X68250000Y-144250000D03*
D23*
X69330000Y-108460000D03*
D24*
X71400000Y-109730000D03*
X69330000Y-111000000D03*
D16*
X55750000Y-87410000D03*
X55750000Y-89950000D03*
X55750000Y-92490000D03*
D14*
X61810000Y-79000000D03*
D15*
X59270000Y-79000000D03*
X56730000Y-79000000D03*
X54190000Y-79000000D03*
D25*
X141390000Y-85250000D03*
D26*
X138850000Y-85250000D03*
X136310000Y-85250000D03*
X133770000Y-85250000D03*
X131230000Y-85250000D03*
X128690000Y-85250000D03*
X126150000Y-85250000D03*
X123610000Y-85250000D03*
X123610000Y-108110000D03*
X126150000Y-108110000D03*
X128690000Y-108110000D03*
X131230000Y-108110000D03*
X133770000Y-108110000D03*
X136310000Y-108110000D03*
X138850000Y-108110000D03*
X141390000Y-108110000D03*
D27*
X132690000Y-112750000D03*
D28*
X135230000Y-112750000D03*
X137770000Y-112750000D03*
X140310000Y-112750000D03*
D29*
X129760000Y-139990000D03*
X132300000Y-139990000D03*
X134840000Y-139990000D03*
X137380000Y-139990000D03*
X139920000Y-139990000D03*
X142460000Y-139990000D03*
X145000000Y-139990000D03*
X147540000Y-139990000D03*
X147540000Y-124750000D03*
X145000000Y-124750000D03*
X142460000Y-124750000D03*
X139920000Y-124750000D03*
X137380000Y-124750000D03*
X134840000Y-124750000D03*
X132300000Y-124750000D03*
X129760000Y-124750000D03*
D14*
X138290000Y-95250000D03*
D15*
X135750000Y-95250000D03*
X133210000Y-95250000D03*
X130670000Y-95250000D03*
D10*
X117960000Y-116055000D03*
D11*
X119230000Y-116055000D03*
X120500000Y-116055000D03*
D10*
X75730000Y-57000000D03*
D11*
X77000000Y-57000000D03*
X78270000Y-57000000D03*
D12*
X105540000Y-69000000D03*
X103000000Y-69000000D03*
X100460000Y-69000000D03*
X105540000Y-63950000D03*
X103000000Y-63950000D03*
X100460000Y-63950000D03*
X128965000Y-148225000D03*
X131505000Y-148225000D03*
X134045000Y-148225000D03*
X128960000Y-145250000D03*
X131500000Y-145250000D03*
X134040000Y-145250000D03*
D30*
X81792500Y-145747500D03*
D31*
X86792500Y-145747500D03*
X76792500Y-116667500D03*
X91792500Y-116667500D03*
D14*
X94000000Y-86850000D03*
D15*
X94000000Y-89390000D03*
X94000000Y-91930000D03*
X94000000Y-94470000D03*
X94000000Y-97010000D03*
X94000000Y-99550000D03*
X94000000Y-102090000D03*
X94000000Y-104630000D03*
D19*
X118540000Y-145175000D03*
D20*
X116000000Y-145175000D03*
D19*
X53750000Y-104210000D03*
D20*
X53750000Y-106750000D03*
D19*
X124460000Y-115695000D03*
D20*
X127000000Y-115695000D03*
D12*
X114920000Y-52000000D03*
X117460000Y-52000000D03*
X120000000Y-52000000D03*
D32*
X54840000Y-110000000D03*
D33*
X65000000Y-110000000D03*
D27*
X62945000Y-56455000D03*
D28*
X60405000Y-56455000D03*
X57865000Y-56455000D03*
X55325000Y-56455000D03*
D10*
X104380000Y-146000000D03*
D11*
X105650000Y-146000000D03*
X106920000Y-146000000D03*
D34*
X66450000Y-117250000D03*
D35*
X66500000Y-129500000D03*
X54450000Y-129450000D03*
D34*
X54450000Y-117250000D03*
D35*
X60500000Y-115300000D03*
D12*
X114920000Y-57000000D03*
X117460000Y-57000000D03*
X120000000Y-57000000D03*
D27*
X131287500Y-75250000D03*
D28*
X133827500Y-75250000D03*
X136367500Y-75250000D03*
X138907500Y-75250000D03*
D12*
X105540000Y-74000000D03*
X103000000Y-74000000D03*
X100460000Y-74000000D03*
D36*
X58250000Y-135950000D03*
X63250000Y-138250000D03*
D12*
X142250000Y-148250000D03*
X144790000Y-148250000D03*
X147330000Y-148250000D03*
D10*
X86000000Y-109500000D03*
D11*
X84730000Y-109500000D03*
X83460000Y-109500000D03*
D10*
X143500000Y-144500000D03*
D11*
X144770000Y-144500000D03*
X146040000Y-144500000D03*
D29*
X102110000Y-137620000D03*
X104650000Y-137620000D03*
X107190000Y-137620000D03*
X109730000Y-137620000D03*
X112270000Y-137620000D03*
X114810000Y-137620000D03*
X117350000Y-137620000D03*
X119890000Y-137620000D03*
X119890000Y-122380000D03*
X117350000Y-122380000D03*
X114810000Y-122380000D03*
X112270000Y-122380000D03*
X109730000Y-122380000D03*
X107190000Y-122380000D03*
X104650000Y-122380000D03*
X102110000Y-122380000D03*
D37*
X77275000Y-140000000D03*
X81725000Y-140000000D03*
D38*
X85500000Y-116750000D03*
X83600000Y-116750000D03*
M02*
