M48
; DRILL file {KiCad 8.0.6} date 2024-12-03T19:12:29+0100
; FORMAT={-:-/ absolute / metric / decimal}
; #@! TF.CreationDate,2024-12-03T19:12:29+01:00
; #@! TF.GenerationSoftware,Kicad,Pcbnew,8.0.6
; #@! TF.FileFunction,Plated,1,2,PTH
FMAT,2
METRIC
; #@! TA.AperFunction,Plated,PTH,ViaDrill
T1C0.300
; #@! TA.AperFunction,Plated,PTH,ComponentDrill
T2C0.600
; #@! TA.AperFunction,Plated,PTH,ComponentDrill
T3C0.750
; #@! TA.AperFunction,Plated,PTH,ComponentDrill
T4C0.800
; #@! TA.AperFunction,Plated,PTH,ComponentDrill
T5C0.900
; #@! TA.AperFunction,Plated,PTH,ComponentDrill
T6C1.000
; #@! TA.AperFunction,Plated,PTH,ComponentDrill
T7C1.016
; #@! TA.AperFunction,Plated,PTH,ComponentDrill
T8C1.100
; #@! TA.AperFunction,Plated,PTH,ComponentDrill
T9C1.300
%
G90
G05
T1
X63.0Y-109.75
X101.25Y-79.0
X101.25Y-80.825
X107.8Y-80.825
X130.451Y-80.65
X132.0Y-57.0
X132.0Y-80.75
T2
X58.25Y-135.95
X63.25Y-138.25
T3
X51.93Y-88.28
X51.93Y-89.55
X51.93Y-90.82
X69.73Y-108.46
X69.73Y-111.0
X71.0Y-109.73
X75.73Y-57.0
X77.0Y-57.0
X78.27Y-57.0
X83.46Y-109.5
X84.73Y-109.5
X86.0Y-109.5
X104.38Y-146.0
X105.65Y-146.0
X106.92Y-146.0
X116.0Y-69.0
X117.27Y-69.0
X117.96Y-116.055
X118.54Y-69.0
X119.23Y-116.055
X120.5Y-116.055
X143.5Y-144.5
X144.77Y-144.5
X146.04Y-144.5
T4
X55.325Y-56.455
X57.865Y-56.455
X60.405Y-56.455
X62.945Y-56.455
X69.38Y-61.11
X69.38Y-63.65
X69.38Y-66.19
X69.38Y-68.73
X69.38Y-71.27
X69.38Y-73.81
X69.38Y-76.35
X69.38Y-78.89
X71.26Y-87.31
X71.26Y-89.85
X71.26Y-92.39
X71.26Y-94.93
X71.26Y-97.47
X71.26Y-100.01
X71.26Y-102.55
X71.26Y-105.09
X84.62Y-61.11
X84.62Y-63.65
X84.62Y-66.19
X84.62Y-68.73
X84.62Y-71.27
X84.62Y-73.81
X84.62Y-76.35
X84.62Y-78.89
X86.5Y-87.31
X86.5Y-89.85
X86.5Y-92.39
X86.5Y-94.93
X86.5Y-97.47
X86.5Y-100.01
X86.5Y-102.55
X86.5Y-105.09
X102.11Y-122.38
X102.11Y-137.62
X104.65Y-122.38
X104.65Y-137.62
X107.19Y-122.38
X107.19Y-137.62
X109.73Y-122.38
X109.73Y-137.62
X112.27Y-122.38
X112.27Y-137.62
X114.81Y-122.38
X114.81Y-137.62
X117.35Y-122.38
X117.35Y-137.62
X119.89Y-122.38
X119.89Y-137.62
X128.433Y-52.285
X128.433Y-54.825
X128.433Y-57.365
X128.433Y-59.905
X128.433Y-62.445
X128.433Y-64.985
X128.433Y-67.525
X128.433Y-70.065
X129.76Y-124.75
X129.76Y-139.99
X131.287Y-75.25
X132.3Y-124.75
X132.3Y-139.99
X132.69Y-112.75
X133.827Y-75.25
X134.84Y-124.75
X134.84Y-139.99
X135.23Y-112.75
X136.368Y-75.25
X137.38Y-124.75
X137.38Y-139.99
X137.77Y-112.75
X138.907Y-75.25
X139.92Y-124.75
X139.92Y-139.99
X140.31Y-112.75
X142.46Y-124.75
X142.46Y-139.99
X143.672Y-52.285
X143.672Y-54.825
X143.672Y-57.365
X143.672Y-59.905
X143.672Y-62.445
X143.672Y-64.985
X143.672Y-67.525
X143.672Y-70.065
X145.0Y-124.75
X145.0Y-139.99
X147.54Y-124.75
X147.54Y-139.99
T5
X53.0Y-68.46
X53.0Y-71.0
X53.75Y-99.21
X53.75Y-101.75
X53.75Y-104.21
X53.75Y-106.75
X116.0Y-145.175
X118.54Y-145.175
X123.0Y-79.0
X124.46Y-115.695
X125.54Y-79.0
X126.5Y-136.975
X126.5Y-139.515
X127.0Y-115.695
T6
X54.19Y-79.0
X54.45Y-117.25
X56.73Y-79.0
X59.27Y-79.0
X61.81Y-79.0
X66.45Y-117.25
X76.792Y-116.667
X81.792Y-145.748
X86.792Y-145.748
X91.792Y-116.667
X92.5Y-61.315
X92.5Y-63.855
X92.5Y-66.395
X92.5Y-68.935
X92.5Y-71.475
X92.5Y-74.015
X92.5Y-76.555
X92.5Y-79.095
X94.0Y-86.85
X94.0Y-89.39
X94.0Y-91.93
X94.0Y-94.47
X94.0Y-97.01
X94.0Y-99.55
X94.0Y-102.09
X94.0Y-104.63
X123.61Y-85.25
X123.61Y-108.11
X126.15Y-85.25
X126.15Y-108.11
X128.69Y-85.25
X128.69Y-108.11
X130.03Y-121.25
X130.67Y-95.25
X131.23Y-85.25
X131.23Y-108.11
X132.57Y-121.25
X133.21Y-95.25
X133.77Y-85.25
X133.77Y-108.11
X135.11Y-121.25
X135.75Y-95.25
X136.31Y-85.25
X136.31Y-108.11
X137.65Y-121.25
X138.29Y-95.25
X138.85Y-85.25
X138.85Y-108.11
X140.19Y-121.25
X141.39Y-85.25
X141.39Y-108.11
X142.73Y-121.25
X145.27Y-121.25
X147.81Y-121.25
X148.0Y-52.0
X148.0Y-54.54
X148.0Y-57.08
X148.0Y-59.62
X148.0Y-62.16
X148.0Y-64.7
X148.0Y-67.24
X148.0Y-69.78
T7
X55.75Y-87.41
X55.75Y-89.95
X55.75Y-92.49
X59.5Y-87.41
X59.5Y-89.95
X59.5Y-92.49
X61.0Y-68.92
X61.0Y-71.46
X61.0Y-74.0
X63.37Y-87.41
X63.37Y-89.95
X63.37Y-92.49
X70.0Y-52.46
X70.0Y-55.0
X70.0Y-57.54
X75.67Y-52.25
X78.21Y-52.25
X80.75Y-52.25
X85.0Y-52.46
X85.0Y-55.0
X85.0Y-57.54
X100.46Y-63.95
X100.46Y-69.0
X100.46Y-74.0
X102.92Y-141.0
X103.0Y-63.95
X103.0Y-69.0
X103.0Y-74.0
X105.46Y-141.0
X105.54Y-63.95
X105.54Y-69.0
X105.54Y-74.0
X108.0Y-141.0
X114.92Y-52.0
X114.92Y-57.0
X114.92Y-62.0
X116.73Y-111.695
X117.46Y-52.0
X117.46Y-57.0
X117.46Y-62.0
X119.27Y-111.695
X120.0Y-52.0
X120.0Y-57.0
X120.0Y-62.0
X121.81Y-111.695
X128.96Y-145.25
X128.965Y-148.225
X131.5Y-145.25
X131.505Y-148.225
X134.04Y-145.25
X134.045Y-148.225
X142.25Y-148.25
X144.79Y-148.25
X147.33Y-148.25
T8
X54.84Y-110.0
X65.0Y-110.0
T9
X53.25Y-144.25
X54.45Y-129.45
X58.25Y-144.25
X60.5Y-115.3
X63.25Y-144.25
X66.5Y-129.5
X68.25Y-144.25
M30
